<?xml version="1.0" standalone="no"?>
<!DOCTYPE svg PUBLIC "-//W3C//DTD SVG 1.1//EN" "http://www.w3.org/Graphics/SVG/1.1/DTD/svg11.dtd" >
<svg>
<metadata>
Created by FontForge 20090914 at Thu Dec  6 09:25:13 2012
 By www-data
Copyright (c) Ray Larabie 2004. Do not distribute. Report piracy to piracy@typodermic.com. Visit www.typodermic.com and www.larabiefonts.com
</metadata>
<defs>
<font id="Amienne" horiz-adv-x="293" >
  <font-face 
    font-family="Amienne"
    font-weight="400"
    font-stretch="normal"
    units-per-em="1000"
    panose-1="4 0 5 8 6 0 0 2 0 3"
    ascent="800"
    descent="-200"
    x-height="325"
    cap-height="523"
    bbox="-132.999 -283.998 902.002 694.004"
    underline-thickness="50"
    underline-position="-50"
    unicode-range="U+0020-U+FB02"
  />
<missing-glyph horiz-adv-x="195" 
 />
    <glyph glyph-name=".notdef" horiz-adv-x="195" 
 />
    <glyph glyph-name="glyph196" horiz-adv-x="500" 
 />
    <glyph glyph-name="glyph196" horiz-adv-x="500" 
 />
    <glyph glyph-name="space" unicode=" " horiz-adv-x="195" 
 />
    <glyph glyph-name="exclam" unicode="!" horiz-adv-x="129" 
d="M94 293c-0.666992 -4.66699 -1.5 -11.5039 -2.5 -20.5039s-1.5 -17.833 -1.5 -26.5c0 -10 0.833008 -18.5 2.5 -25.5s5.5 -10.5 11.5 -10.5c9.33301 0 19.333 2.83301 30 8.5s18 10.167 22 13.5c-1.33301 -9.33301 -7.66602 -16.666 -18.999 -21.999s-24.333 -8 -39 -8
c-22.667 0 -37.834 5.83301 -45.501 17.5s-11.5 25.167 -11.5 40.5c0 6.66699 0.333008 13.334 1 20.001s1.66699 13.334 3 20.001c2.66699 14.667 8.16699 31 16.5 49s17.333 36.5 27 55.5l27.5 56.5c8.66699 18.667 14.667 36 18 52
c9.33301 -7.33301 15.5 -14.666 18.5 -21.999s4.5 -15.333 4.5 -24v-13c-0.666992 -5.33301 -4 -14.833 -10 -28.5l-19.5 -45l-20.5 -48.5c-6.66699 -16 -11 -29 -13 -39zM54 119.996c12.667 0 22.334 -4.33398 29.001 -13.001s10 -17.667 10 -27c0 -10 -2 -19.833 -6 -29.5
s-8.66699 -19.167 -14 -28.5l-16 -28.5c-5.33301 -9.66699 -9.33301 -19.5 -12 -29.5c-15.333 7.33301 -23 22.666 -23 45.999c0 12 1.5 23.5 4.5 34.5s6.33301 21.333 10 31s7.16699 18.334 10.5 26.001s5.66602 13.834 6.99902 18.501z" />
    <glyph glyph-name="quotedbl" unicode="&#x22;" horiz-adv-x="199" 
d="M207 579c10.667 0 19.334 -3.5 26.001 -10.5s10 -16.5 10 -28.5c0 -6 -0.333008 -10 -1 -12c-3.33301 -14 -8 -28.333 -14 -43s-12.5 -29.5 -19.5 -44.5s-13.667 -30 -20 -45s-11.5 -30.167 -15.5 -45.5c-10.667 6.66699 -16 20.667 -16 42c0 18.667 2.33301 37.5 7 56.5
s10 36.833 16 53.5l17 45.5c5.33301 13.667 8.66602 24.167 9.99902 31.5zM116 579c11.333 0 20.835 -3.66602 28.502 -10.999s11.5 -17.333 11.5 -30c0 -14 -2.5 -29 -7.5 -45s-10.833 -32.167 -17.5 -48.5l-20 -48.5c-6.66699 -16 -12 -31.333 -16 -46
c-12 8 -18 25.667 -18 53c0 17.333 1.83301 35 5.5 53s7.66699 35 12 51s8.66602 30.167 12.999 42.5s7.16602 22.166 8.49902 29.499z" />
    <glyph glyph-name="numbersign" unicode="#" horiz-adv-x="317" 
d="M199 466c5.33301 -9.33301 8.00488 -19.3389 8.00488 -30.0059c0 -14.667 -3.16699 -31.667 -9.5 -51s-14.833 -42.333 -25.5 -69c6 0 13 0.166992 21 0.5s17.667 0.833008 29 1.5c6 12.667 13.333 27.167 22 43.5s17 32.833 25 49.5s15 32.5 21 47.5
s9.66699 27.5 11 37.5l1 6c5.33301 0 9.16602 -3 11.499 -9s3.5 -12.333 3.5 -19c0 -12 -2.83301 -26 -8.5 -42s-11.834 -31.833 -18.501 -47.5s-13 -29.667 -19 -42s-9.33301 -20.5 -10 -24.5c34.667 0 65.667 2.33301 93 7c-12 -16 -26.5 -26.667 -43.5 -32
s-38.167 -8 -63.5 -8c-8.66699 -16 -15.334 -33 -20.001 -51c5.33301 0 14.833 -0.5 28.5 -1.5s31.834 -2.16699 54.501 -3.5c-11.333 -3.33301 -19.666 -6 -24.999 -8s-10.666 -3.66699 -15.999 -5s-12 -2.83301 -20 -4.5s-20 -3.83398 -36 -6.50098l-22 -59.5l-17.5 -47.5
c-5 -14 -8.83301 -26.667 -11.5 -38s-4 -22.333 -4 -33c0 -3.33301 0.166992 -6.66602 0.5 -9.99902s0.833008 -6.66602 1.5 -9.99902c-8.66699 1.33301 -14.667 6 -18 14s-5 17.333 -5 28c0 6.66699 0.333008 13.5 1 20.5s2.16699 15.833 4.5 26.5s6 23.834 11 39.501
s12.167 35.5 21.5 59.5c-9.33301 -0.666992 -17.5 -1.16699 -24.5 -1.5s-13.167 -0.5 -18.5 -0.5c-16 -48 -27.833 -86.667 -35.5 -116s-11.5 -50.666 -11.5 -63.999c0 -7.33301 1.66699 -11 5 -11c1.33301 0 2.66602 0.666992 3.99902 2
c-0.666992 -8.66699 -4.33398 -13 -11.001 -13c-14 0 -21 16.333 -21 49c0 16.667 1 31.5 3 44.5s4.66699 25.333 8 37s7.16602 23.167 11.499 34.5l13.5 37c-15.333 0 -27.5 0.833008 -36.5 2.5s-16 4.33398 -21 8.00098s-8.33301 8 -10 13s-2.83398 11.167 -3.50098 18.5
c18 -4 45.667 -6 83 -6l15 47c-15.333 1.33301 -26.666 3 -33.999 5s-12.833 4.83301 -16.5 8.5s-6 8 -7 13s-2.5 10.833 -4.5 17.5c12.667 -2.66699 38 -4 76 -4c6 10.667 12.167 23 18.5 37s12.166 27.833 17.499 41.5s10.166 26.834 14.499 39.501s7.5 23.334 9.5 32.001
zM146.005 230.994c9.33301 1.33301 17.168 2.16699 23.501 2.5s12.5 0.5 18.5 0.5c2.66699 8.66699 5.66699 16.667 9 24l10 22l-25.5 -3.5c-7.66699 -1 -14.834 -1.5 -21.501 -1.5z" />
    <glyph glyph-name="dollar" unicode="$" horiz-adv-x="232" 
d="M174 504c12.667 0 19 -13.6719 19 -41.0049c0 -19.333 -3 -47 -9 -83v-8c20.667 -1.33301 35.5 -4.83301 44.5 -10.5s13.5 -10.5 13.5 -14.5c-2 0.666992 -4.33301 1.16699 -7 1.5s-6.33398 0.5 -11.001 0.5c-14.667 0 -30 -2 -46 -6c-4 -22.667 -8.66699 -45 -14 -67
l-16 -66c14 -9.33301 28.833 -18.333 44.5 -27s29.167 -17 40.5 -25c-11.333 -6.66699 -26.5 -13 -45.5 -19s-38.5 -11 -58.5 -15l-5 -28c-2.66699 -18.667 -5 -38 -7 -58s-3 -36 -3 -48c0 -7.33301 0.333008 -11.666 1 -12.999c-14 2 -21 20.667 -21 56
c0 10.667 0.666992 23.334 2 38.001s3.66602 31 6.99902 49c-9.33301 -1.33301 -17.666 -2.33301 -24.999 -3s-13.666 -1 -18.999 -1c-12 0 -21.667 2.33301 -29 7s-11 10.334 -11 17.001c0 8.66699 5.33301 14.334 16 17.001c-2 -1.33301 -3 -4.33301 -3 -9
s5.66699 -7 17 -7c8 0 16.833 0.666992 26.5 2s20.167 3.33301 31.5 6c1.33301 8.66699 3 17.5 5 26.5l6 27.5c-16 10.667 -30 22.667 -42 36s-18 28 -18 44c0 20 11.667 39 35 57c18 14.667 39.667 24.667 65 30l15.5 59c5 18.667 7.5 36 7.5 52
c0 10.667 -2.33301 18.334 -7 23.001zM148 331.995c-7.33301 -3.33301 -14.167 -6.83203 -20.5 -10.499s-11.833 -7.83398 -16.5 -12.501c-14 -12 -21 -24.667 -21 -38c0 -7.33301 2.33301 -14.5 7 -21.5s13 -14.5 25 -22.5c4.66699 16.667 9 34 13 52s8.33301 35.667 13 53
zM177.999 169.996c-4.66699 2.66699 -10 5.33301 -16 8s-12.333 6 -19 10c-1.33301 -5.33301 -2.5 -10.666 -3.5 -15.999s-2.16699 -10.333 -3.5 -15c8 1.33301 15.5 3.16602 22.5 5.49902s13.5 4.83301 19.5 7.5z" />
    <glyph glyph-name="percent" unicode="%" horiz-adv-x="361" 
d="M221 -38c-35.333 0 -52.998 17 -52.998 51c0 5.33301 1.5 13.5 4.5 24.5s7.16699 23.333 12.5 37s12 28.167 20 43.5s17 29.666 27 42.999c11.333 14.667 23.666 26.667 36.999 36s27.666 14 42.999 14c0 -4 1.5 -7.5 4.5 -10.5l10 -10.5c3.66699 -4 7 -9.16699 10 -15.5
s4.5 -15.166 4.5 -26.499c0 -4.66699 -1 -11.334 -3 -20.001s-4.66699 -18.667 -8 -30s-7.66602 -23.166 -12.999 -35.499s-11.333 -24.5 -18 -36.5c-10.667 -17.333 -22.334 -32.333 -35.001 -45s-27 -19 -43 -19zM305.002 175c-4.66699 0 -12 -3.83301 -22 -11.5
s-20.333 -18.167 -31 -31.5c-14.667 -17.333 -27.834 -38 -39.501 -62s-17.5 -48.667 -17.5 -74c0 -3.33301 1.33301 -6 4 -8c14 2 27.333 8.83301 40 20.5s24.334 25.167 35.001 40.5c12 18 21.833 36.667 29.5 56s11.5 35 11.5 47c0 15.333 -3.33301 23 -10 23z
M385.002 527c6 -2 8.99805 -7.99707 8.99805 -17.9971c0 -0.666992 -0.166992 -1.83398 -0.5 -3.50098s-0.5 -3.16699 -0.5 -4.5c-2.66699 -18 -9.66699 -37.833 -21 -59.5s-24.666 -44.167 -39.999 -67.5c-15.333 -22 -32.166 -44.833 -50.499 -68.5l-56.5 -71l-57.5 -71.5
c-19 -24 -36.833 -47.667 -53.5 -71l-17.5 -24.5l-21 -30.5c-7 -10.667 -13 -21.167 -18 -31.5s-7.5 -18.833 -7.5 -25.5c0 -8.66699 6.33301 -13.334 19 -14.001c-10 -10 -22.667 -15 -38 -15c-4.66699 0 -9.16699 2.83301 -13.5 8.5s-6.5 14.167 -6.5 25.5
c0 5.33301 0.333008 9 1 11c0.666992 9.33301 6.5 23.333 17.5 42s25.167 40 42.5 64c14.667 21.333 31.334 44.166 50.001 68.499l57.5 74l58.5 74l53 68.5l40.5 53c11.667 15.333 20.834 28.333 27.501 39c5.33301 8 10.166 16 14.499 24s8.16602 16 11.499 24z
M105 260.003c-16.667 0 -28.335 3.50293 -35.002 10.5029s-10 17.167 -10 30.5c0 3.33301 0.166992 6.66602 0.5 9.99902s0.833008 6.66602 1.5 9.99902c1.33301 6.66699 4 15.167 8 25.5s9.33301 21.5 16 33.5s14.334 24.167 23.001 36.5s18.334 23.833 29.001 34.5
c13.333 14 27.333 25.833 42 35.5s29.334 14.5 44.001 14.5c0 -5.33301 1.16699 -9.33301 3.5 -12s4.66602 -5.5 6.99902 -8.5s4.66602 -7.16699 6.99902 -12.5s3.5 -13.333 3.5 -24c0 -5.33301 -0.666992 -11.333 -2 -18c-2 -12 -8 -28 -18 -48s-22 -39.333 -36 -58
c-13.333 -16.667 -27.166 -30.834 -41.499 -42.501s-28.5 -17.5 -42.5 -17.5zM213.999 467.006c-4 0 -11.667 -3.83496 -23 -11.502s-24 -18.167 -38 -31.5c-17.333 -17.333 -33.333 -37.666 -48 -60.999s-22 -47.333 -22 -72c0 -2.66699 0.666992 -4.66699 2 -6
c16 2.66699 31.5 10 46.5 22s28.5 26 40.5 42c15.333 20.667 27.333 40.334 36 59.001s13 33.667 13 45c0 9.33301 -2.33301 14 -7 14z" />
    <glyph glyph-name="ampersand" unicode="&#x26;" horiz-adv-x="340" 
d="M253 503c25.333 0 38.001 -15.0029 38.001 -45.0029c0 -25.333 -5.5 -50.333 -16.5 -75s-24.5 -49 -40.5 -73c-16.667 -24 -35 -46.5 -55 -67.5l-57 -58.5c1.33301 -5.33301 4.33301 -12.833 9 -22.5s10 -20 16 -31s12.333 -21.333 19 -31s12.667 -17.167 18 -22.5
c8.66699 6.66699 18.667 15.834 30 27.501l33 35.5l22.5 28.5c6.33301 8.33301 9.5 13.833 9.5 16.5s-0.333008 5 -1 7s-1.33398 3.66699 -2.00098 5c6 6 13.333 9 22 9c6 0 11 -1.33301 15 -4s6 -7.33398 6 -14.001c0 -11.333 -4.66699 -23.833 -14 -37.5
s-20.333 -27.167 -33 -40.5c-10.667 -11.333 -21.667 -21.666 -33 -30.999s-20.333 -16.333 -27 -21c10.667 -10 20.834 -19 30.501 -27s19.834 -15.333 30.501 -22s21 -12.167 31 -16.5s19 -6.5 27 -6.5c13.333 0 21.666 7 24.999 21c4.66699 -2 8.5 -4.83301 11.5 -8.5
s4.5 -9.16699 4.5 -16.5c0 -12 -5.5 -23.333 -16.5 -34s-25.5 -16 -43.5 -16c-12 0 -23.833 2.33301 -35.5 7s-23.167 10.667 -34.5 18c-15.333 10 -29.666 21.667 -42.999 35s-24.333 25 -33 35c-12 -8.66699 -26.333 -16.667 -43 -24s-38.334 -11 -65.001 -11
c-36 0 -54 17.333 -54 52c0 26.667 7 53.334 21 80.001s33.667 51.334 59 74.001c-6.66699 15.333 -10 37 -10 65c0 44 6.66699 82 20 114s30.666 58 51.999 78c15.333 16 32.5 28 51.5 36s37.5 12 55.5 12zM35.001 53.9971c-0.666992 -2 -1 -6.00098 -1 -12.001
c0 -8 2.16699 -14.333 6.5 -19s12.5 -7 24.5 -7c14 0 29 3.5 45 10.5s29 15.167 39 24.5c-2.66699 4 -6.66699 10.5 -12 19.5l-17 29c-6 10.333 -11.5 20.833 -16.5 31.5s-8.16699 19.334 -9.5 26.001c-10 -8 -21.333 -20.833 -34 -38.5s-21 -39.167 -25 -64.5z
M251.001 487.996c-14 0 -28.668 -5.00293 -44.001 -15.0029s-29.666 -22.667 -42.999 -38c-12 -14.667 -22.333 -30.667 -31 -48s-14.667 -35 -18 -53c-2 -15.333 -3.66699 -29.166 -5 -41.499s-2 -23.166 -2 -32.499c0 -16 1.33301 -27 4 -33c12 12 26.5 27.667 43.5 47
s33.5 40 49.5 62c18 24.667 33.5 48.834 46.5 72.501s19.5 43.167 19.5 58.5c0 14 -6.66699 21 -20 21z" />
    <glyph glyph-name="quotesingle" unicode="'" horiz-adv-x="115" 
d="M116 579c11.333 0 20.834 -3.66602 28.501 -10.999s11.5 -17.333 11.5 -30c0 -12 -1.83301 -24.5 -5.5 -37.5s-8.16699 -26.5 -13.5 -40.5l-23 -56c-8 -18.667 -14.333 -36.667 -19 -54c-12 8 -18 25.667 -18 53c0 17.333 1.66699 34.666 5 51.999s7.33301 34 12 50
c11.333 33.333 18.666 58 21.999 74z" />
    <glyph glyph-name="parenleft" unicode="(" horiz-adv-x="278" 
d="M97 186c0 -28 2.50098 -55.334 7.50098 -82.001s11.5 -51.667 19.5 -75c10.667 -30 24.5 -56 41.5 -78s36.167 -38.333 57.5 -49c-34 2.66699 -61.833 14.334 -83.5 35.001s-38.5 47 -50.5 79c-17.333 48 -26 100.667 -26 158c0 34 4 72.5 12 115.5s23 85.5 45 127.5
c18.667 36 43.167 69.333 73.5 100s68.833 54.667 115.5 72c-34.667 -21.333 -65.667 -47.833 -93 -79.5s-50 -67.5 -68 -107.5c-16.667 -34 -29.334 -69 -38.001 -105s-13 -73 -13 -111z" />
    <glyph glyph-name="parenright" unicode=")" horiz-adv-x="282" 
d="M263 314c0 -16.667 -1.16797 -35.3311 -3.50098 -55.998s-6 -42.334 -11 -65.001s-11.667 -45.5 -20 -68.5s-18.5 -45.167 -30.5 -66.5c-18.667 -32 -42 -61.167 -70 -87.5s-63 -47.5 -105 -63.5c30.667 20 58.834 44.167 84.501 72.5s47.5 60.5 65.5 96.5
c18 34 31.833 70 41.5 108s14.5 77 14.5 117c0 24.667 -1.83301 49.167 -5.5 73.5s-9.16699 47.833 -16.5 70.5c-10 32 -23.667 59.667 -41 83s-37 40.666 -59 51.999c34 -2 61.333 -13.5 82 -34.5s37 -47.5 49 -79.5c8.66699 -22.667 15 -47 19 -73s6 -52.333 6 -79z" />
    <glyph glyph-name="asterisk" unicode="*" horiz-adv-x="306" 
d="M194 299c-7.33301 -22.667 -14.3379 -42.1689 -21.0049 -58.502s-16 -34.5 -28 -54.5c-0.666992 4.66699 -1 9.16699 -1 13.5v11.5c0 8.66699 0.166992 15.667 0.5 21s1 10.666 2 15.999s2.33301 11.833 4 19.5s3.83398 18.834 6.50098 33.501
c-7.33301 -8.66699 -15.333 -17.167 -24 -25.5s-17.5 -16 -26.5 -23s-17.833 -12.667 -26.5 -17s-16 -6.5 -22 -6.5c11.333 8.66699 20.833 17.334 28.5 26.001s14.834 17.334 21.501 26.001s13.834 17.334 21.501 26.001s17.5 17.667 29.5 27l-28 38
c-7.33301 10 -13.833 18 -19.5 24s-10.667 10.167 -15 12.5s-9.16602 3.5 -14.499 3.5c2 4 5.33301 6.66699 10 8s9.33398 2 14.001 2c14.667 0 28.667 -4.33301 42 -13c6 -4.66699 11.833 -10 17.5 -16s10.834 -13 15.501 -21c13.333 46.667 24.666 81.5 33.999 104.5
s19.666 34.5 30.999 34.5c-3.33301 -14 -6.5 -28.333 -9.5 -43s-5.66699 -28.667 -8 -42s-4.66602 -25.5 -6.99902 -36.5s-4.5 -19.5 -6.5 -25.5c14.667 14.667 32.167 27.167 52.5 37.5s41.833 15.5 64.5 15.5c-20 -9.33301 -35.333 -17.166 -46 -23.499
s-19.5 -12.333 -26.5 -18s-13.833 -11.5 -20.5 -17.5s-15.667 -13 -27 -21c18.667 -19.333 33.667 -37.833 45 -55.5s17 -32.167 17 -43.5c-10.667 1.33301 -19.167 3.16602 -25.5 5.49902s-11.833 6.16602 -16.5 11.499c-6 4.66699 -11.667 10.5 -17 17.5z" />
    <glyph glyph-name="plus" unicode="+" horiz-adv-x="421" 
d="M222 93c-1.33301 -12.667 -3.33008 -22.499 -5.99707 -29.499s-5.5 -12.167 -8.5 -15.5s-6.16699 -5.33301 -9.5 -6s-6 -1 -8 -1c-10 0 -18 5.66699 -24 17s-9 23.333 -9 36c0 6.66699 0.333008 10.667 1 12c4 -10 7.5 -18.167 10.5 -24.5s6.5 -9.5 10.5 -9.5
c1.33301 0 3.16602 4 5.49902 12s4.83301 19 7.5 33l9 48.5c3.33301 18.333 6.66602 38.166 9.99902 59.499c-4 0 -10.833 -0.333008 -20.5 -1s-20.167 -1 -31.5 -1c-10.667 0 -21.667 0.666992 -33 2s-21.833 3.5 -31.5 6.5s-18 7.33301 -25 13s-11.167 12.5 -12.5 20.5
c6.66699 -3.33301 16.667 -5.66602 30 -6.99902s27.666 -2.33301 42.999 -3s30.833 -1 46.5 -1s29.5 -0.333008 41.5 -1l9.5 43c3.66699 16 7 32.333 10 49s5.66699 32.5 8 47.5s3.5 27.833 3.5 38.5c0 12 -1.66699 19.667 -5 23c4.66699 2 8.66699 3 12 3
c7.33301 0 12.333 -5 15 -15s4 -22.667 4 -38c0 -20.667 -1.83301 -45 -5.5 -73s-8.16699 -53.333 -13.5 -76c10.667 -0.666992 20.834 -1 30.501 -1h26.5c22 0 40.333 0.666992 55 2s30.667 4.33301 48 9c-26.667 -18 -53 -29.333 -79 -34s-55 -7.33398 -87 -8.00098
c-4.66699 -14 -9.33398 -33 -14.001 -57z" />
    <glyph glyph-name="comma" unicode="," horiz-adv-x="114" 
d="M48 100c19.333 0 29.001 -12.001 29.001 -36.001c0 -26 -4.66699 -50 -14 -72c-6.66699 -14 -14.334 -26 -23.001 -36s-17.167 -18 -25.5 -24s-16 -10.5 -23 -13.5s-11.833 -4.5 -14.5 -4.5c4.66699 6 11.167 17.833 19.5 35.5s15.833 37.834 22.5 60.501
c4 14 7.16699 28.167 9.5 42.5s3.5 28.5 3.5 42.5c6.66699 3.33301 12 5 16 5z" />
    <glyph glyph-name="hyphen" unicode="-" horiz-adv-x="289" 
d="M184 251c9.33301 0 19.334 -0.167969 30.001 -0.500977s20.834 -0.666016 30.501 -0.999023s18.167 -1 25.5 -2s12.666 -2.5 15.999 -4.5c-51.333 -22.667 -105.333 -34 -162 -34c-14.667 0 -28.167 1.83301 -40.5 5.5s-20.833 11.5 -25.5 23.5
c25.333 0 48.166 2.16699 68.499 6.5s39.5 6.5 57.5 6.5z" />
    <glyph glyph-name="period" unicode="." horiz-adv-x="115" 
d="M41 120c12.667 0 22.334 -4.33301 29.001 -13s10 -17.667 10 -27c0 -14.667 -4 -29 -12 -43c-6 -12 -12.5 -23.833 -19.5 -35.5s-12.5 -24.167 -16.5 -37.5c-14.667 6.66699 -22 22 -22 46c0 10 1.16699 20 3.5 30s5.16602 19.333 8.49902 28c4 11.333 8 21.5 12 30.5
s6.33301 16.167 7 21.5z" />
    <glyph glyph-name="slash" unicode="/" horiz-adv-x="250" 
d="M290 580c6 -4 8.99902 -13 8.99902 -27c0 -16 -4 -35.833 -12 -59.5s-18.333 -50.5 -31 -80.5c-16.667 -38 -36 -78.667 -58 -122l-64.5 -127.5c-21 -41.667 -39.667 -81 -56 -118s-27.166 -67.833 -32.499 -92.5c0 -1.33301 -0.166992 -2.33301 -0.5 -3
s-0.5 -1.66699 -0.5 -3c0 -10 6 -15 18 -15c-9.33301 -9.33301 -18.666 -14 -27.999 -14c-4.66699 0 -9.83398 2.66699 -15.501 8s-8.5 15 -8.5 29c0 18 9.33301 48 28 90c10 24 22 51.167 36 81.5l44.5 93.5l48 96.5l45.5 90.5l37 75c10.667 22 18.667 39 24 51l9.5 23.5
c3 7.66699 5.5 15.5 7.5 23.5z" />
    <glyph glyph-name="zero" unicode="0" horiz-adv-x="312" 
d="M273 515c0.666992 -3.33301 1.50293 -8 2.50293 -14s1.5 -10.667 1.5 -14c2.66699 -1.33301 8.16699 -4.83301 16.5 -10.5s17 -14 26 -25s17 -25.167 24 -42.5s10.5 -38.333 10.5 -63c0 -26 -3.33301 -53 -10 -81s-15.5 -55.5 -26.5 -82.5s-24 -52.667 -39 -77
s-30.833 -45.833 -47.5 -64.5s-33.834 -33.667 -51.501 -45s-34.834 -17.666 -51.501 -18.999c-28.667 0 -52.334 11.333 -71.001 34s-28 54 -28 94c0 46 8.66699 92.167 26 138.5s38.5 88.666 63.5 126.999s51.5 70.5 79.5 96.5s53 42 75 48zM105.003 9
c20.667 2 43.333 14.5049 68 37.5049s47.5 52 68.5 87s38.5 73.667 52.5 116s21 83.5 21 123.5c0 13.333 -2 25 -6 35s-8.5 18.167 -13.5 24.5s-10 11 -15 14s-8.83301 4.5 -11.5 4.5c-4.66699 0 -12.667 -4.33301 -24 -13s-24.333 -20.834 -39 -36.501
s-29.834 -34.5 -45.501 -56.5s-30.167 -45.833 -43.5 -71.5s-24.166 -53.167 -32.499 -82.5s-12.5 -59.333 -12.5 -90c0 -8.66699 0.666992 -17.834 2 -27.501s3.5 -18.834 6.5 -27.501s6.5 -16.334 10.5 -23.001s8.66699 -11.334 14 -14.001z" />
    <glyph glyph-name="one" unicode="1" horiz-adv-x="200" 
d="M157 496c14.667 4 32.667 6 54 6l-66.5 -232c-21.667 -76.667 -39.5 -154.334 -53.5 -233.001c12.667 -1.33301 24.667 -2.33301 36 -3s22.666 -1 33.999 -1c18 0 35 1 51 3c-17.333 -16.667 -36.833 -26.667 -58.5 -30s-44.5 -5 -68.5 -5
c-1.33301 -3.33301 -2.33301 -8.16602 -3 -14.499s-1 -11.833 -1 -16.5c-5.33301 3.33301 -10 8.66602 -14 15.999s-6.66699 14 -8 20c-15.333 2 -30.666 6.66699 -45.999 14s-27.333 17.666 -36 30.999c12.667 -1.33301 27 -3 43 -5s30 -3.66699 42 -5
c2 16 5.66699 39.333 11 70s11.5 63.834 18.5 99.501s14.667 71.334 23 107.001s16.5 67.167 24.5 94.5c-8 -10 -17.5 -18.5 -28.5 -25.5s-22.5 -10.5 -34.5 -10.5c-10.667 0 -20.667 3.66699 -30 11c22.667 9.33301 43.667 23.333 63 42s35.333 41 48 67z" />
    <glyph glyph-name="two" unicode="2" horiz-adv-x="385" 
d="M269 509c15.333 0 30.168 -2.16504 44.501 -6.49805s27 -10.5 38 -18.5s19.833 -17.5 26.5 -28.5s10 -23.167 10 -36.5c0 -28.667 -9 -57.834 -27 -87.501s-41 -59.5 -69 -89.5c-18 -19.333 -36.833 -38.333 -56.5 -57l-58.5 -54l-55 -49.5
c-17.333 -15.667 -32.333 -29.834 -45 -42.501c5.33301 0.666992 12.166 1.16699 20.499 1.5s18.166 0.5 29.499 0.5c19.333 0 41.333 -0.833008 66 -2.5s49.667 -4.16699 75 -7.5c28.667 -3.33301 55.834 -7.66602 81.501 -12.999s45.834 -11.333 60.501 -18
c-20 1.33301 -41 2.33301 -63 3s-44.333 1 -67 1c-46.667 0 -92.5 -1.5 -137.5 -4.5s-85.5 -7.5 -121.5 -13.5c-8.66699 4.66699 -15.167 12 -19.5 22s-6.5 20.667 -6.5 32c0 6.66699 0.333008 11 1 13l2 7l56.5 38c21.667 14.667 44 30.667 67 48s46 36 69 56
s44.167 40.667 63.5 62c25.333 28 46.333 56.667 63 86s25 59 25 89c0 12 -4.83301 21.833 -14.5 29.5s-24.834 11.5 -45.501 11.5c-17.333 0 -34 -3 -50 -9s-31.667 -13.833 -47 -23.5s-30.333 -20 -45 -31l-44 -31.5c-11.333 -8 -22 -12 -32 -12
c-10.667 0 -19 3.5 -25 10.5s-9.33301 16.167 -10 27.5c11.333 1.33301 26.333 7.16602 45 17.499l61 33.5c22 12 44.5 22.833 67.5 32.5s45.167 14.5 66.5 14.5z" />
    <glyph glyph-name="three" unicode="3" horiz-adv-x="394" 
d="M249 508c11.333 0 26.001 -1.00781 44.001 -3.00781s35.667 -5.83301 53 -11.5s32.166 -13.834 44.499 -24.501s18.5 -25 18.5 -43c0 -22 -8 -42.333 -24 -61s-35.667 -35.667 -59 -51c-14.667 -9.33301 -30 -17.833 -46 -25.5l-46 -21.5
c15.333 -5.33301 30.333 -11.833 45 -19.5s28.334 -16.5 41.001 -26.5c17.333 -12.667 31.5 -27.334 42.5 -44.001s16.5 -36.667 16.5 -60s-6 -42.666 -18 -57.999s-27.333 -27.666 -46 -36.999c-13.333 -6.66699 -27.666 -12.167 -42.999 -16.5
s-30.666 -7.66602 -45.999 -9.99902s-30 -3.83301 -44 -4.5s-26.333 -1 -37 -1c-22 0 -41.5 2.16699 -58.5 6.5s-31.167 9.83301 -42.5 16.5s-19.833 14.334 -25.5 23.001s-8.5 17.334 -8.5 26.001c0 28 9.16699 51.833 27.5 71.5s38.5 35.167 60.5 46.5
c-12 -12 -22 -24.667 -30 -38s-12 -32.333 -12 -57c0 -18 7.33301 -29.5 22 -34.5s38 -7.5 70 -7.5c23.333 0 48.166 1.83301 74.499 5.5s49.166 10.5 68.499 20.5c12 6.66699 21.667 14.334 29 23.001s11 19.334 11 32.001c0 13.333 -3.33301 25.833 -10 37.5
s-15.334 22.5 -26.001 32.5c-15.333 14.667 -33 26.834 -53 36.501s-39 15.834 -57 18.501c-18.667 -10.667 -38.334 -16 -59.001 -16c-22 0 -39.833 4.33301 -53.5 13s-20.5 21.667 -20.5 39c5.33301 -1.33301 11.833 -2.66602 19.5 -3.99902s15.167 -2 22.5 -2
c13.333 0 28.5 1.83301 45.5 5.5s34.5 8.66699 52.5 15s36.167 13.5 54.5 21.5s35.166 16.333 50.499 25c20.667 12 37.5 24.667 50.5 38s19.5 26 19.5 38s-5 21.833 -15 29.5s-22 13.667 -36 18s-28.833 7.5 -44.5 9.5s-29.167 3 -40.5 3
c-13.333 0 -29.166 -3.16699 -47.499 -9.5s-34.833 -14.5 -49.5 -24.5c-10 -7.33301 -18.167 -15.5 -24.5 -24.5s-9.5 -18.5 -9.5 -28.5c-10.667 2.66699 -18.667 7.16699 -24 13.5s-8 12.5 -8 18.5c0 17.333 11.667 33 35 47c15.333 10 35.333 18.167 60 24.5
s53.334 9.5 86.001 9.5z" />
    <glyph glyph-name="four" unicode="4" horiz-adv-x="353" 
d="M172 194c-53.333 0 -103.005 -10.335 -149.005 -31.002c-3.33301 3.33301 -6.33301 8 -9 14s-4 12.667 -4 20c0 4 0.333008 6.33301 1 7c28.667 12 55.334 28.667 80.001 50s47.334 44.666 68.001 69.999c22.667 26.667 42.667 54.5 60 83.5s32.333 55.833 45 80.5
c-8 -38 -18.167 -72.667 -30.5 -104s-27.5 -59.666 -45.5 -84.999c-12.667 -17.333 -26.667 -33.333 -42 -48s-32.666 -28 -51.999 -40c10 0 20 0.166992 30 0.5s20 0.5 30 0.5c46 0 85.667 -3.33301 119 -10c6.66699 28 15.167 56.667 25.5 86s20.166 59.333 29.499 90
s17.5 59.334 24.5 86.001s10.5 54.334 10.5 83.001c11.333 -6.66699 19 -16.167 23 -28.5s6 -26.833 6 -43.5c0 -19.333 -2.33301 -40.666 -7 -63.999s-10.167 -47.5 -16.5 -72.5s-13.166 -50 -20.499 -75s-13.666 -48.5 -18.999 -70.5c17.333 -2 33.5 -5.33301 48.5 -10
s31.5 -7 49.5 -7c7.33301 0 13.333 4 18 12c0.666992 -2.66699 1.16699 -4.83398 1.5 -6.50098s0.5 -3.16699 0.5 -4.5c-1.33301 -11.333 -14.666 -17 -39.999 -17c-12 0 -25.833 1.83301 -41.5 5.5s-29.5 6.16699 -41.5 7.5l-11.5 -47l-14 -57l-14.5 -60
c-4.66699 -20 -8.66699 -39 -12 -57c-4.66699 0 -11.5 0.666992 -20.5 2s-14.5 4.33301 -16.5 9c0 34 3.16699 69.333 9.5 106s14.166 74 23.499 112c-13.333 3.33301 -28.166 6.33301 -44.499 9s-33.5 4 -51.5 4z" />
    <glyph glyph-name="five" unicode="5" horiz-adv-x="403" 
d="M181 -11c-15.333 0 -33.335 0.662109 -54.002 1.99512s-40.334 4.5 -59.001 9.5s-34.5 12.5 -47.5 22.5s-19.5 23.667 -19.5 41c0 10.667 3 21.5 9 32.5s14 21.5 24 31.5s21.5 19.167 34.5 27.5s26.5 14.833 40.5 19.5c-12.667 -12 -22.834 -22 -30.501 -30
s-13.667 -15 -18 -21s-7.16602 -11.5 -8.49902 -16.5s-2 -10.167 -2 -15.5c0 -11.333 3.16699 -20.333 9.5 -27s14.333 -12 24 -16s20 -6.66699 31 -8s21.167 -2 30.5 -2c20.667 0 43.167 1.83301 67.5 5.5s46.5 11.5 66.5 23.5c18 11.333 32.833 26.666 44.5 45.999
s17.5 45 17.5 77c0 54.667 -43.333 82 -130 82c-28 0 -53.833 -8.33301 -77.5 -25s-44.167 -35 -61.5 -55c-12.667 13.333 -21.334 28.333 -26.001 45c8.66699 12 16 28.833 22 50.5s11 44.167 15 67.5c2.66699 19.333 4.66699 37.833 6 55.5s2 33.5 2 47.5v16
c0 4.66699 -0.333008 9.33398 -1 14.001c5.33301 6 14 12.333 26 19c10 -2.66699 23.333 -5.83398 40 -9.50098s33 -5.5 49 -5.5c14.667 0 28.167 0.666992 40.5 2l36.5 4l37 4c12.667 1.33301 26.334 2 41.001 2c0.666992 0 4.83398 -0.666992 12.501 -2
s15.834 -3.66602 24.501 -6.99902s16.667 -8 24 -14s11 -13.667 11 -23c0 -4.66699 -0.833008 -9.66699 -2.5 -15s-6.16699 -11.333 -13.5 -18c-1.33301 4.66699 -3.16602 8.83398 -5.49902 12.501s-6.33301 6.83398 -12 9.50098s-14.167 4.5 -25.5 5.5
s-26.666 1.5 -45.999 1.5c-7.33301 0 -14.5 -0.666992 -21.5 -2s-14.5 -2.66602 -22.5 -3.99902s-16.833 -2.66602 -26.5 -3.99902s-20.5 -2 -32.5 -2c-14 0 -29.5 1.16699 -46.5 3.5l-56.5 7.5c0 -18 -0.5 -34.833 -1.5 -50.5s-2.83301 -32.5 -5.5 -50.5
c-2.66699 -30.667 -7.66699 -60 -15 -88c26.667 22.667 64 34 112 34c60 0 105.167 -12.833 135.5 -38.5s45.5 -58.5 45.5 -98.5c0 -28 -7.83301 -53 -23.5 -75s-35.167 -40.667 -58.5 -56c-20.667 -13.333 -42.334 -23.666 -65.001 -30.999s-44 -11 -64 -11z" />
    <glyph glyph-name="six" unicode="6" horiz-adv-x="404" 
d="M245 302c50.667 0 88.834 -10.8291 114.501 -32.4961s38.5 -51.5 38.5 -89.5c0 -28 -7.5 -54.167 -22.5 -78.5s-35.167 -45.833 -60.5 -64.5c-21.333 -16 -45.166 -28.5 -71.499 -37.5s-53.833 -13.5 -82.5 -13.5c-23.333 0 -43.833 3.16699 -61.5 9.5s-32.5 15 -44.5 26
s-21 23.833 -27 38.5s-9 30.334 -9 47.001v12c0 4 0.666992 8 2 12c6 38 18.5 75.833 37.5 113.5s42.833 74.5 71.5 110.5c17.333 21.333 36.166 41.666 56.499 60.999s41.166 36.666 62.499 51.999s43 28.166 65 38.499s43.333 17.166 64 20.499
c-16 -10.667 -33 -23.334 -51 -38.001s-36 -30.5 -54 -47.5s-35.667 -34.667 -53 -53s-33.333 -36.833 -48 -55.5l-33 -44c-10 -14 -18.333 -28 -25 -42c15.333 16 33.5 29.167 54.5 39.5s46.5 15.5 76.5 15.5zM277 280.004c-19.333 0 -38.165 -3.83301 -56.498 -11.5
s-35 -17 -50 -28s-27 -22.333 -36 -34s-13.5 -21.5 -13.5 -29.5c0 -17.333 11.667 -26 35 -26c-10.667 -6.66699 -20.334 -10 -29.001 -10c-19.333 0 -32.333 9 -39 27c-7.33301 -9.33301 -12.5 -20 -15.5 -32s-4.5 -24 -4.5 -36c0 -24 6.16699 -45.333 18.5 -64
s31.833 -28 58.5 -28c22.667 0 46.167 6.33301 70.5 19s46.833 27.667 67.5 45c18.667 16 34.5 33 47.5 51s20.833 34 23.5 48c0.666992 4 1 8 1 12v11c0 22.667 -5.83301 42.667 -17.5 60s-31.834 26 -60.501 26z" />
    <glyph glyph-name="seven" unicode="7" horiz-adv-x="271" 
d="M112 -48c-10.667 0 -19.3359 2.66602 -26.0029 7.99902s-12 12.166 -16 20.499s-6.83301 17.5 -8.5 27.5s-2.5 20 -2.5 30c0 38 8.5 76.167 25.5 114.5s36.167 74.5 57.5 108.5c28 44 59.333 84.833 94 122.5s68.334 71.834 101.001 102.501
c-25.333 -3.33301 -53 -6.16602 -83 -8.49902s-60.333 -3.5 -91 -3.5c-9.33301 0 -19.333 0.333008 -30 1s-20.5 2.5 -29.5 5.5s-16.5 7.33301 -22.5 13s-9 13.834 -9 24.501c0 4 0.333008 6.33301 1 7c4.66699 -3.33301 13 -6.83301 25 -10.5s32.333 -5.5 61 -5.5
c14.667 0 39 0.333008 73 1s80.333 1.66699 139 3c12.667 -8.66699 21 -19.334 25 -32.001c-83.333 -68.667 -156 -150 -218 -244c-14.667 -23.333 -28 -47 -40 -71s-22.167 -46.167 -30.5 -66.5s-14.666 -38 -18.999 -53s-6.5 -24.833 -6.5 -29.5
c0 -15.333 2.83301 -29.5 8.5 -42.5s17.167 -19.5 34.5 -19.5c-5.33301 -2 -9.66602 -3 -12.999 -3z" />
    <glyph glyph-name="eight" unicode="8" horiz-adv-x="268" 
d="M302 471c16 0 28.8311 -4.49707 38.498 -13.4971s14.5 -19.5 14.5 -31.5c0 -16 -6 -33.833 -18 -53.5s-26.667 -39.5 -44 -59.5c-10 -12 -20.667 -23.833 -32 -35.5l-33 -32.5c-10.667 -10 -20.834 -19 -30.501 -27l-23.5 -19c6 -8 12.5 -16 19.5 -24
s13.667 -16.5 20 -25.5s11.5 -18.833 15.5 -29.5s6 -22.334 6 -35.001c0 -24 -4.16699 -42.667 -12.5 -56s-18.833 -23.166 -31.5 -29.499s-26.667 -10.166 -42 -11.499s-30 -2 -44 -2s-27.333 1.16699 -40 3.5s-23.834 5.33301 -33.501 9s-17.5 8.16699 -23.5 13.5
s-9 11 -9 17c0 13.333 4.5 27.833 13.5 43.5s19.833 31.5 32.5 47.5c16.667 19.333 32.834 36.5 48.501 51.5s27.167 25.167 34.5 30.5c-13.333 14 -24.666 33.5 -33.999 58.5s-14 50.167 -14 75.5c0 22 4.83301 43.667 14.5 65s23.167 40.333 40.5 57
c15.333 15.333 33.833 27.666 55.5 36.999s45.5 14 71.5 14c8 0 17.167 -1.5 27.5 -4.5s15.5 -6.83301 15.5 -11.5c-25.333 0 -50.666 -5.16699 -75.999 -15.5s-47.666 -25.5 -66.999 -45.5c-15.333 -15.333 -27.333 -33 -36 -53s-13 -42.667 -13 -68
c0 -16 3.16699 -31.833 9.5 -47.5s15.166 -27.834 26.499 -36.501c16 10.667 34.667 25.667 56 45s41 39.666 59 60.999c13.333 15.333 24.5 30.666 33.5 45.999s13.5 29 13.5 41c0 10.667 -6.16699 18.5 -18.5 23.5s-25.166 7.5 -38.499 7.5
c-5.33301 0 -11.333 -0.666992 -18 -2c10 7.33301 21 12.833 33 16.5s23 5.5 33 5.5zM78.998 6.00293c8.66699 0 19.501 0.666016 32.501 1.99902s25.167 4.33301 36.5 9s21.166 11.5 29.499 20.5s12.5 21.167 12.5 36.5c0 18.667 -4.5 37.167 -13.5 55.5
s-18.5 33.5 -28.5 45.5c-10.667 -10 -21.667 -21.667 -33 -35s-22 -27.333 -32 -42c-10 -14 -18 -27.167 -24 -39.5s-9 -23.166 -9 -32.499c0 -6 2 -10.833 6 -14.5s11.667 -5.5 23 -5.5z" />
    <glyph glyph-name="nine" unicode="9" horiz-adv-x="272" 
d="M288 513c28 0 45.668 -7.99902 53.001 -23.999c3.33301 0 9.5 -1.33301 18.5 -4s15.167 -4.66699 18.5 -6c-12.667 -22 -23.834 -42.5 -33.501 -61.5l-27.5 -56.5c-8.66699 -18.667 -16.834 -37.334 -24.501 -56.001l-24.5 -59c-17.333 -44 -31.333 -91.167 -42 -141.5
s-18.334 -98.833 -23.001 -145.5c-12.667 26 -19 56 -19 90c0 40.667 5.5 82.5 16.5 125.5s26.167 82.5 45.5 118.5l-33 -29.5c-12 -10.333 -24.667 -20.166 -38 -29.499s-27.166 -17 -41.499 -23s-28.833 -9 -43.5 -9c-20.667 0 -36.5 5.83301 -47.5 17.5
s-16.5 25.5 -16.5 41.5c0 19.333 3.33301 38.166 10 56.499s15.167 35.5 25.5 51.5s21.833 30.5 34.5 43.5s24.667 23.833 36 32.5c28.667 23.333 57.334 40.5 86.001 51.5s52 16.5 70 16.5zM301.001 497.001c-18 0 -40.501 -7.16797 -67.501 -21.501
s-53.833 -33.833 -80.5 -58.5c-10.667 -10.667 -21.667 -22.667 -33 -36s-21.833 -27.833 -31.5 -43.5s-17.667 -31.667 -24 -48s-9.5 -32.833 -9.5 -49.5c0 -5.33301 0.666992 -10.666 2 -15.999s3.66602 -8 6.99902 -8c16.667 0 32.834 3.83301 48.501 11.5
s30.667 17.5 45 29.5s28.333 25 42 39l38.5 41c14.667 16 30.334 37.5 47.001 64.5s31.667 52.833 45 77.5c0 6 -3.16699 10.5 -9.5 13.5s-12.833 4.5 -19.5 4.5z" />
    <glyph glyph-name="colon" unicode=":" horiz-adv-x="115" 
d="M92 369c12.667 0 22.1689 -3.83301 28.502 -11.5s9.5 -16.5 9.5 -26.5c0 -8 -1.33301 -16.5 -4 -25.5s-6.33398 -17.5 -11.001 -25.5c-6 -12 -12.167 -23.667 -18.5 -35s-10.833 -23 -13.5 -35c-8.66699 3.33301 -14.5 9.33301 -17.5 18s-4.5 19 -4.5 31
c0 10 1.16699 20 3.5 30s5.16602 19.667 8.49902 29l11.5 29.5c3.66699 9 6.16699 16.167 7.5 21.5zM41.002 120c12.667 0 22.332 -4.32812 28.999 -12.9951s10 -17.667 10 -27c0 -8.66699 -1.5 -16.834 -4.5 -24.501s-6.5 -15.834 -10.5 -24.501l-18.5 -32.5
c-6.33301 -11 -11.166 -22.5 -14.499 -34.5c-14.667 6.66699 -22 22 -22 46c0 11.333 1.33301 22.166 4 32.499s5.66699 20.166 9 29.499c4.66699 10 8.66699 19.167 12 27.5s5.33301 15.166 6 20.499z" />
    <glyph glyph-name="semicolon" unicode=";" horiz-adv-x="114" 
d="M48 100c19.333 0 28.999 -11.998 28.999 -35.998c0 -16 -1.66699 -30.333 -5 -43s-7.33301 -24.334 -12 -35.001c-6.66699 -13.333 -14.167 -24.5 -22.5 -33.5s-16.5 -16.333 -24.5 -22s-15.333 -9.83398 -22 -12.501s-11.334 -4 -14.001 -4
c4.66699 6 10.834 17.5 18.501 34.5s14.834 36.5 21.501 58.5c4 14 7.5 28.5 10.5 43.5s4.5 29.833 4.5 44.5c6.66699 3.33301 12 5 16 5zM91.999 369.002c12.667 0 22.1689 -3.83301 28.502 -11.5s9.5 -16.5 9.5 -26.5c0 -8 -1.33301 -16.5 -4 -25.5
s-6.33398 -17.5 -11.001 -25.5c-6 -12 -12.167 -23.667 -18.5 -35s-10.833 -23 -13.5 -35c-8.66699 3.33301 -14.5 9.33301 -17.5 18s-4.5 19 -4.5 31c0 10 1.16699 20 3.5 30s5.16602 19.667 8.49902 29l11.5 29.5c3.66699 9 6.16699 16.167 7.5 21.5z" />
    <glyph glyph-name="less" unicode="&#x3c;" horiz-adv-x="342" 
d="M318 351c-3.33301 -13.333 -10.665 -25.002 -21.998 -35.002s-24.5 -19 -39.5 -27s-31.167 -15.5 -48.5 -22.5s-33.5 -13.833 -48.5 -20.5s-28.167 -13.667 -39.5 -21s-18.666 -15.333 -21.999 -24c14.667 -16.667 35 -33.667 61 -51s62 -35 108 -53
c-28 2.66699 -55.5 8.33398 -82.5 17.001s-50.833 19.334 -71.5 32.001s-37.334 26.667 -50.001 42s-19 31 -19 47c4 6.66699 12.167 13.5 24.5 20.5s27.166 13.833 44.499 20.5s36 13.167 56 19.5l58 19l52.5 18.5c16.333 6 29.166 12 38.499 18z" />
    <glyph glyph-name="equal" unicode="=" horiz-adv-x="353" 
d="M202 206c28 0 55 -0.332031 81 -0.999023s43.667 -3 53 -7c-36 -10.667 -73 -18.834 -111 -24.501s-75 -8.5 -111 -8.5c-19.333 0 -36.5 1.83301 -51.5 5.5s-24.833 11.167 -29.5 22.5c34.667 0 65.5 2.16699 92.5 6.5s52.5 6.5 76.5 6.5zM221 296.001
l40.501 0.000976562c14.333 0 27.666 -0.333008 39.999 -1s23.333 -1.5 33 -2.5s16.5 -2.5 20.5 -4.5c-36 -10.667 -73 -18.834 -111 -24.501s-75 -8.5 -111 -8.5c-20 0 -37.5 1.83301 -52.5 5.5s-24.833 11.167 -29.5 22.5c34.667 0 65.667 2.16699 93 6.5s53 6.5 77 6.5z
" />
    <glyph glyph-name="greater" unicode="&#x3e;" horiz-adv-x="342" 
d="M44 97c3.33301 13.333 10.665 25 21.998 35s24.5 19 39.5 27s31.167 15.5 48.5 22.5s33.5 13.833 48.5 20.5s28.167 13.667 39.5 21s18.666 15.333 21.999 24c-14.667 16.667 -35 33.667 -61 51s-62 35 -108 53c28 -2.66699 55.5 -8.33398 82.5 -17.001
s50.833 -19.334 71.5 -32.001s37.334 -26.667 50.001 -42s19 -31 19 -47c-4 -6.66699 -12.167 -13.5 -24.5 -20.5s-27.166 -13.833 -44.499 -20.5s-36 -13.167 -56 -19.5l-58 -19c-18.667 -6.33301 -36.167 -12.666 -52.5 -18.999s-29.166 -12.166 -38.499 -17.499z" />
    <glyph glyph-name="question" unicode="?" horiz-adv-x="286" 
d="M234 509c18.667 0 35.998 -2.66895 51.998 -8.00195s29.833 -12.666 41.5 -21.999s20.834 -20.333 27.501 -33s10 -26 10 -40c0 -22.667 -8.5 -44.667 -25.5 -66s-37.167 -41.5 -60.5 -60.5s-47.333 -36.833 -72 -53.5s-44.667 -31.667 -60 -45
c18.667 2 37.834 6.33301 57.501 13s37.167 15.334 52.5 26.001c-0.666992 -4.66699 -3.5 -10.834 -8.5 -18.501s-12 -15.167 -21 -22.5s-19.5 -14.166 -31.5 -20.499s-25 -10.5 -39 -12.5c-4 0.666992 -8.83301 2.33398 -14.5 5.00098s-11.5 5.66699 -17.5 9
s-11.333 6.66602 -16 9.99902s-7.66699 5.66602 -9 6.99902c5.33301 12.667 15 24.834 29 36.501s29.833 22.834 47.5 33.501l56 32.5c19.667 11 37.5 22.167 53.5 33.5s29.167 23.166 39.5 35.499s15.5 25.833 15.5 40.5c0 12 -3 22.667 -9 32s-13.833 17.166 -23.5 23.499
s-20.667 11 -33 14s-25.166 4.5 -38.499 4.5c-11.333 0 -26.5 -1.16699 -45.5 -3.5s-38.667 -6.83301 -59 -13.5s-40 -15.5 -59 -26.5s-34.5 -25.167 -46.5 -42.5c2.66699 18.667 10.5 36.167 23.5 52.5s29.167 30.333 48.5 42s40.666 20.834 63.999 27.501s47 10 71 10z
M144.998 119.998c12.667 0 22.333 -4.33398 29 -13.001s10 -17.667 10 -27c0 -10 -2.16699 -19.833 -6.5 -29.5s-9.16602 -19.167 -14.499 -28.5l-16 -28.5c-5.33301 -9.66699 -9 -19.5 -11 -29.5c-15.333 7.33301 -23 22.666 -23 45.999c0 12 1.5 23.5 4.5 34.5
s6.33301 21.333 10 31s7.16699 18.334 10.5 26.001s5.66602 13.834 6.99902 18.501z" />
    <glyph glyph-name="at" unicode="@" horiz-adv-x="497" 
d="M416 508c22 0 41.1611 -3.50391 57.4941 -10.5039s29.833 -16 40.5 -27s18.5 -23.667 23.5 -38s7.5 -28.833 7.5 -43.5c0 -16.667 -2.33301 -34 -7 -52s-10.5 -35.833 -17.5 -53.5s-15 -34.667 -24 -51s-17.833 -31.166 -26.5 -44.499c-16 -22.667 -33 -41 -51 -55
s-35.667 -21 -53 -21c-9.33301 0 -18 2.33301 -26 7s-15 10.667 -21 18s-11 15.166 -15 23.499s-6.66699 16.166 -8 23.499c-2.66699 -3.33301 -6.66699 -7.66602 -12 -12.999s-11.166 -10.5 -17.499 -15.5s-13.166 -9.33301 -20.499 -13s-14.666 -5.5 -21.999 -5.5
c-6.66699 0 -12.667 1.66699 -18 5s-10 7.5 -14 12.5s-7 10.333 -9 16s-3 10.834 -3 15.501c0 16.667 5.16699 34.5 15.5 53.5s22.5 36.5 36.5 52.5s28.333 29.167 43 39.5s26.667 15.5 36 15.5c16.667 0 28.334 -5.33301 35.001 -16c3.33301 4.66699 6 9.33398 8 14.001
c12.667 -1.33301 21.667 -3.33301 27 -6l-24.5 -58.5c-10.333 -24.333 -18.833 -50.5 -25.5 -78.5c-1.33301 -3.33301 -2.16602 -7.5 -2.49902 -12.5s-0.5 -9.83301 -0.5 -14.5c0 -7.33301 3.5 -15.333 10.5 -24s12.833 -13 17.5 -13c13.333 0 27.333 7.33301 42 22
s29 32.334 43 53.001c9.33301 16 18.333 32.667 27 50s16.167 33.833 22.5 49.5s11.5 30.167 15.5 43.5s6 24 6 32c0 12 -2 23.833 -6 35.5s-10.167 22 -18.5 31s-19 16.167 -32 21.5s-28.5 8 -46.5 8c-42 0 -80.833 -8.5 -116.5 -25.5s-67.834 -39.5 -96.501 -67.5
c-19.333 -17.333 -36.5 -36 -51.5 -56s-27.667 -39.833 -38 -59.5s-18.166 -38.667 -23.499 -57s-8 -34.5 -8 -48.5c0 -23.333 4.5 -44.666 13.5 -63.999s21.167 -35.833 36.5 -49.5s33.5 -24.334 54.5 -32.001s43.5 -11.5 67.5 -11.5c34 0 65.333 5.5 94 16.5
s56 24.167 82 39.5c-8.66699 -12 -20 -22.833 -34 -32.5s-29.833 -18 -47.5 -25s-36.5 -12.5 -56.5 -16.5s-40.333 -6 -61 -6c-25.333 0 -49.666 4.66699 -72.999 14s-44 22 -62 38s-32.5 34.833 -43.5 56.5s-16.5 45.167 -16.5 70.5c0 51.333 13.333 97.833 40 139.5
s60 78.5 100 110.5c38 28.667 78.667 50.834 122 66.501s85 23.5 125 23.5zM210.994 160.996c8 0 16.501 2.33105 25.501 6.99805s17.5 10.334 25.5 17.001s15.167 13.334 21.5 20.001s10.833 11.667 13.5 15c2.66699 7.33301 6 15.833 10 25.5s8.16699 19.167 12.5 28.5
l12.5 26c4 8 7 13.667 9 17c-1.33301 6.66699 -3.83301 11.334 -7.5 14.001s-6.83398 4 -9.50098 4c-11.333 -6 -23.833 -16 -37.5 -30s-26.5 -29.167 -38.5 -45.5s-22 -32.833 -30 -49.5s-12 -30.334 -12 -41.001c0 -5.33301 1.66699 -8 5 -8z" />
    <glyph glyph-name="A" unicode="A" horiz-adv-x="373" 
d="M265 175c-11.333 -4 -25.3359 -7.99609 -42.0029 -11.9961s-33.667 -6 -51 -6c-22.667 0 -41.667 3.33301 -57 10c-10 -32.667 -18 -62 -24 -88s-9 -48 -9 -66c0 -12.667 2 -22.334 6 -29.001c-15.333 0 -28.166 3.33301 -38.499 10s-15.5 17.667 -15.5 33
c0 22.667 5 48 15 76l34 93c4 12 9.33301 26.167 16 42.5s14.334 33.666 23.001 51.999l28 57c10 19.667 20.667 38.5 32 56.5c19.333 30 40.166 55.333 62.499 76s45.833 31 70.5 31c16.667 0 28 -4.83301 34 -14.5s9 -21.5 9 -35.5c0 -11.333 -1.66699 -26 -5 -44
l-11.5 -59.5c-4.33301 -21.667 -8.66602 -44.5 -12.999 -68.5s-7.5 -48 -9.5 -72c14 1.33301 29.333 2.16602 46 2.49902s30.334 0.5 41.001 0.5h11c-13.333 -6.66699 -27.5 -12 -42.5 -16s-35.167 -10.333 -60.5 -19c-0.666992 -11.333 -1.16699 -22.5 -1.5 -33.5
s-0.5 -21.833 -0.5 -32.5c0 -38 3.16699 -68.667 9.5 -92s17.166 -35 32.499 -35c5.33301 0 10.833 2.16699 16.5 6.5s9.83398 9.83301 12.501 16.5c2 -1.33301 3 -4.33301 3 -9s-2.5 -10.834 -7.5 -18.501s-15.167 -11.5 -30.5 -11.5c-18 0 -32.5 4.16699 -43.5 12.5
s-19.667 19.333 -26 33s-10.5 29.5 -12.5 47.5s-3 36.667 -3 56c0 8.66699 0.166992 17 0.5 25s0.833008 16.333 1.5 25zM266.997 211.004c0 20 3.16699 44.502 9.5 73.502s13.333 57.333 21 85l21 73.5c6.33301 21.333 9.5 34 9.5 38c0 9.33301 -3 14 -9 14
c-18.667 0 -37.167 -9.83301 -55.5 -29.5s-35.833 -44.5 -52.5 -74.5c-10 -18 -19.5 -36.333 -28.5 -55s-17.333 -36.834 -25 -54.501s-14.5 -34.334 -20.5 -50.001l-15 -39.5c17.333 0 38.333 1 63 3s52 7.33301 82 16z" />
    <glyph glyph-name="B" unicode="B" horiz-adv-x="416" 
d="M30 -5c5.33301 32.667 10.6738 62.166 16.0068 88.499s10.666 49.833 15.999 70.5c8 29.333 16.833 59.833 26.5 91.5s19.5 62.334 29.5 92.001s20.167 57.667 30.5 84s20.166 49.166 29.499 68.499c-6 0 -14 -0.666992 -24 -2s-20.5 -2.83301 -31.5 -4.5
s-22 -3.66699 -33 -6s-20.5 -4.5 -28.5 -6.5c4.66699 6 12.167 11.333 22.5 16s21.666 8.83398 33.999 12.501s24.666 6.5 36.999 8.5s23.5 3 33.5 3c2.66699 0 4.66699 2.66699 6 8s2.33301 8 3 8c0 -2.66699 0.166992 -5.83398 0.5 -9.50098s0.833008 -5.5 1.5 -5.5
c25.333 0 50.666 -2.5 75.999 -7.5s48.166 -12 68.499 -21s36.833 -20 49.5 -33s19 -27.5 19 -43.5c0 -19.333 -7.5 -35.833 -22.5 -49.5s-34.167 -24.834 -57.5 -33.501c-15.333 -6 -31.333 -11.167 -48 -15.5s-32.667 -8 -48 -11s-29.666 -5.66699 -42.999 -8
s-24.333 -4.5 -33 -6.5c13.333 -0.666992 29.166 -2.16699 47.499 -4.5s37 -5.66602 56 -9.99902s37.833 -10 56.5 -17s35.5 -15.333 50.5 -25s27 -21 36 -34s13.5 -27.833 13.5 -44.5c0 -19.333 -8.83301 -36.666 -26.5 -51.999s-40.5 -29 -68.5 -41
c-22.667 -10 -47.5 -18.833 -74.5 -26.5s-53.833 -14 -80.5 -19s-52.334 -8.66699 -77.001 -11s-45.667 -3.5 -63 -3.5zM78.0078 41.999c96.667 11.333 169.672 28.667 219.005 52c44 21.333 66 46.666 66 75.999c0 12.667 -7.33301 24.167 -22 34.5
s-33.334 19.5 -56.001 27.5s-47.834 14.833 -75.501 20.5s-54.834 9.83398 -81.501 12.501c-0.666992 0 -2.33398 -4.5 -5.00098 -13.5s-5.66699 -20.5 -9 -34.5l-11 -46.5c-4 -17 -7.66699 -33.833 -11 -50.5l-9 -46c-2.66699 -14 -4.33398 -24.667 -5.00098 -32z
M141.013 311c8.66699 0.666992 19.834 2.16602 33.501 4.49902s28 5.33301 43 9s30.5 8 46.5 13s31 10.833 45 17.5c15.333 8.66699 28.166 18.167 38.499 28.5s15.5 21.833 15.5 34.5c0 8.66699 -5 17.167 -15 25.5s-22.833 16 -38.5 23s-33 12.667 -52 17
s-37.5 6.83301 -55.5 7.5c-2 -1.33301 -5.33301 -8.66602 -10 -21.999l-16 -47.5l-18.5 -58z" />
    <glyph glyph-name="C" unicode="C" horiz-adv-x="497" 
d="M403 511c10.667 0 20.8291 -2.66797 30.4961 -8.00098s18.334 -12.333 26.001 -21s13.834 -18.5 18.501 -29.5s7 -22.167 7 -33.5c0 -13.333 -1.66699 -22.333 -5 -27c-2.66699 7.33301 -6 15.333 -10 24s-8.66699 16.667 -14 24s-11.666 13.5 -18.999 18.5
s-15.666 7.5 -24.999 7.5c-30 0 -61.167 -7.16699 -93.5 -21.5s-62.5 -33.166 -90.5 -56.499c-34 -30 -62.167 -63.833 -84.5 -101.5s-33.5 -76.834 -33.5 -117.501c0 -19.333 3.5 -36.666 10.5 -51.999s16.167 -29 27.5 -41c28 -29.333 60.333 -44 97 -44
c32 0 61.833 6 89.5 18s54.167 26.667 79.5 44c23.333 17.333 45 35.5 65 54.5s37 36.833 51 53.5c1.33301 -1.33301 2 -5 2 -11c0 -5.33301 -0.333008 -8.33301 -1 -9c-12 -19.333 -27.167 -38.5 -45.5 -57.5s-38.833 -36.5 -61.5 -52.5
c-33.333 -25.333 -68.5 -45.833 -105.5 -61.5s-69.5 -23.5 -97.5 -23.5c-21.333 0 -41 4.33301 -59 13s-33.667 20.667 -47 36c-32.667 34 -49 79.333 -49 136c0 44 10.833 88.167 32.5 132.5s51.5 83.5 89.5 117.5c30 28 63.167 49.833 99.5 65.5s74.833 23.5 115.5 23.5z
" />
    <glyph glyph-name="D" unicode="D" horiz-adv-x="442" 
d="M41 15c0 4 0.330078 7.66309 0.99707 10.9961s1 7.33301 1 12c4.66699 24.667 12.167 55.167 22.5 91.5l34.5 116l39.5 125.5l37.5 121c-3.33301 0.666992 -7.66602 1.16699 -12.999 1.5s-12 0.5 -20 0.5c-12 0 -22.833 -1.16699 -32.5 -3.5
s-20.167 -5.83301 -31.5 -10.5c8.66699 11.333 20.667 19 36 23s30.666 6 45.999 6c40.667 0 79.5 -6.33301 116.5 -19s69.833 -29.167 98.5 -49.5s51.5 -43.666 68.5 -69.999s25.5 -53.166 25.5 -80.499c0 -18 -4.83301 -37.167 -14.5 -57.5s-22.667 -40.5 -39 -60.5
s-35.166 -39.5 -56.499 -58.5s-43.666 -36.5 -66.999 -52.5c-32 -21.333 -63.667 -38.833 -95 -52.5s-58.333 -20.5 -81 -20.5c-8 0 -14.667 0.833008 -20 2.5s-10.333 3.5 -15 5.5l-1 -10c-1.33301 -8 -3.66602 -16.5 -6.99902 -25.5s-6.33301 -15.167 -9 -18.5
c-10 6.66699 -16.833 15.334 -20.5 26.001s-5.5 21.334 -5.5 32.001v8c0 2.66699 0.333008 5 1 7zM212.997 484.996c-51.333 -153.333 -92.333 -302.335 -123 -447.002c8 2 18.333 4.83301 31 8.5s26.667 8.16699 42 13.5s31.666 11.333 48.999 18
s34.666 14.334 51.999 23.001c22.667 10.667 44.834 22.667 66.501 36s40.834 28 57.501 44s30.167 33.667 40.5 53s15.5 40 15.5 62c0 22.667 -7.5 45.334 -22.5 68.001s-33.833 43 -56.5 61s-47.667 32.5 -75 43.5s-53 16.5 -77 16.5z" />
    <glyph glyph-name="E" unicode="E" horiz-adv-x="432" 
d="M314 509c50.667 0 87.5 -6.83398 110.5 -20.501s34.5 -29.5 34.5 -47.5c0 -8 -3.16699 -15.833 -9.5 -23.5s-18.833 -14.834 -37.5 -21.501c2.66699 2.66699 4 5 4 7v7c0 10.667 -2.66699 20.667 -8 30s-12.5 17.5 -21.5 24.5s-19 12.5 -30 16.5s-22.5 6 -34.5 6
s-26.833 -1.33301 -44.5 -4s-34.167 -7.33398 -49.5 -14.001c-14 -5.33301 -25.667 -12.333 -35 -21s-14 -19 -14 -31c0 -11.333 4.66699 -22.333 14 -33s21.666 -20.667 36.999 -30c12 -8 25.333 -15.333 40 -22s29.834 -12.167 45.501 -16.5s31.167 -7.83301 46.5 -10.5
s29 -4 41 -4c14.667 0 27.667 3 39 9c-11.333 -35.333 -38 -53 -80 -53c-10.667 0 -23.667 1.83301 -39 5.5s-27.666 7.5 -36.999 11.5c-19.333 -4 -42.833 -12.667 -70.5 -26s-53.167 -29.666 -76.5 -48.999c-14.667 -12.667 -26.834 -26.167 -36.501 -40.5
s-14.5 -29.5 -14.5 -45.5c0 -12.667 5.33301 -23.834 16 -33.501s24 -17.667 40 -24s33.5 -11.166 52.5 -14.499s37.167 -5 54.5 -5c46 0 80.167 6.66699 102.5 20s33.5 39 33.5 77c0 12.667 -2.66699 23.667 -8 33c14 -6 24.5 -13.667 31.5 -23s10.5 -22.666 10.5 -39.999
c0 -10.667 -2.83301 -22.5 -8.5 -35.5s-15.5 -25.333 -29.5 -37s-32.833 -21.334 -56.5 -29.001s-53.834 -11.5 -90.501 -11.5c-14.667 0 -33 0.833008 -55 2.5s-43.333 5.5 -64 11.5s-38.334 14.667 -53.001 26s-22 26.666 -22 45.999c0 32.667 6.5 60.334 19.5 83.001
s29.833 42 50.5 58c22.667 18 47.334 32.333 74.001 43s51 19.334 73 26.001c-12 4.66699 -24.5 9.83398 -37.5 15.501s-24.833 12.5 -35.5 20.5c-14.667 10 -26.667 21.167 -36 33.5s-14 26.5 -14 42.5c0 25.333 7.66699 45.5 23 60.5s33.333 26.167 54 33.5
c18.667 7.33301 37.334 12 56.001 14s33.667 3 45 3z" />
    <glyph glyph-name="F" unicode="F" horiz-adv-x="419" 
d="M233 497c5.33301 8 10.1592 17.6699 14.4922 29.0029s6.83301 18.666 7.5 21.999c8.66699 0 14.5 -2.33301 17.5 -7s4.5 -10.334 4.5 -17.001v-10c0 -3.33301 -0.333008 -6.33301 -1 -9v-4c52 3.33301 91.333 5.66602 118 6.99902s42.667 2 48 2
c7.33301 0 19 -0.166992 35 -0.5s32 -1.16602 48 -2.49902s30.167 -3.33301 42.5 -6s18.5 -6.33398 18.5 -11.001c-1.33301 -5.33301 -6.66602 -8.33301 -15.999 -9l2.5 2.5c1 1 1.5 2.16699 1.5 3.5l-10 2c-1.33301 0 -6.16602 -0.5 -14.499 -1.5s-19.833 -1.5 -34.5 -1.5
c-3.33301 0 -11.166 -0.5 -23.499 -1.5s-27.166 -2.5 -44.499 -4.5l-56 -6.5l-57.5 -7c-18.333 -2.33301 -34.666 -4.5 -48.999 -6.5s-24.5 -3.66699 -30.5 -5c-10.667 -25.333 -20.334 -49.833 -29.001 -73.5l-25 -69.5l214.5 28.5c49 6.33301 78.5 9.83301 88.5 10.5
c-28 -10.667 -54.667 -20.167 -80 -28.5s-50 -15.5 -74 -21.5c-22 -6 -46.5 -11.5 -73.5 -16.5s-57.5 -8.83301 -91.5 -11.5c-12.667 -42 -24 -85 -34 -129s-15 -89.333 -15 -136c0 -14.667 2 -22 6 -22c8 8 16.333 19 25 33s17.167 29 25.5 45s16 32.167 23 48.5
s12.5 30.833 16.5 43.5c-2 -18.667 -5.66699 -38.334 -11 -59.001s-12 -40.167 -20 -58.5s-17.167 -34.166 -27.5 -47.499s-21.5 -22.333 -33.5 -27c-6 2 -11.5 4.33301 -16.5 7s-9.33301 6.5 -13 11.5s-6.5 11.833 -8.5 20.5s-3 20.334 -3 35.001
c0 10 0.833008 24.333 2.5 43s4.33398 38.834 8.00098 60.501s7.83398 43.5 12.501 65.5s10 41.667 16 59c-28 -2.66699 -51.167 -4.66699 -69.5 -6s-31.833 -2 -40.5 -2c-8.66699 8.66699 -13 19 -13 31c0 10.667 2.33301 19.334 7 26.001c8.66699 -4 20 -6 34 -6
c9.33301 0 18 1 26 3s15.333 4.33301 22 7c-13.333 -13.333 -25 -22.333 -35 -27l83 13c10.667 28.667 20.834 54.667 30.501 78s19.5 44.666 29.5 63.999c-7.33301 0.666992 -17.666 2.16699 -30.999 4.5s-26.833 5.66602 -40.5 9.99902s-25.5 10.166 -35.5 17.499
s-15 16.333 -15 27c0 6 2 10.667 6 14c5.33301 -4 10.5 -7.66699 15.5 -11s10.5 -6 16.5 -8s13 -3.66699 21 -5s17.667 -2 29 -2c16 0 34.667 1 56 3z" />
    <glyph glyph-name="G" unicode="G" horiz-adv-x="573" 
d="M388 515c4.66699 0 14.6738 -1.50977 30.0068 -4.50977s31.333 -8 48 -15s31.667 -15.833 45 -26.5s20 -24 20 -40c0 -3.33301 -1 -7.33301 -3 -12s-4.5 -9.16699 -7.5 -13.5s-6.33301 -8 -10 -11s-6.83398 -4.5 -9.50098 -4.5c0.666992 2.66699 1.83398 5.5 3.50098 8.5
s2.5 7.16699 2.5 12.5c0 9.33301 -3.83301 17.833 -11.5 25.5s-17 14.334 -28 20.001s-22.167 10 -33.5 13s-20.333 4.5 -27 4.5c-8.66699 0 -20.834 -2.33301 -36.501 -7s-32.5 -11.167 -50.5 -19.5s-36.167 -18.166 -54.5 -29.499s-34.166 -23.333 -47.499 -36
c-14 -13.333 -28 -28.5 -42 -45.5s-26.5 -35.667 -37.5 -56s-19.833 -42.5 -26.5 -66.5s-10 -49.333 -10 -76c0 -20 3.66699 -36.667 11 -50s16.666 -24.166 27.999 -32.499s24.166 -14.166 38.499 -17.499s28.5 -5 42.5 -5c28.667 0 56 3 82 9s53 16 81 30
c8 4 18.167 10.333 30.5 19s24.666 17.834 36.999 27.501s23.666 19.334 33.999 29.001s17.833 18.167 22.5 25.5c4 7.33301 7.33301 14.833 10 22.5s6.33398 15.5 11.001 23.5c-12 -3.33301 -28 -7 -48 -11s-41.167 -7.66699 -63.5 -11s-44 -6.16602 -65 -8.49902
s-38.5 -3.5 -52.5 -3.5c-12.667 0 -24.334 3.16699 -35.001 9.5s-16 15.5 -16 27.5c3.33301 -1.33301 10.333 -2.66602 21 -3.99902s21.667 -2 33 -2c15.333 0 36.166 1.16699 62.499 3.5s52.5 5.16602 78.5 8.49902s49.167 6.83301 69.5 10.5s32.166 7.16699 35.499 10.5
c3.33301 -4.66699 8.5 -9.66699 15.5 -15s13.5 -12.333 19.5 -21c-18 -15.333 -33.333 -37.166 -46 -65.499s-22.834 -57.166 -30.501 -86.499s-13.167 -56 -16.5 -80s-5 -39.667 -5 -47c0 -6 2 -14.333 6 -25c-6.66699 0 -12.167 2 -16.5 6s-8 9 -11 15
s-5.16699 12.5 -6.5 19.5s-2 13.167 -2 18.5c0 6 1.16699 15.667 3.5 29s5.33301 27.833 9 43.5l10.5 46l8 36.5c-8.66699 -12 -20.834 -25.167 -36.501 -39.5s-34.167 -28.166 -55.5 -41.499c-23.333 -15.333 -49 -28.166 -77 -38.499s-57 -15.5 -87 -15.5
c-31.333 0 -58 5.5 -80 16.5s-40.167 25.667 -54.5 44s-24.833 39.166 -31.5 62.499s-10 47 -10 71c0 42 10.333 81.667 31 119s52 75 94 113c32.667 30 66.834 54.667 102.501 74s70.5 29 104.5 29z" />
    <glyph glyph-name="H" unicode="H" horiz-adv-x="443" 
d="M4 267c4 1.33301 10.8271 3.1709 20.4941 5.50391l31 7.5c11 2.66699 22.167 5 33.5 7s21 3.33301 29 4l9 23.5l16.5 43.5l21 53.5c7.66699 19 15.334 36.667 23.001 53s14.834 30.333 21.501 42s12.334 18.834 17.001 21.501c0 -14.667 -6 -41 -18 -79l-8 -26.5
c-2.66699 -9 -5.66699 -17.5 -9 -25.5l-12.5 -39c-5.66699 -17.333 -13.167 -38.666 -22.5 -63.999c27.333 0 46 -1.16699 56 -3.5s17.333 -5.5 22 -9.5c-3.33301 0.666992 -7.66602 1 -12.999 1h-18h-22c-8 0 -17.333 -0.333008 -28 -1
c-5.33301 -12.667 -9.33301 -23.834 -12 -33.501s-5.33398 -17.167 -8.00098 -22.5h21c4.66699 0 9.66699 0.5 15 1.5s13 2.16699 23 3.5s23.667 2.66602 41 3.99902s41 2.66602 71 3.99902c12 52 28.167 102 48.5 150s45.833 99.667 76.5 155v-6
c0 -2.66699 -0.166992 -5.66699 -0.5 -9s-0.833008 -7 -1.5 -11c-0.666992 -4.66699 -2.83398 -13.834 -6.50098 -27.501s-8.16699 -29.5 -13.5 -47.5l-17.5 -58l-18.5 -59.5c-6 -19 -11.167 -36 -15.5 -51s-7.16602 -26.167 -8.49902 -33.5
c14.667 1.33301 25.167 2.5 31.5 3.5s12 1.66699 17 2s11.333 0.666016 19 0.999023s20.5 0.5 38.5 0.5c8.66699 0 17.5 -0.166992 26.5 -0.5s17.167 -1.33301 24.5 -3s13.333 -3.66699 18 -6s7 -5.5 7 -9.5c-2.66699 0 -5 0.333008 -7 1s-4.16699 1.33398 -6.5 2.00098
s-5.5 1.33398 -9.5 2.00098s-9.66699 1 -17 1c-10 0 -28.333 -1.5 -55 -4.5s-57.334 -7.16699 -92.001 -12.5l-5 -31c-1.33301 -4.66699 -3.16602 -16.334 -5.49902 -35.001s-3.5 -39.334 -3.5 -62.001c0 -13.333 0.666992 -26.333 2 -39s4 -24 8 -34
s9.33301 -18.167 16 -24.5s15 -9.5 25 -9.5c11.333 0 20.5 3.16699 27.5 9.5s12.333 14 16 23s6 18.167 7 27.5s1.5 16.666 1.5 21.999c0 6.66699 -0.833008 15.5 -2.5 26.5s-4.16699 21.167 -7.5 30.5c4.66699 -4.66699 9.33398 -13.334 14.001 -26.001s7 -27 7 -43
c0 -3.33301 -0.5 -10 -1.5 -20s-3.66699 -20.5 -8 -31.5s-11.166 -20.833 -20.499 -29.5s-22.333 -13 -39 -13c-9.33301 0 -19.333 1.83301 -30 5.5s-20.5 10.334 -29.5 20.001s-16.5 23 -22.5 40s-9 38.5 -9 64.5c0 9.33301 0.5 19.333 1.5 30s2.16699 21.667 3.5 33l10 60
c-3.33301 0 -11 -0.666992 -23 -2l-41.5 -4.5c-15.667 -1.66699 -31.667 -3.5 -48 -5.5s-30.5 -3.66699 -42.5 -5h-19c-5.33301 -12.667 -10 -28 -14 -46s-7.5 -36.167 -10.5 -54.5s-5.16699 -36 -6.5 -53s-2 -31.167 -2 -42.5c0 -26 2.83301 -44.167 8.5 -54.5
s11.834 -17.5 18.501 -21.5c-6.66699 0.666992 -13.167 2.5 -19.5 5.5s-12 8.16699 -17 15.5s-9.16699 17 -12.5 29s-5 27.667 -5 47c0 22.667 1.16699 44.167 3.5 64.5s5 38.333 8 54s6.16699 28.667 9.5 39s6 17.166 8 20.499c-6.66699 0.666992 -15 1.33398 -25 2.00098
s-19.833 2.66699 -29.5 6s-18 8.66602 -25 15.999s-10.5 18 -10.5 32c0 2.66699 0.666992 7.33398 2 14.001zM112.994 276.005c-10.667 0 -23.166 -1.66895 -37.499 -5.00195s-31.166 -10.333 -50.499 -21c5.33301 -4.66699 9.83301 -8.16699 13.5 -10.5
s7.66699 -4.16602 12 -5.49902s10.166 -2.66602 17.499 -3.99902s17.666 -3.33301 30.999 -6c4.66699 13.333 8 24.5 10 33.5s3.33301 15.167 4 18.5z" />
    <glyph glyph-name="I" unicode="I" horiz-adv-x="133" 
d="M142 523c15.333 0 26.501 -5.1709 33.501 -15.5039s10.5 -27.166 10.5 -50.499c0 -29.333 -3.5 -59.333 -10.5 -90s-15.333 -61.5 -25 -92.5l-28 -92c-9 -30.333 -15.5 -59.5 -19.5 -87.5c-2.66699 -13.333 -4.33398 -27.333 -5.00098 -42s-1 -28 -1 -40
c0 -10.667 0.166992 -19.667 0.5 -27s1.16602 -12.666 2.49902 -15.999c-15.333 2 -27.166 9.83301 -35.499 23.5s-12.5 35.5 -12.5 65.5c0 9.33301 0.5 19.333 1.5 30s2.16699 22.334 3.5 35.001c4.66699 29.333 12.167 62 22.5 98s21 71 32 105l30 92
c9 27.333 14.5 47 16.5 59c0.666992 2 1 6.33301 1 13c0 14.667 -3 22 -9 22c-7.33301 0 -15 -3.5 -23 -10.5s-13 -12.167 -15 -15.5c1.33301 6 4.33301 13.333 9 22s11.667 13.334 21 14.001z" />
    <glyph glyph-name="J" unicode="J" horiz-adv-x="199" 
d="M253 526c-14.667 -38 -27.998 -75.999 -39.998 -113.999s-20.667 -71.333 -26 -100c-6.66699 -46.667 -11.334 -86.334 -14.001 -119.001s-4 -60.334 -4 -83.001c0 -34 1.5 -59.833 4.5 -77.5s4.5 -32.167 4.5 -43.5c0 -23.333 -4.66699 -42 -14 -56
s-20.833 -24.667 -34.5 -32s-28.334 -12.166 -44.001 -14.499s-30.167 -3.5 -43.5 -3.5c-10 0 -21.167 0.333008 -33.5 1s-23.833 2.16699 -34.5 4.5s-19.667 6 -27 11s-11 11.833 -11 20.5c0 8 3.83301 16 11.5 24s16.334 15.167 26.001 21.5s19 11.5 28 15.5
s14.833 6 17.5 6c-11.333 -10 -20.166 -19.167 -26.499 -27.5s-9.5 -20.833 -9.5 -37.5c0 -8.66699 4.16699 -14.667 12.5 -18s18.166 -5 29.499 -5c12.667 0 25 2 37 6s22.833 9.5 32.5 16.5s17.334 15.5 23.001 25.5s8.5 21.333 8.5 34c0 18 -0.833008 43 -2.5 75
s-2.5 66 -2.5 102c0 37.333 3.16699 76 9.5 116s15.166 77.333 26.499 112s25.166 64.667 41.499 90s34.5 42 54.5 50z" />
    <glyph glyph-name="K" unicode="K" horiz-adv-x="411" 
d="M75 11c0 -8 1.66895 -11.999 5.00195 -11.999c4 0 6.66699 4.66699 8 14c3.33301 -4.66699 5 -9.66699 5 -15c0 -14 -5.66699 -21 -17 -21c-5.33301 0 -9.66602 2 -12.999 6s-5.83301 8.66699 -7.5 14s-2.83398 11 -3.50098 17s-1 11 -1 15c0 11.333 0.666992 24 2 38
s3.66602 29 6.99902 45c2.66699 16 5.83398 32 9.50098 48s7.5 30.667 11.5 44c-12 6.66699 -21.667 16.167 -29 28.5s-11 27.166 -11 44.499c0 1.33301 0.166992 2.83301 0.5 4.5s0.833008 3.83398 1.5 6.50098c6 -10.667 13.5 -19.5 22.5 -26.5s17.167 -12.833 24.5 -17.5
c10 38 19.667 70 29 96s18.666 49.333 27.999 70l33.5 71.5c11 22.333 22.5 47.166 34.5 74.499c5.33301 -4.66699 8.83301 -10.334 10.5 -17.001s2.5 -13.334 2.5 -20.001c0 -7.33301 -0.333008 -11.333 -1 -12c-2.66699 -21.333 -8 -41.5 -16 -60.5l-25 -57.5l-32.5 -70.5
c-11 -24.333 -20.5 -52.5 -28.5 -84.5c3.33301 -1.33301 9 -2.66602 17 -3.99902s18.333 -2 31 -2c12 0 23.333 1.16699 34 3.5s21.334 5.5 32.001 9.5c15.333 6.66699 29.666 14.667 42.999 24s26 20 38 32c16 16 30.667 33.167 44 51.5s24.833 36.333 34.5 54
s17.834 33.834 24.501 48.501s11.667 26.667 15 36c0 -20.667 -1.66699 -42.834 -5 -66.501s-11.333 -49.834 -24 -78.501c-6.66699 -14 -14.334 -27.833 -23.001 -41.5s-19.334 -26.834 -32.001 -39.501c-26 -26 -59 -46.333 -99 -61c-21.333 -8 -38.833 -12 -52.5 -12
s-26.5 -0.666992 -38.5 -2c12.667 -14.667 27.834 -30 45.501 -46s36.167 -31.333 55.5 -46c14 -12 28.333 -23.167 43 -33.5s28.667 -19.166 42 -26.499s25 -13.166 35 -17.499s17.667 -6.5 23 -6.5s11.166 2.16699 17.499 6.5s10.5 10.833 12.5 19.5
c2.66699 -4.66699 4 -10.667 4 -18c0 -10.667 -3.5 -20 -10.5 -28s-16.167 -12 -27.5 -12c-30 0 -58.833 7.83301 -86.5 23.5s-54.167 34.5 -79.5 56.5c-28 23.333 -52.833 47.333 -74.5 72l-52.5 59c-3.33301 -9.33301 -7 -21.5 -11 -36.5s-8 -31.167 -12 -48.5
c-4 -15.333 -7.16699 -31.166 -9.5 -47.499s-3.5 -31.5 -3.5 -45.5z" />
    <glyph glyph-name="L" unicode="L" horiz-adv-x="369" 
d="M141 38c-20 0 -39.3281 -5.83105 -57.9951 -17.498s-32.334 -28.834 -41.001 -51.501l-40 56c1.33301 2.66699 3 5 5 7l7 7c31.333 74 61 152.333 89 235c14 42 26.667 82.5 38 121.5s20.666 76.5 27.999 112.5c12 -23.333 18 -50.333 18 -81
c0 -28 -3.5 -56.667 -10.5 -86s-15.5 -59.333 -25.5 -90l-36.5 -97l-34.5 -91c7.33301 2.66699 19.333 4 36 4c23.333 0 45.666 -3.5 66.999 -10.5s41.666 -15.5 60.999 -25.5c25.333 -14 52.166 -22.833 80.499 -26.5s57.833 -5.83398 88.5 -6.50098
c-23.333 -10 -47.333 -15 -72 -15c-43.333 0 -85 10 -125 30c-13.333 6.66699 -26 12.5 -38 17.5s-24.333 7.5 -37 7.5z" />
    <glyph glyph-name="M" unicode="M" horiz-adv-x="345" 
d="M166 528c9.33301 0 16.3379 -0.673828 21.0049 -2.00684l17 -5l-18 -103.5c-6 -35 -9 -69.5 -9 -103.5c0 -30 2.66699 -59 8 -87s15 -54.333 29 -79c32 44.667 59.5 91.834 82.5 141.501s36.5 100.5 40.5 152.5c1.33301 0 3.66602 0.166992 6.99902 0.5s7 0.5 11 0.5
c20 0 35 -2.33301 45 -7l-34.5 -97.5c-14.333 -39.667 -25.5 -83.167 -33.5 -130.5c-2.66699 -18 -5.33398 -38.667 -8.00098 -62s-4 -47.666 -4 -72.999c0 -22 1.33301 -43.333 4 -64s7.66699 -39.167 15 -55.5s17.166 -30.166 29.499 -41.499
s28.166 -18.666 47.499 -21.999c10 0 20.667 3.16699 32 9.5s22.666 14 33.999 23s22.166 18.833 32.499 29.5l27.5 28c-20.667 -34 -41.667 -59.5 -63 -76.5s-45 -26.167 -71 -27.5c-20 0 -38.167 4.66699 -54.5 14s-30.166 21.5 -41.499 36.5s-20.166 31.833 -26.499 50.5
s-9.5 37.334 -9.5 56.001c0 19.333 1.66699 43.833 5 73.5s6.33301 59.834 9 90.501c-2 -4 -5.5 -9.66699 -10.5 -17s-10.5 -15 -16.5 -23s-12.167 -15.333 -18.5 -22s-11.5 -11 -15.5 -13c-18 0.666992 -33 7.33398 -45 20.001s-21.833 27.834 -29.5 45.501
s-13.167 36.334 -16.5 56.001s-5.33301 36.5 -6 50.5l-30 -116.5c-11.333 -43.667 -24 -86.5 -38 -128.5s-29.167 -80.333 -45.5 -115s-33.833 -60.334 -52.5 -77.001c8 15.333 17.167 37.666 27.5 66.999s21.166 63 32.499 101l35 122.5l35 132.5l33 131l29 117h8z" />
    <glyph glyph-name="N" unicode="N" horiz-adv-x="319" 
d="M171 513c11.333 0 19.6699 -3.00195 25.0029 -9.00195c-14.667 -38 -25 -74.5 -31 -109.5s-9 -70.5 -9 -106.5c0 -57.333 6.66699 -114.666 20 -171.999c4.66699 -20.667 10.5 -40.334 17.5 -59.001s18.167 -34.667 33.5 -48c2.66699 7.33301 5.16699 14.833 7.5 22.5
s4.16602 15.5 5.49902 23.5l14 83.5c5.33301 31 12 62.833 20 95.5s17.5 65 28.5 97s24 61.667 39 89s32.333 51.166 52 71.499s42.167 35.166 67.5 44.499c-27.333 -36 -50.333 -74.167 -69 -114.5s-34.667 -81.5 -48 -123.5s-24.333 -84.333 -33 -127
s-16.334 -85 -23.001 -127c-2.66699 -15.333 -8.83398 -28.166 -18.501 -38.499s-22.167 -16.833 -37.5 -19.5c-28.667 6 -50 18.333 -64 37s-24.167 40.334 -30.5 65.001s-10.5 50.834 -12.5 78.501s-5.33301 53.5 -10 77.5c-2.66699 -28 -5.16699 -52.833 -7.5 -74.5
s-5.83301 -45.167 -10.5 -70.5c-3.33301 -21.333 -8.16602 -42.833 -14.499 -64.5s-15.833 -36.834 -28.5 -45.501c4.66699 48 8.5 96.333 11.5 145s8.16699 97.334 15.5 146.001c6.66699 42 15.167 82.833 25.5 122.5s21.5 73.834 33.5 102.501
c9.33301 5.33301 19.666 8 30.999 8z" />
    <glyph glyph-name="O" unicode="O" horiz-adv-x="572" 
d="M294 512c42.667 0 82.667 -3.66309 120 -10.9961s69.833 -18.833 97.5 -34.5s49.5 -35.667 65.5 -60s24 -53.5 24 -87.5c0 -46.667 -9.66699 -90 -29 -130s-44.833 -74.833 -76.5 -104.5s-68 -53 -109 -70s-82.833 -25.5 -125.5 -25.5
c-24.667 0 -48.334 5.5 -71.001 16.5s-42.667 25.5 -60 43.5s-31.166 38.333 -41.499 61s-15.5 46 -15.5 70c0 35.333 5.33301 68.333 16 99s23.667 58.167 39 82.5s31.666 45.166 48.999 62.499s32.666 30.333 45.999 39c-30 -13.333 -57.667 -29.833 -83 -49.5
s-47.166 -41.5 -65.499 -65.5s-32.666 -49.5 -42.999 -76.5s-15.5 -54.5 -15.5 -82.5c0 -4.66699 0.166992 -8.83398 0.5 -12.501s0.833008 -7.16699 1.5 -10.5c-3.33301 6 -5.83301 14 -7.5 24s-2.5 20.333 -2.5 31c0 40 8.5 77.667 25.5 113s39 66.166 66 92.499
s57.667 47.166 92 62.499s68.5 23 102.5 23zM305 485.004c-32 0 -59.832 -11.5 -83.499 -34.5s-43.334 -50.833 -59.001 -83.5s-27.5 -66.5 -35.5 -101.5s-12 -64.833 -12 -89.5c0 -22 3 -42.833 9 -62.5s15 -37 27 -52s26.667 -26.833 44 -35.5s37 -13 59 -13
c32.667 0 65.667 6.83301 99 20.5s63.5 32.667 90.5 57s49 53.333 66 87s25.5 70.5 25.5 110.5c0 24.667 -5.5 48.834 -16.5 72.501s-26.5 44.667 -46.5 63s-44.167 33.166 -72.5 44.499s-59.833 17 -94.5 17z" />
    <glyph glyph-name="P" unicode="P" horiz-adv-x="392" 
d="M225 470c-2.66699 -17.333 -6.99707 -36.6631 -12.9971 -57.9961s-12.333 -42.166 -19 -62.499l-18.5 -57.5c-5.66699 -18 -9.5 -32.333 -11.5 -43l43 10c16.667 4 34 8.66699 52 14s36.167 11.166 54.5 17.499s35.166 13.166 50.499 20.499
c20.667 10.667 37.334 21.5 50.001 32.5s19 22.5 19 34.5c0 14 -4.83301 26.5 -14.5 37.5s-22.334 20.667 -38.001 29s-32.834 15.5 -51.501 21.5s-37 10.833 -55 14.5s-34.5 6.33398 -49.5 8.00098s-26.167 2.5 -33.5 2.5c-18 0 -39.333 -1.83301 -64 -5.5
s-49 -10.167 -73 -19.5s-45.167 -22.333 -63.5 -39s-29.833 -38 -34.5 -64l-1 -7c-16 0 -24 10.333 -24 31c0 17.333 5.16699 32.666 15.5 45.999s23.5 24.666 39.5 33.999s34 17 54 23s39.667 10.667 59 14s37.333 5.66602 54 6.99902s30 2 40 2
c28.667 0 59.167 -2.5 91.5 -7.5s61.833 -13.5 88.5 -25.5s48.834 -28 66.501 -48s26.5 -44.667 26.5 -74c0 -14 -4.66699 -28.5 -14 -43.5s-27.333 -28.833 -54 -41.5c-22 -11.333 -52.167 -21.5 -90.5 -30.5s-89.5 -16.167 -153.5 -21.5l-21.5 -74l-22 -75.5
c-7 -25 -13.5 -49.5 -19.5 -73.5s-10.333 -47 -13 -69c-4.66699 9.33301 -7 24 -7 44c0 18 1.5 38.667 4.5 62s6.66699 46.5 11 69.5s9.16602 44.333 14.499 64s10.333 35.5 15 47.5c-12 -2 -23.333 -3 -34 -3c-27.333 0 -53 3.33301 -77 10
c8 1.33301 17.167 2.66602 27.5 3.99902s21 2.83301 32 4.5s21.667 3.16699 32 4.5s19.166 2.66602 26.499 3.99902c20 58.667 39.167 106.834 57.5 144.501s33.5 66.167 45.5 85.5z" />
    <glyph glyph-name="Q" unicode="Q" horiz-adv-x="497" 
d="M356 513c25.333 0 48.667 -3.49121 70 -10.4912s39.666 -17.833 54.999 -32.5s27.166 -33.334 35.499 -56.001s12.5 -49.667 12.5 -81c0 -30.667 -3.66699 -59.167 -11 -85.5s-16.5 -49.833 -27.5 -70.5s-22.667 -38.167 -35 -52.5s-23.166 -24.833 -32.499 -31.5
c20.667 -16 37.5 -32 50.5 -48s25.833 -30.667 38.5 -44c12 -12.667 25 -22.834 39 -30.501s32 -11.5 54 -11.5c12 0 23.833 2 35.5 6s22.5 9 32.5 15c-6.66699 -10 -16.834 -19.667 -30.501 -29s-33.167 -14 -58.5 -14c-22 0 -40.667 3 -56 9s-29 14.667 -41 26
c-14 12.667 -27.5 27.5 -40.5 44.5s-28.167 34.833 -45.5 53.5c-4.66699 -4.66699 -12.667 -11.334 -24 -20.001s-25.166 -17.334 -41.499 -26.001s-34.833 -16.167 -55.5 -22.5s-42.667 -9.5 -66 -9.5c-26.667 0 -50 4.5 -70 13.5s-36.667 21.333 -50 37
s-23.333 34.167 -30 55.5s-10 44.333 -10 69c0 39.333 4.83301 76.666 14.5 111.999s23 67.666 40 96.999s37.333 55.166 61 77.499s49.167 40.166 76.5 53.499c-10.667 -10 -21.667 -21.333 -33 -34s-19.666 -23.334 -24.999 -32.001c17.333 16 33 28.667 47 38
s27.5 16.5 40.5 21.5s26 8.33301 39 10s26.833 2.5 41.5 2.5zM338.001 471.009c-34 0 -63.834 -7.83594 -89.501 -23.5029s-47.667 -34.834 -66 -57.501s-33.166 -46.667 -44.499 -72s-19.666 -47.666 -24.999 -66.999c0 12 1.16699 24 3.5 36s5.33301 23.833 9 35.5
s7.33398 22.334 11.001 32.001l9.5 25.5c-6.66699 -6 -13.667 -18.167 -21 -36.5s-14 -38.166 -20 -59.499s-10.833 -42.166 -14.5 -62.499s-5.5 -35.166 -5.5 -44.499c0 -18.667 2.16699 -37.334 6.5 -56.001s11.333 -35.334 21 -50.001s22 -26.667 37 -36
s33.167 -14 54.5 -14c30.667 0 60.667 5.16699 90 15.5s56.666 29.5 81.999 57.5c-8 6 -18.167 12.833 -30.5 20.5s-26.333 15 -42 22s-32.5 13 -50.5 18s-36 8.16699 -54 9.5c16 7.33301 32.667 11 50 11c25.333 0 51.166 -5.66699 77.499 -17s50.833 -25.666 73.5 -42.999
c23.333 25.333 42.333 55.833 57 91.5s22 74.5 22 116.5c0 26 -4 48.333 -12 67s-18.5 34 -31.5 46s-28 20.833 -45 26.5s-34.5 8.5 -52.5 8.5z" />
    <glyph glyph-name="R" unicode="R" horiz-adv-x="295" 
d="M159 508c28.667 0 55.165 -3.33008 79.498 -9.99707s45.166 -16 62.499 -28s30.833 -26.667 40.5 -44s14.5 -36 14.5 -56c0 -24 -7.16699 -44.167 -21.5 -60.5s-34.166 -29.833 -59.499 -40.5c-18 -8 -38.333 -14.333 -61 -19s-46.667 -8.66699 -72 -12
c-0.666992 -0.666992 -2.33398 -4.33398 -5.00098 -11.001s-4 -12 -4 -16c12 -22.667 27.167 -45.834 45.5 -69.501s38.166 -45.834 59.499 -66.501c14.667 -15.333 29.667 -29.5 45 -42.5s30 -24.333 44 -34s27.167 -17.334 39.5 -23.001s23.5 -8.83398 33.5 -9.50098
c-7.33301 -10 -15.166 -16.833 -23.499 -20.5s-17.5 -5.5 -27.5 -5.5c-11.333 0 -23.166 2.83301 -35.499 8.5s-24.666 13.334 -36.999 23.001s-24.5 20.667 -36.5 33s-23.667 25.5 -35 39.5c-20 24.667 -37.667 48.834 -53 72.501s-26.666 42.5 -33.999 56.5
c-4.66699 -14 -9.16699 -29.167 -13.5 -45.5l-13.5 -50.5c-7.33301 -26.667 -14 -53 -20 -79l-15 -66c-8 20.667 -12 44.667 -12 72c0 14 1.16699 28.5 3.5 43.5l7.5 46.5c8.66699 41.333 20.667 82.666 36 123.999c-2 2 -4.5 5.5 -7.5 10.5s-6 10.667 -9 17
s-5.5 12.666 -7.5 18.999s-3 12.166 -3 17.499c8.66699 -4 16.834 -6.33301 24.501 -7l22.5 -2c4 14 8 26.167 12 36.5l12 32c4 11 8 23.333 12 37s8 31.5 12 53.5c6.66699 -7.33301 10 -20.666 10 -39.999c0 -12 -1.16699 -25.833 -3.5 -41.5s-6.5 -38.167 -12.5 -67.5
c38.667 4.66699 72 13.667 100 27c22.667 10 40.834 21.5 54.501 34.5s20.5 28.167 20.5 45.5c0 16 -3.66699 29.333 -11 40s-17 19.334 -29 26.001c-17.333 10.667 -37 17.5 -59 20.5s-41.333 4.5 -58 4.5c-19.333 0 -38.833 -3.33301 -58.5 -10
s-37.834 -15.667 -54.501 -27c-16 -10.667 -30.167 -22.667 -42.5 -36s-21.833 -27.666 -28.5 -42.999c-2 8 -3 15.667 -3 23c0 18.667 5.66699 35.5 17 50.5s25.666 27.5 42.999 37.5s36.333 17.833 57 23.5s40 8.5 58 8.5z" />
    <glyph glyph-name="S" unicode="S" horiz-adv-x="362" 
d="M304 514c30.667 0 55.668 -6.6709 75.001 -20.0039s29.666 -32.666 30.999 -57.999c-10.667 9.33301 -23.5 16 -38.5 20s-31.5 6 -49.5 6c-32 0 -61.167 -4.66699 -87.5 -14s-49.5 -22.333 -69.5 -39c-22.667 -19.333 -41.167 -42.166 -55.5 -68.499
s-24.166 -54.833 -29.499 -85.5c-0.666992 -3.33301 -1 -6.5 -1 -9.5v-8.5c0 -27.333 9 -49.5 27 -66.5s40.333 -31.5 67 -43.5c16.667 -8 34.167 -15 52.5 -21l54 -17c17.667 -5.33301 34 -10.666 49 -15.999s27.5 -11.333 37.5 -18
c-0.666992 -4 -5.66699 -10.167 -15 -18.5s-22.666 -17.666 -39.999 -27.999s-38.333 -20.833 -63 -31.5s-52.667 -19.667 -84 -27c-22 -5.33301 -45.667 -9.66602 -71 -12.999s-52.333 -5 -81 -5c-22 0 -38.833 4.5 -50.5 13.5s-19.834 21.5 -24.501 37.5
c5.33301 -4 12.666 -6.83301 21.999 -8.5s20 -2.5 32 -2.5c23.333 0 48 1.33301 74 4s51.667 6.66699 77 12c50.667 9.33301 94.334 23.666 131.001 42.999c-14 12 -32 22.5 -54 31.5s-44.667 20.167 -68 33.5c-12 7.33301 -23.5 15.5 -34.5 24.5s-20.667 19.5 -29 31.5
s-15 25.833 -20 41.5s-7.5 33.5 -7.5 53.5c0 30.667 7.16699 62.667 21.5 96s34.166 64 59.499 92c21.333 23.333 45.833 42.333 73.5 57s57.5 22 89.5 22z" />
    <glyph glyph-name="T" unicode="T" horiz-adv-x="410" 
d="M303 542c2.66699 -4.66699 3.99902 -9.99512 3.99902 -15.9951s0.333008 -11.667 1 -17c8.66699 0.666992 19.167 1.16699 31.5 1.5s23.5 0.5 33.5 0.5c44 0 78.167 -1.33301 102.5 -4s42.5 -5.83398 54.5 -9.50098s19.167 -7.33398 21.5 -11.001s3.5 -6.5 3.5 -8.5
c-10 1.33301 -18 2.5 -24 3.5s-12.333 2 -19 3s-15.167 1.66699 -25.5 2s-25.166 0.5 -44.499 0.5c-14 0 -31.5 -0.333008 -52.5 -1s-49.5 -2.33398 -85.5 -5.00098l-38 -94.5c-12 -30.333 -23 -60.5 -33 -90.5c-15.333 -46.667 -27.666 -92.5 -36.999 -137.5
s-14 -92.167 -14 -141.5c0 -14.667 1.16699 -26.667 3.5 -36s6.83301 -14 13.5 -14c8 0 15.667 6.66699 23 20c0 -5.33301 -1.5 -11.333 -4.5 -18s-10.5 -10 -22.5 -10c-19.333 0 -34 8.83301 -44 26.5s-15 39.5 -15 65.5c0 42.667 5.16699 86.167 15.5 130.5
s23.833 88.5 40.5 132.5c11.333 29.333 23.5 57.666 36.5 84.999s26.167 53.666 39.5 78.999c-18.667 -1.33301 -39.667 -3.5 -63 -6.5s-45.666 -4.5 -66.999 -4.5c-23.333 0 -39.333 2.33301 -48 7s-13 12 -13 22c0 4.66699 0.333008 8 1 10
c1.33301 -1.33301 2.83301 -2.5 4.5 -3.5s4.5 -1.83301 8.5 -2.5s9.66699 -1.16699 17 -1.5s17 -0.5 29 -0.5c13.333 0 32.166 0.833008 56.499 2.5s54.5 4.16699 90.5 7.5c2.66699 6 5.66699 12 9 18s6.66602 11.333 9.99902 16z" />
    <glyph glyph-name="U" unicode="U" horiz-adv-x="400" 
d="M457 518c13.333 -2 25.3281 -7.66504 35.9951 -16.998c-9.33301 -13.333 -20.666 -34.5 -33.999 -63.5s-26.666 -61.5 -39.999 -97.5c-7.33301 -19.333 -14.166 -38.833 -20.499 -58.5s-11.833 -38.334 -16.5 -56.001s-8.33398 -34 -11.001 -49s-4 -27.5 -4 -37.5
c0 -19.333 1.5 -38.5 4.5 -57.5s8.16699 -36.167 15.5 -51.5s17.5 -28.166 30.5 -38.499s29.167 -16.5 48.5 -18.5c-12 -3.33301 -20 -5 -24 -5c-10 0 -20.667 2.16699 -32 6.5s-22.166 11.833 -32.499 22.5s-20 24.5 -29 41.5s-16.167 38.167 -21.5 63.5
c-8.66699 -14 -18.5 -27.667 -29.5 -41s-23 -25.166 -36 -35.499s-27 -18.833 -42 -25.5s-30.833 -10 -47.5 -10c-36 0 -63.167 12 -81.5 36s-27.5 63 -27.5 117c0 16.667 1 35.167 3 55.5s5 41 9 62s8.83301 42.167 14.5 63.5s12.167 41.666 19.5 60.999
c13.333 36.667 29.5 67.334 48.5 92.001s39.167 37 60.5 37c6.66699 0 12.334 -1.33301 17.001 -4c-16.667 -11.333 -32 -29 -46 -53s-26.667 -52 -38 -84c-13.333 -40.667 -24 -84.834 -32 -132.501s-12 -92.167 -12 -133.5c0 -20.667 3.66699 -38.834 11 -54.501
s22.333 -26.834 45 -33.501c16.667 0 34.834 6.66699 54.501 20s38 29 55 47s31 36 42 54s16.5 31.667 16.5 41c5.33301 32 11.666 62.167 18.999 90.5s15.333 55.5 24 81.5c24.667 69.333 52.334 124.333 83.001 165z" />
    <glyph glyph-name="V" unicode="V" horiz-adv-x="226" 
d="M67 507c8 -13.333 15.499 -27.3311 22.499 -41.998s13.333 -30.667 19 -48s10 -36.833 13 -58.5s4.5 -46.5 4.5 -74.5c0 -18.667 -0.666992 -39 -2 -61s-4 -47 -8 -75c6.66699 30.667 14.167 62.167 22.5 94.5s18.5 63.833 30.5 94.5c10.667 26.667 22.5 52.5 35.5 77.5
s27.5 47.333 43.5 67s33.667 36.167 53 49.5s41 22 65 26c-12.667 -10 -26.667 -23.5 -42 -40.5s-30.5 -36 -45.5 -57s-29 -43.333 -42 -67s-23.5 -47.5 -31.5 -71.5c-18 -56.667 -33.5 -113.5 -46.5 -170.5s-23.833 -111.833 -32.5 -164.5
c-8 1.33301 -15.833 3.16602 -23.5 5.49902s-12.834 5.16602 -15.501 8.49902c2 32 3.66699 64.5 5 97.5s2 66.5 2 100.5v41c0 13.333 -0.333008 27 -1 41c-1.33301 46 -4.16602 88.333 -8.49902 127s-10.166 72 -17.499 100z" />
    <glyph glyph-name="W" unicode="W" horiz-adv-x="442" 
d="M300 360c2.66699 0 5.82812 -0.167969 9.49512 -0.500977s7.83398 -0.833008 12.501 -1.5c-1.33301 -3.33301 -4.16602 -12 -8.49902 -26l-15.5 -49.5l-19.5 -61c-7 -21.667 -13.333 -42.167 -19 -61.5l-14.5 -49.5c-4 -13.667 -6.33301 -22.167 -7 -25.5
c-2.66699 -10.667 -4 -23 -4 -37c0 -26 4.33301 -46.333 13 -61s20 -22 34 -22c12.667 0 25 8.33301 37 25s24 39.334 36 68.001c14 32.667 27 70.167 39 112.5s23 85.833 33 130.5c9.33301 42 17.833 82 25.5 120s13.834 72.333 18.501 103
c4.66699 -12 8.33398 -23.667 11.001 -35s4 -26 4 -44c0 -17.333 -1.33301 -38 -4 -62s-7 -54.333 -13 -91c-2.66699 -18 -6.5 -37.833 -11.5 -59.5s-11 -44 -18 -67s-14.667 -45.833 -23 -68.5s-17.166 -44 -26.499 -64c-14 -26 -28.667 -47.5 -44 -64.5
s-32 -25.5 -50 -25.5c-26.667 0 -46.667 10.833 -60 32.5s-20 48.5 -20 80.5c0 7.33301 1 15.666 3 24.999c-4.66699 -8.66699 -9.83398 -17.5 -15.501 -26.5s-11.834 -17.167 -18.501 -24.5c-8.66699 -10 -17.834 -18.167 -27.501 -24.5s-19.834 -9.5 -30.501 -9.5
c-13.333 0 -24.5 2.83301 -33.5 8.5s-16.5 13.334 -22.5 23.001s-10.333 20.667 -13 33s-4 25.5 -4 39.5c0 25.333 4.33301 54.666 13 87.999s20.667 68 36 104c17.333 42 38.833 82.167 64.5 120.5s53.5 69.166 83.5 92.499c-18.667 -40 -37.667 -78.667 -57 -116
s-36.666 -76 -51.999 -116c-11.333 -30 -22.166 -61.167 -32.499 -93.5s-15.5 -64.5 -15.5 -96.5c0 -17.333 2.33301 -33.333 7 -48s10.334 -22 17.001 -22c18.667 0 40.667 24 66 72c15.333 28.667 31.833 65.834 49.5 111.501s36.5 99.834 56.5 162.501
c1.33301 0 2.83301 0.166992 4.5 0.5s3.83398 0.5 6.50098 0.5z" />
    <glyph glyph-name="X" unicode="X" horiz-adv-x="433" 
d="M187 516c26.667 0 48.334 -7.99902 65.001 -23.999s25 -42.333 25 -79c0 -14.667 -1.33301 -28.667 -4 -42c11.333 11.333 23.166 22.333 35.499 33l38.5 32c19.333 14 39.333 26.833 60 38.5s41.334 21.167 62.001 28.5l-49.5 -48l-52.5 -52
c-36.667 -36 -70.667 -72 -102 -108c-3.33301 -8 -5.33301 -17.833 -6 -29.5s-1 -23.167 -1 -34.5c0 -28.667 3.5 -57.334 10.5 -86.001s18.167 -53.667 33.5 -75c10.667 -15.333 23.334 -27.833 38.001 -37.5s31.334 -14.5 50.001 -14.5c12 0 24.333 3.16699 37 9.5
s23 18.5 31 36.5c0 -9.33301 -2.33301 -19.166 -7 -29.499s-10.834 -19.833 -18.501 -28.5s-16.5 -15.834 -26.5 -21.501s-20.333 -8.5 -31 -8.5c-30 0 -54.833 6.16699 -74.5 18.5s-35.834 28.5 -48.501 48.5c-12 19.333 -20.833 40.833 -26.5 64.5s-8.5 48.167 -8.5 73.5
c0 26 3.66699 53 11 81l-50 -51c-18 -18 -36 -37.333 -54 -58c-21.333 -24.667 -41.833 -50.334 -61.5 -77.001s-37.167 -54 -52.5 -82c4.66699 34 14.834 65.833 30.501 95.5s34.167 58.5 55.5 86.5c20 28 41.667 54.333 65 79l69 75
c1.33301 8.66699 2.66602 19.5 3.99902 32.5s2 26.5 2 40.5c0 9.33301 -0.5 18.833 -1.5 28.5s-2.83301 18.5 -5.5 26.5s-6.16699 14.5 -10.5 19.5s-9.83301 7.5 -16.5 7.5c-32.667 0 -62.334 -9.33301 -89.001 -28c-36 -23.333 -61.667 -54.333 -77 -93
c-1.33301 6.66699 -2 12.334 -2 17.001c0 20 5.5 38.667 16.5 56s25.167 32.333 42.5 45c14 10.667 29.167 19 45.5 25s32.5 9 48.5 9z" />
    <glyph glyph-name="Y" unicode="Y" horiz-adv-x="300" 
d="M399 509c-2.66699 -9.33301 -7.50391 -24.8311 -14.5039 -46.498l-25 -77.5l-31.5 -98.5l-35 -109l-34.5 -109l-30 -98.5c-9 -30 -16.333 -56 -22 -78s-9.16699 -37.667 -10.5 -47c-0.666992 -4 -1.33398 -8.33301 -2.00098 -13s-1 -9.33398 -1 -14.001
c0 -5.33301 0.5 -10 1.5 -14s3.16699 -6 6.5 -6c6 0 11.167 3.16699 15.5 9.5s7.83301 13.166 10.5 20.499c-2.66699 -16 -7.33398 -29.167 -14.001 -39.5s-17.667 -15.5 -33 -15.5c-12 0 -20.167 4.83301 -24.5 14.5s-6.5 21.5 -6.5 35.5c0 10 1 21 3 33
c4 18.667 9.66699 40.667 17 66s15.333 50.666 24 75.999s17.334 49.333 26.001 72s16.334 41 23.001 55l-22 -28.5c-7.33301 -9.66699 -15.166 -18.667 -23.499 -27s-17.166 -15.833 -26.499 -22.5s-19.333 -11.334 -30 -14.001c-14.667 0.666992 -27 4.16699 -37 10.5
s-18 14.333 -24 24s-10.333 20.834 -13 33.501s-4 26 -4 40c0 32 5.5 65.5 16.5 100.5s23.5 70.5 37.5 106.5l41 101.5c13.333 33 23.333 63.833 30 92.5c2.66699 -12 4.83398 -23 6.50098 -33s2.5 -20 2.5 -30c0 -24.667 -3.83301 -49 -11.5 -73s-16.167 -48.667 -25.5 -74
c-12 -30.667 -23.5 -62.167 -34.5 -94.5s-16.5 -66.5 -16.5 -102.5c0 -3.33301 0.333008 -9.16602 1 -17.499s2 -16.666 4 -24.999s5 -15.833 9 -22.5s9 -10 15 -10s14.333 6 25 18s22.167 27.167 34.5 45.5s24.5 38.5 36.5 60.5s22.333 42.667 31 62
c16.667 40 32.334 81.833 47.001 125.5s28 88.5 40 134.5c14 1.33301 24 2.16602 30 2.49902s12 0.5 18 0.5z" />
    <glyph glyph-name="Z" unicode="Z" horiz-adv-x="333" 
d="M411 514c7.33301 -8.66699 12.834 -18.166 16.501 -28.499s5.83398 -23.5 6.50098 -39.5c-40.667 -15.333 -81 -40 -121 -74s-78 -73 -114 -117c-22.667 -28.667 -43.834 -58 -63.501 -88s-37.834 -60.333 -54.501 -91c4 4 9 7.33301 15 10s12.333 4.83398 19 6.50098
s12.667 2.83398 18 3.50098s9 1 11 1c26 0 49.167 -5.33301 69.5 -16s38.833 -25.334 55.5 -44.001c20 -22 37.333 -47.667 52 -77s27.5 -59 38.5 -89s20.833 -58.833 29.5 -86.5s17 -50.5 25 -68.5c-28.667 60 -57.334 115.167 -86.001 165.5s-58.334 90.833 -89.001 121.5
c-16.667 16 -33.167 28.333 -49.5 37s-33.166 13 -50.499 13c-9.33301 0 -18.666 -1.83301 -27.999 -5.5s-18.666 -8.5 -27.999 -14.5s-18.333 -12.5 -27 -19.5s-16.667 -13.833 -24 -20.5c-10.667 24 -16 48 -16 72l68 104c26 38.667 55 77 87 115
c28 34 56.333 65.667 85 95s58 53.666 88 72.999c-13.333 -1.33301 -29.166 -2.33301 -47.499 -3s-35.5 -1 -51.5 -1c-21.333 0 -41.333 -1.16699 -60 -3.5s-34.334 -8.5 -47.001 -18.5c-5.33301 12 -9.33301 25 -12 39s-4.33398 27.333 -5.00098 40
c7.33301 -4.66699 46.333 -9 117 -13c19.333 -1.33301 40.5 -2.33301 63.5 -3s48.833 -1.66699 77.5 -3c7.33301 9.33301 18 18.666 32 27.999z" />
    <glyph glyph-name="bracketleft" unicode="[" horiz-adv-x="280" 
d="M137 585c16 -2.66699 32.8291 -4.50098 50.4961 -5.50098s34.334 -2 50.001 -3s29.167 -2.66699 40.5 -5s19 -6.16602 23 -11.499c-9.33301 2 -19.666 3 -30.999 3c-20.667 0 -39.167 -1.66699 -55.5 -5s-35.5 -5 -57.5 -5l-18.5 -131.5
c-7 -49.667 -14.833 -100.667 -23.5 -153s-18 -103.5 -28 -153.5s-20.333 -94.333 -31 -133c9.33301 -4.66699 18.333 -9.66699 27 -15s17.834 -10.333 27.501 -15s19.834 -8.5 30.501 -11.5s22.334 -4.5 35.001 -4.5h16c5.33301 0 10.666 0.666992 15.999 2
c-4.66699 -5.33301 -10.5 -9.5 -17.5 -12.5s-13.167 -4.5 -18.5 -4.5c-28 0 -53.5 3.33301 -76.5 10s-45.833 10 -68.5 10c-5.33301 0 -10 -0.666992 -14 -2c8 47.333 17.333 97 28 149l31.5 158.5c10.333 53.667 19.333 107.667 27 162s12.167 107.5 13.5 159.5z" />
    <glyph glyph-name="backslash" unicode="\" horiz-adv-x="250" 
d="M182 -82c0.666992 3.33301 1.16797 6.16699 1.50098 8.5s0.5 4.16602 0.5 5.49902c0 6 -0.333008 11.5 -1 16.5s-1.33398 10.833 -2.00098 17.5c-1.33301 13.333 -4.33301 33.5 -9 60.5l-16.5 91.5l-19.5 108l-19 111c-6 36 -10.833 69 -14.5 99s-5.5 54.333 -5.5 73
c0 12.667 1.5 23.5 4.5 32.5s6.66699 16.333 11 22s8.83301 9.83398 13.5 12.501s8.66699 4 12 4c8.66699 0 16.334 -4.33301 23.001 -13c-12 -1.33301 -19.333 -5.5 -22 -12.5s-4 -17.833 -4 -32.5c0 -31.333 3.83301 -69 11.5 -113s16.167 -89.667 25.5 -137
s17.833 -94 25.5 -140s11.5 -86.333 11.5 -121c0 -22.667 -2.33301 -42.667 -7 -60s-11.334 -28.333 -20.001 -33z" />
    <glyph glyph-name="bracketright" unicode="]" horiz-adv-x="280" 
d="M177 -79c-16 2.66699 -32.8311 4.5 -50.498 5.5s-34.334 2 -50.001 3s-29.167 2.66699 -40.5 5s-19 6.16602 -23 11.499c4.66699 -1.33301 9.66699 -2.16602 15 -2.49902s10.666 -0.5 15.999 -0.5c20.667 0 39.167 1.66699 55.5 5s35.5 5 57.5 5
c4.66699 38 10.667 81.833 18 131.5s15.333 100.667 24 153s18 103.5 28 153.5s20.333 94.333 31 133c-9.33301 4.66699 -18.5 9.66699 -27.5 15s-18.167 10.333 -27.5 15s-19.333 8.5 -30 11.5s-22.334 4.5 -35.001 4.5h-16c-5.33301 0 -10.666 -0.666992 -15.999 -2
c4.66699 5.33301 10.5 9.5 17.5 12.5s13.167 4.5 18.5 4.5c14 0 27.333 -1 40 -3s24.834 -4.33301 36.501 -7s23.167 -5 34.5 -7s22.666 -3 33.999 -3c5.33301 0 10 0.666992 14 2c-8 -47.333 -17.333 -97 -28 -149l-31.5 -158.5c-10.333 -53.667 -19.333 -107.667 -27 -162
s-12.167 -107.5 -13.5 -159.5z" />
    <glyph glyph-name="asciicircum" unicode="^" horiz-adv-x="661" 
d="M381 -13c26 0 48.4971 6.00098 67.4971 18.001s34.833 28 47.5 48s22.167 43.167 28.5 69.5s9.5 53.833 9.5 82.5c0 44 4.66699 88.167 14 132.5s29.666 88.166 60.999 131.499c-12 -24 -21.667 -46.833 -29 -68.5s-12.666 -42.5 -15.999 -62.5s-5.5 -39.5 -6.5 -58.5
s-1.5 -38.5 -1.5 -58.5c0 -85.333 -15.833 -151.166 -47.5 -197.499s-75.834 -69.5 -132.501 -69.5c-24.667 0 -47.334 4.16699 -68.001 12.5s-39 19 -55 32s-29.667 27.333 -41 43s-19.666 30.834 -24.999 45.501c-5.33301 -6 -12.166 -15.833 -20.499 -29.5
s-18 -27.834 -29 -42.501s-22.833 -27.5 -35.5 -38.5s-26.334 -16.5 -41.001 -16.5c-5.33301 0 -11.666 2 -18.999 6s-12 9 -14 15c16.667 2 31.5 7.16699 44.5 15.5s24.667 18.166 35 29.499s20.166 23.5 29.499 36.5l28 38.5c-12.667 2 -25 5.66699 -37 11
s-22.667 12.666 -32 21.999s-16.833 20.5 -22.5 33.5s-8.5 28.167 -8.5 45.5c0 28.667 4.33301 52.5 13 71.5s20.334 34.667 35.001 47s31.167 21.833 49.5 28.5s37.333 11.834 57 15.501s38.834 6.5 57.501 8.5s35.667 4.66699 51 8c30 6 59.667 15.167 89 27.5
s57.5 27.166 84.5 44.499s52.333 36.333 76 57s44.834 42.334 63.501 65.001c-17.333 -26.667 -37.333 -52.5 -60 -77.5s-47.334 -47.5 -74.001 -67.5s-54.334 -36.667 -83.001 -50s-57.667 -22 -87 -26c-14.667 -2 -30.667 -3.33301 -48 -4s-35 -2 -53 -4
s-35.333 -5.5 -52 -10.5s-31.5 -13 -44.5 -24s-23.5 -25.667 -31.5 -44s-12 -41.5 -12 -69.5c0 -25.333 7 -46.833 21 -64.5s32.333 -29.834 55 -36.501c10.667 18 24.334 36.5 41.001 55.5s34.834 36.167 54.501 51.5s39.834 28.333 60.501 39s40.667 17 60 19
c-39.333 -18 -75 -42.667 -107 -74s-60.667 -65 -86 -101c14.667 -33.333 38.667 -60.166 72 -80.499s71.333 -30.5 114 -30.5z" />
    <glyph glyph-name="underscore" unicode="_" horiz-adv-x="527" 
d="M-5 -14c4.66699 -3.33301 12.1689 -6.16699 22.502 -8.5s21.833 -3.5 34.5 -3.5h74c17.333 0 36.833 0.333008 58.5 1s43.167 1.16699 64.5 1.5s41.666 0.833008 60.999 1.5s35.333 1 48 1c42 0 76 -1.16699 102 -3.5s43.333 -8.5 52 -18.5
c-14 -1.33301 -33.5 -2.83301 -58.5 -4.5s-52.167 -3.33398 -81.5 -5.00098s-59.5 -3.16699 -90.5 -4.5s-59.5 -2.66602 -85.5 -3.99902s-47.667 -2.33301 -65 -3s-27 -1 -29 -1c-40.667 0 -68.834 3.83301 -84.501 11.5s-23.5 19.5 -23.5 35.5c0 2 0.333008 3.33301 1 4z
" />
    <glyph glyph-name="grave" unicode="`" horiz-adv-x="141" 
d="M68 457c22.667 0 41.4971 -8.33398 56.4971 -25.001s28.833 -41 41.5 -73c-19.333 0 -34.666 3.83301 -45.999 11.5s-20.166 16.834 -26.499 27.501s-11.166 21.5 -14.499 32.5s-7 19.833 -11 26.5z" />
    <glyph glyph-name="a" unicode="a" 
d="M238 323c16 -3.33301 31.0029 -9.33301 45.0029 -18s22.667 -19 26 -31c-8.66699 -13.333 -17.5 -29.333 -26.5 -48l-26.5 -57c-6.66699 -18 -12.5 -35.167 -17.5 -51.5s-7.5 -30.5 -7.5 -42.5c0 -20 5.5 -38.667 16.5 -56s27.5 -26 49.5 -26
c-2 -4.66699 -6.5 -7.83398 -13.5 -9.50098s-12.5 -2.5 -16.5 -2.5c-28 0 -47.333 7 -58 21s-16 31.333 -16 52c0 12 1.33301 23.333 4 34c-1.33301 0 -5.33301 -5 -12 -15s-15.334 -21.167 -26.001 -33.5s-22.834 -23.5 -36.501 -33.5s-27.834 -15 -42.501 -15
c-8.66699 0 -16.167 2.33301 -22.5 7s-11.5 10.834 -15.5 18.501s-7 15.834 -9 24.501s-3 17 -3 25c0 25.333 6 50.666 18 75.999s27.333 49.333 46 72c20.667 24.667 43.667 46.5 69 65.5s50.333 33.5 75 43.5zM67.0029 17c10.667 0 23.834 6.16895 39.501 18.502
s31.167 27 46.5 44s29.5 34.833 42.5 53.5s22.167 34 27.5 46c3.33301 7.33301 6.66602 15.666 9.99902 24.999s6.5 18.666 9.5 27.999s5.5 18.5 7.5 27.5s3.66699 16.833 5 23.5c-19.333 -9.33301 -40 -22.333 -62 -39s-42.667 -36 -62 -58
c-22 -24.667 -40.333 -50.667 -55 -78s-22 -54.333 -22 -81c0 -6.66699 4.33301 -10 13 -10z" />
    <glyph glyph-name="b" unicode="b" horiz-adv-x="312" 
d="M17 8c3.33301 -1.33301 8.00195 -2.49805 14.002 -3.49805s14.667 -1.5 26 -1.5c9.33301 0 20.166 2.66699 32.499 8s25.166 12.833 38.499 22.5s26.833 20.834 40.5 33.501s26.5 26.667 38.5 42c18.667 23.333 34 48.166 46 74.499s18 52.5 18 78.5
c0 8.66699 -1.33301 15.667 -4 21s-5.66699 9.5 -9 12.5s-6.5 5.16699 -9.5 6.5s-4.83301 2 -5.5 2c-22.667 -1.33301 -42.667 -7 -60 -17s-32.333 -23 -45 -39c-10.667 -12.667 -21.334 -39.667 -32.001 -81l-40 -150c-20 7.33301 -31.667 20.666 -35 39.999
c3.33301 10.667 8.16602 27.5 14.499 50.5s13.333 50.333 21 82s15.5 66 23.5 103s15.5 74.667 22.5 113s13 76.166 18 113.499s8.16699 72 9.5 104c6.66699 -6.66699 11.167 -18.5 13.5 -35.5s3.5 -36.833 3.5 -59.5c0 -25.333 -1.16699 -52.5 -3.5 -81.5s-5 -56 -8 -81
s-5.66699 -46.167 -8 -63.5s-3.83301 -27 -4.5 -29c9.33301 11.333 19 20.5 29 27.5s19.833 12.5 29.5 16.5s18.334 6.83301 26.001 8.5s13.5 2.5 17.5 2.5c28.667 0 49.167 -8 61.5 -24s18.5 -37.333 18.5 -64c0 -20.667 -5.83301 -46.667 -17.5 -78s-29.5 -61 -53.5 -89
c-20.667 -24 -45.167 -44.333 -73.5 -61s-61.5 -25 -99.5 -25c-21.333 0 -35.166 1.5 -41.499 4.5s-10.5 8.5 -12.5 16.5z" />
    <glyph glyph-name="c" unicode="c" horiz-adv-x="276" 
d="M202 322c28.667 0 50.002 -5.83203 64.002 -17.499s21 -23.834 21 -36.501c0 -8 -2.16699 -15 -6.5 -21s-10.5 -9.66699 -18.5 -11c0 14.667 -5.83301 27.167 -17.5 37.5s-22.834 15.5 -33.501 15.5c-17.333 0 -33.833 -6.66699 -49.5 -20s-29.5 -30 -41.5 -50
c-13.333 -22 -24 -46 -32 -72s-12 -50.333 -12 -73c0 -16 2.33301 -30.167 7 -42.5s14 -18.5 28 -18.5c15.333 0 31 3 47 9s31 14 45 24c13.333 9.33301 25.666 19.666 36.999 30.999s21 22.333 29 33c-2.66699 -10.667 -9.16699 -23 -19.5 -37s-22.833 -26.667 -37.5 -38
c-16 -12.667 -33.5 -22.834 -52.5 -30.501s-36.167 -11.5 -51.5 -11.5c-14.667 0 -27.167 3.5 -37.5 10.5s-18.833 16 -25.5 27s-11.5 23.5 -14.5 37.5s-4.5 28 -4.5 42c0 22.667 4.33301 45.834 13 69.501s20.667 45.834 36 66.501c16 22 35 40.167 57 54.5
s45.333 21.5 70 21.5z" />
    <glyph glyph-name="d" unicode="d" horiz-adv-x="276" 
d="M373 625c-4 -16 -9.49707 -36.832 -16.4971 -62.499s-15 -53.5 -24 -83.5l-27.5 -94l-26 -94c-8 -30 -15 -57.5 -21 -82.5s-10 -45.167 -12 -60.5c-2.66699 -14 -5 -29.5 -7 -46.5s-3 -32.833 -3 -47.5c0 -15.333 1.66699 -27.833 5 -37.5s9 -14.5 17 -14.5
c9.33301 0 16.833 1.83301 22.5 5.5s10.5 7.5 14.5 11.5c-1.33301 -8.66699 -6.66602 -16.5 -15.999 -23.5s-20.333 -10.5 -33 -10.5c-16.667 0 -28.834 7.16699 -36.501 21.5s-11.5 34.5 -11.5 60.5c0 12 1 26 3 42c-6 -10.667 -13.333 -22.5 -22 -35.5
s-18.334 -25.333 -29.001 -37s-21.667 -21.5 -33 -29.5s-22.666 -12.667 -33.999 -14c-22.667 4 -39.334 11.667 -50.001 23s-16 25.333 -16 42c0 30.667 7.33301 62.167 22 94.5s32.667 60.833 54 85.5c2.66699 4 8 10.333 16 19s17 17.667 27 27s20.167 18 30.5 26
s19.166 13 26.499 15c7.33301 0 16 -1 26 -3s17.667 -3.66699 23 -5l11 38l15 52l17 58.5l17 58l15 49.5l11 34c6 3.33301 13.167 6.66602 21.5 9.99902s16.166 6 23.499 8zM73.0029 24.001c8 0 16.834 4.33496 26.501 13.002s19.5 19.167 29.5 31.5s19.333 25.333 28 39
s15.667 25.5 21 35.5c5.33301 9.33301 11.5 21.166 18.5 35.499s13.5 28.833 19.5 43.5s11.167 28.5 15.5 41.5s6.5 22.833 6.5 29.5c0 3.33301 -1.66699 5 -5 5c-9.33301 0 -18.833 -2.5 -28.5 -7.5s-19.167 -11.5 -28.5 -19.5s-18.333 -17.167 -27 -27.5
s-16.334 -20.5 -23.001 -30.5c-8.66699 -11.333 -17.167 -23.666 -25.5 -36.999s-16 -27.333 -23 -42s-12.667 -29.334 -17 -44.001s-6.5 -28.334 -6.5 -41.001c0 -6 1.33301 -11.667 4 -17s7.66699 -8 15 -8z" />
    <glyph glyph-name="e" unicode="e" horiz-adv-x="304" 
d="M189 323c11.333 0 22.8311 -1.16992 34.498 -3.50293s22.334 -6.16602 32.001 -11.499s18 -12 25 -20s11.5 -18 13.5 -30c-3.33301 -14 -10.5 -29 -21.5 -45s-24 -30.833 -39 -44.5s-31.5 -24.834 -49.5 -33.501s-35.333 -13 -52 -13c-10 0 -19 1.83301 -27 5.5
s-14 7.5 -18 11.5c-2.66699 -2.66699 -6.66699 -11.334 -12 -26.001s-8 -29.667 -8 -45c0 -18 6 -30.833 18 -38.5s25.667 -11.5 41 -11.5s34.333 5 57 15s45.334 23.667 68.001 41c17.333 13.333 33.833 28.5 49.5 45.5s27.834 35.167 36.501 54.5
c-5.33301 -26.667 -14.166 -50.167 -26.499 -70.5s-27.5 -38.166 -45.5 -53.499c-22.667 -19.333 -46.334 -34.166 -71.001 -44.499s-46.334 -15.5 -65.001 -15.5c-19.333 0 -35.333 2.83301 -48 8.5s-23 13.334 -31 23.001s-13.667 20.667 -17 33s-5 25.166 -5 38.499
c0 26.667 7 54.834 21 84.501s34 58.834 60 87.501c12.667 14 25.667 26.333 39 37s27 17.667 41 21zM94.998 158.997c1.33301 -2.66699 5.00098 -4.83301 11.001 -6.5s10.667 -2.5 14 -2.5c6 0 16.167 2.66699 30.5 8s29.166 12.666 44.499 21.999
s28.833 20.666 40.5 33.999s17.5 28 17.5 44c0 7.33301 -3.5 14.833 -10.5 22.5s-13.833 11.834 -20.5 12.501c-12 -1.33301 -24.5 -7.66602 -37.5 -18.999s-25.5 -24 -37.5 -38c-12 -14.667 -22.667 -29 -32 -43s-16 -25.333 -20 -34z" />
    <glyph glyph-name="f" unicode="f" horiz-adv-x="214" 
d="M270 617c25.333 0 44.9951 -7.50488 58.9951 -22.5049s21 -37.5 21 -67.5c0 -26 -4.33301 -50.667 -13 -74s-20.667 -45.333 -36 -66c-20 -26 -44.333 -48.833 -73 -68.5s-60 -36.167 -94 -49.5l-4 -25c14 -3.33301 32.5 -6.83301 55.5 -10.5l85.5 -13.5
c-12 -1.33301 -22.5 -2.33301 -31.5 -3s-17.833 -1 -26.5 -1c-15.333 0 -29.166 0.833008 -41.499 2.5s-26.166 3.83398 -41.499 6.50098c-1.33301 -7.33301 -2.83301 -19.666 -4.5 -36.999l-5.5 -60l-6.5 -72c-2.33301 -25.333 -4.5 -50.333 -6.5 -75
s-4.16699 -47.667 -6.5 -69s-4.5 -38.666 -6.5 -51.999c-1.33301 -12 -6 -27.833 -14 -47.5s-20 -39.167 -36 -58.5c-1.33301 8.66699 -2 18 -2 28v33c0 34 1.16699 72.5 3.5 115.5s5 84.333 8 124s6.16699 75 9.5 106s6 52.167 8 63.5
c-15.333 0.666992 -27.666 1.66699 -36.999 3s-16.666 2.83301 -21.999 4.5s-8.83301 3.66699 -10.5 6s-2.5 5.16602 -2.5 8.49902c0 8.66699 3 15.667 9 21c3.33301 -10 11.833 -16.167 25.5 -18.5s27.5 -3.5 41.5 -3.5c1.33301 13.333 3.83301 29.833 7.5 49.5
s8.33398 40.834 14.001 63.501s12.334 46 20.001 70s16.167 47 25.5 69c8 16.667 16.5 32.334 25.5 47.001s18.667 27.334 29 38.001s21.666 19.167 33.999 25.5s25.5 9.5 39.5 9.5zM280.995 591.995c-24.667 0 -44.9971 -10.665 -60.9971 -31.998s-29.333 -47 -40 -77
c-6 -17.333 -11.167 -35.5 -15.5 -54.5s-8.33301 -37.5 -12 -55.5s-6.83398 -34.833 -9.50098 -50.5s-5.33398 -29.167 -8.00098 -40.5c30 12 58.167 27.5 84.5 46.5s48.166 42.5 65.499 70.5c24.667 36 37 77.333 37 124c0 8 -0.5 16.167 -1.5 24.5s-3 15.666 -6 21.999
s-7.16699 11.666 -12.5 15.999s-12.333 6.5 -21 6.5z" />
    <glyph glyph-name="g" unicode="g" horiz-adv-x="288" 
d="M105 -5c-25.333 0 -45.668 7.50293 -61.001 22.5029s-23 34.833 -23 59.5c0 23.333 4.83301 47.666 14.5 72.999s23.834 49.333 42.501 72c18 22.667 39.667 42.667 65 60s53.333 29.333 84 36c9.33301 -1.33301 19.166 -3 29.499 -5s18.833 -4.33301 25.5 -7
c0.666992 -9.33301 1 -18.833 1 -28.5v-30.5c0 -26.667 -0.833008 -54.834 -2.5 -84.501s-3.83398 -59.167 -6.50098 -88.5s-5.66699 -57.833 -9 -85.5s-6.66602 -52.5 -9.99902 -74.5c-8.66699 -54 -27 -94.333 -55 -121c-16 -14.667 -36 -25.667 -60 -33s-54 -11 -90 -11
c-9.33301 0 -19.166 1.66699 -29.499 5s-19.833 8 -28.5 14s-16 13.167 -22 21.5s-9 17.833 -9 28.5c0 14.667 3.33301 28.167 10 40.5s17.667 21.833 33 28.5c-4.66699 -9.33301 -7.83398 -19.5 -9.50098 -30.5s-2.5 -21.833 -2.5 -32.5
c0 -11.333 5.5 -21.666 16.5 -30.999s30.833 -14 59.5 -14c14.667 0 30.334 3.16699 47.001 9.5s32.667 17.5 48 33.5c12.667 12.667 23.667 28.167 33 46.5s16 41.5 20 69.5c0.666992 2 1.83398 9.5 3.50098 22.5l5.5 43c2 15.667 3.83301 31 5.5 46l3.5 31.5
c-4.66699 -6.66699 -9.83398 -13.334 -15.501 -20.001s-12.167 -13.334 -19.5 -20.001c-14 -12.667 -29 -23.5 -45 -32.5s-32.333 -13.5 -49 -13.5zM87.998 14.0029c11.333 0 25.8301 5.83594 43.4971 17.5029s34.834 25.834 51.501 42.501
c12.667 13.333 23.5 26.666 32.5 39.999s14.833 25.333 17.5 36c2 10 3.83301 23.333 5.5 40s2.5 32.667 2.5 48c0 12 -0.833008 22.667 -2.5 32s-4.83398 15.666 -9.50098 18.999c-6 0 -13.5 -2.66699 -22.5 -8s-18.667 -12.333 -29 -21s-21.166 -18.834 -32.499 -30.501
s-22.333 -23.834 -33 -36.501c-16.667 -21.333 -30.667 -43.333 -42 -66s-17 -43.667 -17 -63c0 -4.66699 0.333008 -10 1 -16s2.33398 -11.5 5.00098 -16.5s6.33398 -9.16699 11.001 -12.5s10.667 -5 18 -5z" />
    <glyph glyph-name="h" unicode="h" horiz-adv-x="299" 
d="M234 323c12 0 22.1787 -2.17188 30.5117 -6.50488s15.166 -10.166 20.499 -17.499s9.16602 -15.666 11.499 -24.999s3.5 -19 3.5 -29c0 -18.667 -2.16699 -37 -6.5 -55s-9.16602 -35 -14.499 -51l-15 -43.5c-4.66699 -13 -7.33398 -23.833 -8.00098 -32.5
c-2.66699 -10.667 -4 -22.334 -4 -35.001c0 -10 1 -18 3 -24s5.66699 -9 11 -9c6 0 11.5 1.5 16.5 4.5s11.5 9.83301 19.5 20.5c-6.66699 -17.333 -14.5 -28.833 -23.5 -34.5s-17.5 -8.5 -25.5 -8.5c-4.66699 0 -9.83398 0.833008 -15.501 2.5s-10.834 4.66699 -15.501 9
s-8.66699 10.5 -12 18.5s-5 18.667 -5 32c0 6.66699 1 15.667 3 27c4 29.333 8.16699 54.833 12.5 76.5l11.5 56.5l8.5 40.5c2.33301 11 3.5 20.5 3.5 28.5c0 11.333 -4.33301 17 -13 17c-10.667 0 -21.334 -4.5 -32.001 -13.5s-21.334 -20.5 -32.001 -34.5
c-12.667 -19.333 -24.834 -41 -36.501 -65s-22.334 -47.833 -32.001 -71.5s-17.834 -45.167 -24.501 -64.5s-11.334 -34 -14.001 -44c-8 2.66699 -16.333 6 -25 10s-15.334 9 -20.001 15c0.666992 2.66699 2.16699 10.334 4.5 23.001l8.5 44.5l11 55
c4 19.667 7.66699 38.5 11 56.5s6.5 33.667 9.5 47s5.16699 22.333 6.5 27c8 38.667 16.833 75.834 26.5 111.501l27.5 99.5l32 113.5c9.33301 31.667 15.666 54.167 18.999 67.5c16 -8 24 -23 24 -45c0 -2.66699 -0.166992 -5.5 -0.5 -8.5s-0.833008 -6.16699 -1.5 -9.5
c-4 -25.333 -8.66699 -49.5 -14 -72.5s-11.333 -45.833 -18 -68.5l-32 -116.5c-11.333 -39.667 -21.333 -85.5 -30 -137.5c8 16.667 18 32.334 30 47.001s24.333 27.334 37 38.001s25 19 37 25s22.333 9 31 9z" />
    <glyph glyph-name="i" unicode="i" horiz-adv-x="151" 
d="M117 323c18 -3.33301 30.6709 -9.99805 38.0039 -19.998c-15.333 -28.667 -27.833 -56.334 -37.5 -83.001s-17.5 -51.334 -23.5 -74.001c-9.33301 -41.333 -14 -73 -14 -95c0 -10 0.833008 -18.167 2.5 -24.5s4.5 -9.5 8.5 -9.5c7.33301 0 14.666 3.16699 21.999 9.5
s14.5 14 21.5 23s13.167 18.667 18.5 29s9.66602 19.833 12.999 28.5c0.666992 -2 1 -6.33301 1 -13c0 -9.33301 -2 -19.333 -6 -30s-9.66699 -21 -17 -31s-16 -19.167 -26 -27.5s-21 -14.5 -33 -18.5c-19.333 0 -34 9.5 -44 28.5s-15 40.5 -15 64.5c0 28 5.66699 59 17 93
c9.33301 28 20.666 55 33.999 81s26.666 49 39.999 69zM169.004 577.002c12.667 0 22.499 -4.50098 29.499 -13.501s10.5 -18.5 10.5 -28.5c0 -11.333 -2.16699 -22.5 -6.5 -33.5s-9.5 -22.167 -15.5 -33.5l-17 -35c-5.33301 -11.333 -9.66602 -22.666 -12.999 -33.999
c-8 2.66699 -13.5 9 -16.5 19s-4.5 21.333 -4.5 34c0 12 1.33301 23.5 4 34.5l8 31.5l13 34.5c4 10.333 6.66699 18.5 8 24.5z" />
    <glyph glyph-name="j" unicode="j" horiz-adv-x="126" 
d="M145 577c12.667 0 22.334 -4.5 29.001 -13.5s10 -18.5 10 -28.5c0 -9.33301 -1.5 -18.833 -4.5 -28.5s-6.83301 -19.5 -11.5 -29.5l-20 -39.5c-6.66699 -13 -11.667 -25.833 -15 -38.5c-8 2.66699 -13.5 9 -16.5 19s-4.5 21.333 -4.5 34c0 12 1.16699 23.333 3.5 34
s4.83301 21 7.5 31c4.66699 13.333 9.16699 25 13.5 35s7.16602 18.333 8.49902 25zM82 321c17.333 -1.33301 31.9941 -7.33594 43.9941 -18.0029c-4 -13.333 -7.66699 -28.666 -11 -45.999s-6.16602 -35.166 -8.49902 -53.499s-4.16602 -36.333 -5.49902 -54
s-2 -33.5 -2 -47.5c0 -34 1.33301 -66.167 4 -96.5s4 -62.833 4 -97.5c0 -20 -1.33301 -41.667 -4 -65s-10.334 -42.333 -23.001 -57c-9.33301 -11.333 -20.5 -20.5 -33.5 -27.5s-26.5 -10.5 -40.5 -10.5c-11.333 0 -22.666 1.33301 -33.999 4s-21.833 6.66699 -31.5 12
s-17.5 12 -23.5 20s-9 17.667 -9 29c0 15.333 2.66699 29.833 8 43.5s11.333 24.167 18 31.5c-0.666992 -6 -1.16699 -11.667 -1.5 -17s-0.5 -10.666 -0.5 -15.999c0 -20 3 -36.667 9 -50s15.667 -20 29 -20c16.667 0 30.334 3.5 41.001 10.5s19.334 16.5 26.001 28.5
c8.66699 15.333 14.334 32.333 17.001 51s4 34.667 4 48c0 17.333 -0.666992 35.666 -2 54.999l-4 59l-4 58.5c-1.33301 19 -2 36.5 -2 52.5c0 8.66699 0.5 19.834 1.5 33.501s2.83301 28.334 5.5 44.001s6.33398 31.667 11.001 48s10.667 32.166 18 47.499z" />
    <glyph glyph-name="k" unicode="k" horiz-adv-x="262" 
d="M120 661c15.333 0 26.3359 -8.66309 33.0029 -25.9961s10 -41 10 -71c0 -21.333 -1.33301 -45 -4 -71s-6.33398 -54 -11.001 -84c-9.33301 -56.667 -19 -108.5 -29 -155.5s-18 -88.5 -24 -124.5c20 12.667 38.833 27.834 56.5 45.501s33.834 35.834 48.501 54.501
c15.333 21.333 28.333 42.833 39 64.5s17.334 41.5 20.001 59.5c14.667 -16.667 22 -35 22 -55c0 -16.667 -4.5 -33.5 -13.5 -50.5s-20.167 -33.167 -33.5 -48.5c-14.667 -16.667 -29.834 -31.834 -45.501 -45.501s-29.5 -24.5 -41.5 -32.5
c10.667 -1.33301 20.334 -5.33301 29.001 -12s16.667 -14.334 24 -23.001c6.66699 -8 13.167 -16.333 19.5 -25s12.666 -16.834 18.999 -24.501s13.333 -13.834 21 -18.501s16.5 -7 26.5 -7c8.66699 0 18.667 1.66699 30 5c-12.667 -10 -24.334 -17.333 -35.001 -22
s-20 -7 -28 -7c-8.66699 0 -16.334 1.66699 -23.001 5s-13 7.66602 -19 12.999c-15.333 12.667 -31 27 -47 43s-36.333 28.333 -61 37c-4.66699 0 -8.33398 -0.833008 -11.001 -2.5s-5.66699 -3.83398 -9 -6.50098c-5.33301 -19.333 -13.833 -38.5 -25.5 -57.5
s-27.167 -31.5 -46.5 -37.5l4 19.5c2 9.66699 4.33301 21.667 7 36l9 48l10 55.5l16 89.5l15 86l12.5 72c3.66699 21 6.5 36.5 8.5 46.5l19 134c5.33301 39.333 8 70.333 8 93z" />
    <glyph glyph-name="l" unicode="l" horiz-adv-x="133" 
d="M104 184c-0.666992 -7.33301 -2.00098 -17.333 -4.00098 -30s-4 -26.167 -6 -40.5s-3.66699 -28.666 -5 -42.999s-2 -26.833 -2 -37.5c0 -20 2.66699 -30 8 -30c4.66699 0 9.5 1.83301 14.5 5.5s10 8 15 13s9.66699 10.333 14 16s7.5 10.167 9.5 13.5
c-2.66699 -19.333 -10 -35.166 -22 -47.499s-25 -18.5 -39 -18.5c-19.333 0 -32.5 5.66699 -39.5 17s-10.5 28.333 -10.5 51c0 13.333 1 28.166 3 44.499s4.66699 35.166 8 56.499c6 38 14 76.333 24 115s21 77 33 115l45.5 147.5c14.333 46.333 24.833 89.833 31.5 130.5
c10 -23.333 15 -48.333 15 -75c0 -8.66699 -0.5 -17.167 -1.5 -25.5s-1.83301 -16.833 -2.5 -25.5c-2.66699 -13.333 -8.16699 -36 -16.5 -68l-28.5 -106l-26.5 -99.5c-8.33301 -32.333 -14.166 -58.5 -17.499 -78.5z" />
    <glyph glyph-name="m" unicode="m" horiz-adv-x="381" 
d="M95 232c8 12 16.001 23.333 24.001 34s16.167 20.167 24.5 28.5s17 15 26 20s18.5 7.5 28.5 7.5c20.667 0 33.5 -4.83301 38.5 -14.5s7.5 -21.834 7.5 -36.501c8.66699 14 18.667 25.5 30 34.5s24 13.5 38 13.5c12 0 22.167 -3 30.5 -9s14.833 -14 19.5 -24
s8 -21.833 10 -35.5s3 -28.167 3 -43.5c0 -20.667 -1.33301 -42 -4 -64s-6 -43.833 -10 -65.5s-8.33301 -42.834 -13 -63.501s-8.66699 -39.667 -12 -57c-6 2 -11.833 4.33301 -17.5 7s-11.5 6.33398 -17.5 11.001l20.5 119.5c7 41.667 10.5 79.5 10.5 113.5
c0 20.667 -1.83301 39.5 -5.5 56.5s-8.83398 27.833 -15.501 32.5c-23.333 -14.667 -41.166 -33.667 -53.499 -57s-22.5 -48.333 -30.5 -75c-4.66699 -13.333 -11 -32.666 -19 -57.999s-19 -57 -33 -95c-6 0.666992 -12.5 2.5 -19.5 5.5s-13.833 6.83301 -20.5 11.5
c8.66699 22 17.5 45.833 26.5 71.5s16.833 50.5 23.5 74.5c5.33301 20.667 9.66602 39.667 12.999 57s5 32 5 44c0 13.333 -2.33301 22.333 -7 27c-28 -17.333 -50.167 -38.833 -66.5 -64.5s-29.5 -53.5 -39.5 -83.5c-10.667 -32 -19.834 -63.333 -27.501 -94l-22.5 -86
c-11.333 4 -23.333 13 -36 27c2.66699 18 7.33398 38.5 14.001 61.5l21 72.5l21.5 77c7 26 12.167 51.333 15.5 76c2 8.66699 3 17.667 3 27c0 12 -2 22.333 -6 31s-11 15.334 -21 20.001c16 -1.33301 29.333 -6.5 40 -15.5s16 -25.167 16 -48.5
c0 -20.667 -4.33301 -44.334 -13 -71.001z" />
    <glyph glyph-name="n" unicode="n" horiz-adv-x="265" 
d="M64 -27c-8 1.33301 -16.499 3.83496 -25.499 7.50195s-16.167 8.16699 -21.5 13.5c3.33301 15.333 7.66602 34 12.999 56s10.333 45 15 69c5.33301 28 10 55.5 14 82.5s6 51.167 6 72.5c0 17.333 -2.33301 32.833 -7 46.5s-12.667 25.167 -24 34.5
c26 -3.33301 43.667 -12.5 53 -27.5s14 -32.5 14 -52.5c0 -8 -0.666992 -16.333 -2 -25s-3 -17.334 -5 -26.001c6 13.333 12.333 25.833 19 37.5s14.167 21.667 22.5 30s18.166 15 29.499 20s25 7.5 41 7.5c21.333 0 35.666 -9.16699 42.999 -27.5s11 -40.833 11 -67.5
c0 -13.333 -0.5 -26.5 -1.5 -39.5s-2.16699 -26.167 -3.5 -39.5c-4 -28 -9.66699 -55.333 -17 -82s-17.666 -50.667 -30.999 -72c-7.33301 2.66699 -14.833 7 -22.5 13s-12.834 12 -15.501 18c6.66699 21.333 12.834 43.166 18.501 65.499s10.5 44.833 14.5 67.5
c0 2.66699 0.333008 8 1 16s1.5 17 2.5 27s2 20.833 3 32.5s1.5 22.5 1.5 32.5c0 10.667 -0.666992 19.667 -2 27s-3.33301 11 -6 11c-9.33301 0 -18.5 -4 -27.5 -12s-17.167 -17.333 -24.5 -28s-13.5 -21.667 -18.5 -33s-8.5 -20 -10.5 -26
c-6.66699 -15.333 -12.667 -31 -18 -47s-9.66602 -32.333 -12.999 -49c-5.33301 -22.667 -10 -45.167 -14 -67.5z" />
    <glyph glyph-name="o" unicode="o" horiz-adv-x="327" 
d="M129 -11c-34.667 0 -61.167 9.83301 -79.5 29.5s-27.5 45.5 -27.5 77.5c0 25.333 7.16699 54.5 21.5 87.5s34.166 63.5 59.499 91.5c12.667 15.333 26.5 27.666 41.5 36.999s30.833 14 47.5 14c19.333 0 37 -3.5 53 -10.5s29.833 -16.5 41.5 -28.5s20.667 -26 27 -42
s9.5 -33 9.5 -51c0 -24 -5.16699 -47.667 -15.5 -71s-24.166 -44.666 -41.499 -63.999c-18.667 -20.667 -40 -37.5 -64 -50.5s-48.333 -19.5 -73 -19.5zM107 25c25.333 0 48.999 6.33496 70.999 19.002s41 28.667 57 48c14 17.333 25.167 36 33.5 56s12.5 39.667 12.5 59
c0 21.333 -4.83301 40.166 -14.5 56.499s-26.5 24.5 -50.5 24.5c-12.667 0 -25.667 -4.33301 -39 -13s-26.666 -20 -39.999 -34c-11.333 -12 -21.833 -25.167 -31.5 -39.5s-18.167 -28.833 -25.5 -43.5s-13.166 -28.834 -17.499 -42.501s-6.5 -26.167 -6.5 -37.5
c0 -14.667 3.66699 -27.167 11 -37.5s20.666 -15.5 39.999 -15.5z" />
    <glyph glyph-name="p" unicode="p" horiz-adv-x="272" 
d="M106 -7c-16.667 0 -32 3.33301 -46 10l-21 -141.5c-6.66699 -44.333 -13.667 -86.5 -21 -126.5c-12 4.66699 -20.667 11.5 -26 20.5s-8 19.167 -8 30.5c0 6.66699 0.333008 11 1 13l28 185l13.5 88c4.33301 29.333 8.16602 57 11.499 83s6 49.833 8 71.5s3 39.5 3 53.5
v11.5c0 3 -0.333008 6.16699 -1 9.5c9.33301 -6.66699 17.166 -17.667 23.499 -33s9.5 -30.333 9.5 -45c12.667 25.333 27.667 46 45 62s41.333 27.333 72 34c14.667 0 26.667 -3.5 36 -10.5s16.5 -15.833 21.5 -26.5s8.33301 -21.834 10 -33.501s2.5 -22.5 2.5 -32.5
c0 -16 -1.5 -32.333 -4.5 -49s-7 -32.834 -12 -48.501s-10.667 -30.167 -17 -43.5s-13.166 -24.666 -20.499 -33.999c-12 -15.333 -26.667 -27.166 -44 -35.499s-38.666 -12.5 -63.999 -12.5zM68 29c46.667 6 84.334 23.333 113.001 52c20.667 20.667 36 44.5 46 71.5
s15 55.5 15 85.5c0 12 -2.16699 23 -6.5 33s-12.833 15 -25.5 15c-14.667 0 -29.167 -4.5 -43.5 -13.5s-27.333 -20 -39 -33s-21.5 -26.5 -29.5 -40.5s-13 -26 -15 -36c-2.66699 -22 -5.83398 -44.333 -9.50098 -67s-5.5 -45 -5.5 -67z" />
    <glyph glyph-name="q" unicode="q" horiz-adv-x="262" 
d="M239 323c14 0 24.835 -2.16602 32.502 -6.49902s13.834 -9.5 18.501 -15.5c-10 4.66699 -21.667 7 -35 7c-23.333 0 -47 -7.66699 -71 -23s-45.667 -34.666 -65 -57.999c-21.333 -25.333 -38.833 -52.833 -52.5 -82.5s-20.5 -57.834 -20.5 -84.501
c0 -8.66699 1.5 -16.834 4.5 -24.501s8.5 -11.5 16.5 -11.5c10 0 20.167 3.66699 30.5 11s20.833 16.333 31.5 27c13.333 14.667 26.166 30.334 38.499 47.001s21.833 30 28.5 40c12.667 19.333 24 41.5 34 66.5s17.333 47.5 22 67.5c6.66699 0 13.5 -0.666992 20.5 -2
s11.833 -4 14.5 -8c-20.667 -62.667 -40.834 -128 -60.501 -196s-34.834 -136 -45.501 -204c-2 -12 -3.83301 -25.333 -5.5 -40s-2.5 -27.667 -2.5 -39c0 -16 2 -24 6 -24c3.33301 0 6.5 2.66699 9.5 8s5.16699 11.333 6.5 18c0.666992 -2 1 -6.66699 1 -14
c0 -8 -2 -15.667 -6 -23s-10.333 -11 -19 -11c-12 0 -20.333 6 -25 18s-7 26.667 -7 44c0 22 2 45.667 6 71c4 34 10.333 68.667 19 104s18.667 70 30 104c-6.66699 -9.33301 -14 -18.5 -22 -27.5s-16.333 -17.5 -25 -25.5c-12 -10.667 -24.833 -19.334 -38.5 -26.001
s-26.5 -10 -38.5 -10c-4 0 -9.16699 1 -15.5 3s-12.5 5.5 -18.5 10.5s-11.333 12 -16 21s-7 20.5 -7 34.5c0 36 7.5 69.5 22.5 100.5s34.167 57.833 57.5 80.5c22.667 22.667 47.167 40.5 73.5 53.5s50.5 19.5 72.5 19.5z" />
    <glyph glyph-name="r" unicode="r" horiz-adv-x="190" 
d="M251 337c8.66699 0 18.6709 -1.00098 30.0039 -3.00098c-28.667 -6.66699 -53.834 -17.5 -75.501 -32.5s-40.834 -33.167 -57.501 -54.5c-12.667 -16.667 -23.834 -34.167 -33.501 -52.5s-18.167 -37.5 -25.5 -57.5c-8 -21.333 -14.5 -43.166 -19.5 -65.499
s-9.16699 -44.5 -12.5 -66.5c-0.666992 -4 -1.16699 -7.66699 -1.5 -11s-0.5 -6.33301 -0.5 -9c0 -6 1 -10 3 -12c-2 -2 -4.66699 -3 -8 -3c-12 0 -19.833 6.83301 -23.5 20.5s-5.5 29.5 -5.5 47.5c0 18.667 1.33301 38.5 4 59.5s6 42.5 10 64.5
c4.66699 25.333 9.83398 50.5 15.501 75.5l16.5 72.5c6 -4 10.167 -11.333 12.5 -22s3.5 -22 3.5 -34c0 -14 -1 -25.333 -3 -34c12 22 27.333 42.333 46 61c17.333 17.333 36.666 31 57.999 41s43.666 15 66.999 15z" />
    <glyph glyph-name="s" unicode="s" horiz-adv-x="195" 
d="M228 288c-14 0 -29.334 -2.66699 -46.001 -8s-32.667 -13.333 -48 -24c-19.333 -12 -35.833 -27 -49.5 -45s-20.5 -37 -20.5 -57c0 -10 4.33301 -21 13 -33s19 -24.333 31 -37c14.667 -15.333 29.667 -30 45 -44s28 -26 38 -36
c-13.333 -10.667 -30.166 -20.667 -50.499 -30s-41.166 -17 -62.499 -23c-15.333 -4.66699 -29.833 -8 -43.5 -10s-25.167 -3 -34.5 -3c-11.333 0 -20.5 3.33301 -27.5 10s-10.5 14 -10.5 22c0 14 7.33301 23.333 22 28c-3.33301 -3.33301 -5 -8.33301 -5 -15
c0 -5.33301 4.66699 -8 14 -8c7.33301 0 16.833 1.33301 28.5 4s23.834 6 36.501 10c14 4.66699 27.833 9.83398 41.5 15.501s26.167 11.167 37.5 16.5c-8 5.33301 -17.5 12.666 -28.5 21.999s-21.833 20 -32.5 32c-11.333 13.333 -21 28.166 -29 44.499s-12 33.5 -12 51.5
c0 9.33301 1.83301 19.333 5.5 30s8.66699 21.334 15 32.001s13.666 21 21.999 31s17.5 19 27.5 27c11.333 8.66699 23.333 15.667 36 21s25.667 8 39 8c23.333 0 39.5 -3.5 48.5 -10.5s13.5 -13.833 13.5 -20.5v-3c-6.66699 1.33301 -11.334 2 -14.001 2z" />
    <glyph glyph-name="t" unicode="t" horiz-adv-x="195" 
d="M198 324c13.333 0 25.9971 -1.33203 37.9971 -3.99902s22.333 -7.66699 31 -15c-26.667 -1.33301 -53.167 -5 -79.5 -11s-52.166 -10.333 -77.499 -13c-3.33301 -15.333 -7.5 -30.166 -12.5 -44.499s-9.66699 -29.166 -14 -44.499s-8.16602 -31.5 -11.499 -48.5
s-5 -35.833 -5 -56.5c0 -8.66699 0.5 -17.167 1.5 -25.5s2.83301 -15.5 5.5 -21.5c4.66699 -14.667 12.334 -22 23.001 -22c4.66699 0 11.167 4.83301 19.5 14.5s16.166 21.167 23.499 34.5c10 17.333 18.333 35.5 25 54.5s10 35.5 10 49.5
c0 5.33301 -0.166992 10.5 -0.5 15.5s-1.16602 10.167 -2.49902 15.5c12.667 -8.66699 19 -25.667 19 -51c0 -8.66699 -1 -19.334 -3 -32.001c-1.33301 -8.66699 -4.33301 -19.167 -9 -31.5s-11 -24.5 -19 -36.5c-10 -16.667 -22.333 -31.334 -37 -44.001s-30 -19 -46 -19
c-16.667 0 -30.667 4.66699 -42 14c-8 6.66699 -13.333 15.167 -16 25.5s-4 21.833 -4 34.5c0 42 5.33301 80.333 16 115l32 106c-8.66699 0.666992 -18 2 -28 4s-19.333 5 -28 9s-15.834 9.16699 -21.501 15.5s-8.5 13.833 -8.5 22.5c6 -2 13.333 -3.83301 22 -5.5l26.5 -5
c9 -1.66699 17.667 -2.83398 26 -3.50098s15.166 -1 20.499 -1l27 56.5c8.66699 18.333 16.334 36.5 23.001 54.5c18.667 43.333 32.667 85.666 42 126.999c7.33301 -13.333 11 -29 11 -47c0 -14.667 -1.66699 -30.167 -5 -46.5s-7.66602 -32.5 -12.999 -48.5
c-6.66699 -19.333 -13.5 -37.166 -20.5 -53.499s-12.5 -30.5 -16.5 -42.5c9.33301 0 20.833 0.833008 34.5 2.5s28.167 2.5 43.5 2.5z" />
    <glyph glyph-name="u" unicode="u" horiz-adv-x="237" 
d="M232 305c5.33301 0 11.335 -0.662109 18.002 -1.99512l-10.5 -58c-3.66699 -20.667 -7 -41.834 -10 -63.501s-5.5 -43.167 -7.5 -64.5s-3 -41 -3 -59c0 -18.667 2.16699 -36 6.5 -52s14.166 -28.333 29.499 -37c-9.33301 -4 -17 -6 -23 -6
c-9.33301 0 -17.166 3 -23.499 9s-11.833 13.5 -16.5 22.5s-8.33398 18.5 -11.001 28.5s-4.66699 19 -6 27c-3.33301 -6.66699 -8.33301 -13.5 -15 -20.5s-14.167 -13.5 -22.5 -19.5s-17.166 -10.833 -26.499 -14.5s-18 -5.5 -26 -5.5c-12.667 0 -23.167 2.5 -31.5 7.5
s-15 11.5 -20 19.5s-8.5 17.167 -10.5 27.5s-3 21.166 -3 32.499c0 8.66699 1.83301 23.667 5.5 45s9.83398 45 18.501 71c8 24 17.333 48 28 72s23.667 45 39 63c8 -8 12.333 -18 13 -30c-6.66699 -18.667 -13.334 -38.334 -20.001 -59.001s-13 -42 -19 -64
c-6 -18.667 -10.5 -37.834 -13.5 -57.501s-4.5 -38.5 -4.5 -56.5c0 -12 2 -23.333 6 -34s12 -17.667 24 -21c15.333 13.333 28.166 28.666 38.499 45.999s19.166 36 26.499 56c6.66699 16.667 12.167 34 16.5 52s8 35.5 11 52.5s5.5 33 7.5 48s3.66699 28.5 5 40.5
c8 2.66699 18 4 30 4z" />
    <glyph glyph-name="v" unicode="v" horiz-adv-x="183" 
d="M28 314c10 -8.66699 18.499 -20 25.499 -34s12.5 -29.667 16.5 -47c6.66699 -26.667 10 -56 10 -88c0 -16 -1 -32 -3 -48c8.66699 37.333 21.334 76.333 38.001 117c16 33.333 36.167 62.333 60.5 87s55.166 39.667 92.499 45c-9.33301 -6 -20 -14.333 -32 -25
s-23.667 -22.667 -35 -36s-22 -27.5 -32 -42.5s-17.667 -30.167 -23 -45.5c-13.333 -36 -23.833 -72.667 -31.5 -110s-13.5 -72 -17.5 -104c-6 1.33301 -14 3.33301 -24 6s-17 4.66699 -21 6c-1.33301 25.333 -2.16602 53.833 -2.49902 85.5s-1.83301 63.5 -4.5 95.5
c-2 28 -4.33301 54 -7 78s-6 44 -10 60z" />
    <glyph glyph-name="w" unicode="w" horiz-adv-x="389" 
d="M259 334c23.333 0 42.8311 -4.66602 58.498 -13.999s28.5 -21.666 38.5 -36.999c10.667 -16 18 -33.833 22 -53.5s6 -39.167 6 -58.5c0 -8 -0.666992 -17.5 -2 -28.5s-3.66602 -22.833 -6.99902 -35.5s-7.5 -25.5 -12.5 -38.5s-10.833 -25.5 -17.5 -37.5
c-10 -14 -21.333 -25.667 -34 -35s-28.334 -14 -47.001 -14c-16 0 -29.667 3.5 -41 10.5s-20.666 16.167 -27.999 27.5c-12 18.667 -18 41 -18 67c-5.33301 -10 -11.5 -20.5 -18.5 -31.5s-14.5 -21.5 -22.5 -31.5c-9.33301 -10 -18.666 -18.5 -27.999 -25.5
s-18.666 -10.5 -27.999 -10.5c-10 0 -18.5 3.5 -25.5 10.5s-12.667 15.833 -17 26.5s-7.66602 22.667 -9.99902 36s-3.5 26.333 -3.5 39c0 16 1.33301 33 4 51s7 36 13 54c6.66699 20 15 39.5 25 58.5s22 36.833 36 53.5c0.666992 0 3.66699 -1.33301 9 -4
s8.33301 -4.66699 9 -6c-6.66699 -16.667 -13.334 -35 -20.001 -55s-12.667 -41 -18 -63c-4.66699 -20 -8.83398 -40.333 -12.501 -61s-5.5 -41 -5.5 -61c0 -15.333 1.33301 -28.666 4 -39.999s7.66699 -17 15 -17c6 0 12.5 2.66699 19.5 8s14.167 12.333 21.5 21
c10 12 20 26 30 42s18.667 31.667 26 47c2.66699 18.667 6.66699 37.167 12 55.5s11.333 36.5 18 54.5c6.66699 -2.66699 11 -7.5 13 -14.5s3 -15.5 3 -25.5c0 -15.333 -1.16699 -32.333 -3.5 -51s-3.5 -37.334 -3.5 -56.001c0 -8.66699 0.666992 -17.834 2 -27.501
s3.66602 -18.834 6.99902 -27.501c2.66699 -9.33301 6.5 -17 11.5 -23s10.5 -9 16.5 -9c11.333 0 21.166 4.5 29.499 13.5s15.833 20.5 22.5 34.5c8 18 14 37 18 57s6 35 6 45c0 37.333 -10 71 -30 101c-20 31.333 -46.667 55 -80 71
c6.66699 2.66699 12.834 4.66699 18.501 6s11.834 2 18.501 2z" />
    <glyph glyph-name="x" unicode="x" horiz-adv-x="241" 
d="M54 309c12.667 -2.66699 20.5078 -9.83203 23.5078 -21.499s4.5 -26.167 4.5 -43.5c0 -35.333 1 -63 3 -83c12.667 15.333 26.667 30.666 42 45.999s31 30 47 44c21.333 18 42.166 34.5 62.499 49.5s38.166 27.167 53.499 36.5c2.66699 -5.33301 4 -11.333 4 -18
c0 -8 -2.33301 -16.167 -7 -24.5s-10.834 -16.5 -18.501 -24.5s-16.334 -15.833 -26.001 -23.5l-28.5 -22.5c-18 -13.333 -37 -28.833 -57 -46.5s-40 -37.167 -60 -58.5c3.33301 -5.33301 7.5 -14 12.5 -26s11.167 -24 18.5 -36c8 -14 16.667 -26.333 26 -37s19 -16 29 -16
c4 0 7.66699 1.83301 11 5.5s6.16602 8 8.49902 13s4 10.333 5 16s1.5 10.5 1.5 14.5c4.66699 -8.66699 7 -17.667 7 -27c0 -7.33301 -2.33301 -15 -7 -23s-13 -12 -25 -12c-14.667 0 -29.834 4.5 -45.501 13.5s-29.834 20.5 -42.501 34.5
c-13.333 14.667 -22.666 30.667 -27.999 48c-25.333 -25.333 -44.333 -47.666 -57 -66.999s-20.334 -35.666 -23.001 -48.999c0 -1.33301 0.166992 -2.5 0.5 -3.5s0.5 -2.5 0.5 -4.5c4 0 9.16699 2.33301 15.5 7s11.166 7 14.499 7
c-1.33301 -4.66699 -5.16602 -9.16699 -11.499 -13.5s-10.833 -6.5 -13.5 -6.5c-16 0 -24 6.66699 -24 20c0 22 10 48.667 30 80c7.33301 11.333 15.666 23.166 24.999 35.499s19.666 24.833 30.999 37.5c-1.33301 14 -2.16602 29.167 -2.49902 45.5s-0.5 31.5 -0.5 45.5
c0 12 0.333008 23.667 1 35s1 21.666 1 30.999v11c0 4 -0.333008 7.66699 -1 11z" />
    <glyph glyph-name="y" unicode="y" horiz-adv-x="232" 
d="M256 346c5.33301 0 10.1621 -0.166016 14.4951 -0.499023s8.16602 -0.833008 11.499 -1.5l-57.5 -149c-18.333 -49.333 -36.166 -100 -53.499 -152c-7.33301 -21.333 -13.666 -41.5 -18.999 -60.5s-10 -37.5 -14 -55.5s-7.16699 -35.833 -9.5 -53.5
s-4.16602 -35.834 -5.49902 -54.501c0 -5.33301 1.33301 -8 4 -8s6.33398 2.83301 11.001 8.5s9.5 12.667 14.5 21s10 17.166 15 26.499s9.16699 17.666 12.5 24.999c-1.33301 -9.33301 -4 -20.333 -8 -33s-8.83301 -24.667 -14.5 -36s-11.667 -20.833 -18 -28.5
s-12.5 -11.5 -18.5 -11.5c-13.333 0 -22.666 4.66699 -27.999 14s-8 21 -8 35c0 28 4 61.667 12 101c4.66699 20.667 10 41.334 16 62.001s13 40 21 58c-4.66699 -6.66699 -10.334 -14.167 -17.001 -22.5s-14 -16.166 -22 -23.499s-16 -13.5 -24 -18.5s-16 -7.5 -24 -7.5
c-16.667 0 -28.5 5.33301 -35.5 16s-10.5 24 -10.5 40c0 18 3.5 36.833 10.5 56.5s15.833 39.5 26.5 59.5s21.834 39.833 33.501 59.5s22.167 38.834 31.5 57.501c10 21.333 17 40 21 56c6.66699 -18 10 -36.667 10 -56c0 -11.333 -1.16699 -22 -3.5 -32
s-5.5 -19.667 -9.5 -29c-6.66699 -16 -14.667 -31.167 -24 -45.5l-27 -43c-8.66699 -14.333 -16 -28.833 -22 -43.5s-9 -30.334 -9 -47.001c0 -4.66699 1.16699 -8.66699 3.5 -12s4.5 -5 6.5 -5c3.33301 0 9.33301 3.66699 18 11s17.834 16 27.501 26l27.5 29.5
c8.66699 9.66699 14.667 17.167 18 22.5c6.66699 18.667 14.5 39.5 23.5 62.5l27 68.5l26 64c8.33301 20 15.5 36.333 21.5 49h18z" />
    <glyph glyph-name="z" unicode="z" horiz-adv-x="288" 
d="M157 325c15.333 0 30.166 -2.16406 44.499 -6.49707s27 -9.83301 38 -16.5s19.667 -14.167 26 -22.5s9.5 -16.5 9.5 -24.5c0 -6 -2.16699 -12.5 -6.5 -19.5s-9.83301 -13.833 -16.5 -20.5s-14.167 -13.167 -22.5 -19.5s-16.166 -11.833 -23.499 -16.5
c-14.667 -9.33301 -31.5 -19.333 -50.5 -30s-37.167 -22 -54.5 -34c-14 -9.33301 -26.167 -19.5 -36.5 -30.5s-17.833 -22.5 -22.5 -34.5c0 -3.33301 5.66699 -5.83301 17 -7.5s26.666 -2.5 45.999 -2.5s40.166 0.5 62.499 1.5s43.833 2.5 64.5 4.5s38.834 4 54.501 6
s26.5 4 32.5 6c-7.33301 -9.33301 -19.833 -17.833 -37.5 -25.5s-37.167 -14.167 -58.5 -19.5s-42.833 -9.5 -64.5 -12.5s-40.5 -4.5 -56.5 -4.5c-12 0 -24.5 0.833008 -37.5 2.5s-24.833 4.66699 -35.5 9s-19.334 10.333 -26.001 18s-10 17.5 -10 29.5
c0 19.333 6.83301 37 20.5 53s30.834 31 51.501 45c20 14 41.5 26.5 64.5 37.5l62.5 30.5c14 7.33301 25.833 14.166 35.5 20.499s15.5 12.166 17.5 17.499c-1.33301 3.33301 -4.66602 6.5 -9.99902 9.5s-12 5.66699 -20 8s-16.667 4.16602 -26 5.49902s-18.333 2 -27 2
c-31.333 0 -62 -4.33301 -92 -13c-6 9.33301 -9 20 -9 32c0 5.33301 0.333008 9 1 11c10.667 3.33301 25.5 6 44.5 8s35.833 3 50.5 3z" />
    <glyph glyph-name="braceleft" unicode="{" horiz-adv-x="292" 
d="M195 -80c6 0 11.4941 2.00098 16.4941 6.00098s9 9.16699 12 15.5s5.33301 13.333 7 21s2.5 15.167 2.5 22.5v5c10 -11.333 15 -23.666 15 -36.999c0 -16 -6.5 -31.5 -19.5 -46.5s-28.167 -25.167 -45.5 -30.5c-14 0 -29 1.66699 -45 5s-30.667 9 -44 17
c-12.667 7.33301 -23.334 16.833 -32.001 28.5s-13 25.5 -13 41.5c0 18 3.83301 34 11.5 48s17 26.667 28 38s22.833 22.166 35.5 32.499s24 21.166 34 32.499c8.66699 10 15.834 20.5 21.501 31.5s8.5 24.167 8.5 39.5c0 8 -2.16699 16.5 -6.5 25.5
s-8.16602 15.167 -11.499 18.5c-17.333 0.666992 -35.666 6 -54.999 16s-36.666 21 -51.999 33c10.667 8.66699 20.167 14.667 28.5 18s16.166 5 23.499 5c8 0 15.333 -2.16699 22 -6.5l21.5 -14c7.66699 -5 16.5 -9.5 26.5 -13.5s22.333 -6 37 -6
c6 0 11.667 2.83301 17 8.5s8 13.5 8 23.5c0 8 -2 16 -6 24s-9 16.333 -15 25s-12.667 17.5 -20 26.5s-14.333 18.167 -21 27.5c-6.66699 11.333 -12.667 22.666 -18 33.999s-8 23 -8 35c0 16.667 4.66699 32.834 14 48.501s22 29.834 38 42.501
c14.667 12 31.167 21.833 49.5 29.5s36.166 11.5 53.499 11.5c6 0 12.333 -0.666992 19 -2s12.667 -2.33301 18 -3c-1.33301 -4.66699 -5.83301 -10.167 -13.5 -16.5l-18.5 -15.5c-4 1.33301 -9.16699 2.66602 -15.5 3.99902s-17.166 2 -32.499 2
c-16 0 -31.667 -7.66699 -47 -23c-8 -8 -14.5 -17.167 -19.5 -27.5s-7.5 -21.5 -7.5 -33.5s2.16699 -23 6.5 -33s9.83301 -19.667 16.5 -29s13.834 -18.333 21.501 -27s14.834 -17.334 21.501 -26.001s11.834 -17.167 15.501 -25.5s5.5 -17.166 5.5 -26.499
c0 -12.667 -2.83301 -23.667 -8.5 -33s-12.334 -17.5 -20.001 -24.5s-15.167 -12.5 -22.5 -16.5s-12.666 -6.66699 -15.999 -8c5.33301 -7.33301 8 -17 8 -29c0 -20.667 -4.16699 -39.5 -12.5 -56.5s-18.5 -33.167 -30.5 -48.5c-9.33301 -11.333 -19 -22 -29 -32l-28 -29
c-8.66699 -9.33301 -15.667 -18.166 -21 -26.499s-8 -16.5 -8 -24.5c0 -14.667 10.333 -30.334 31 -47.001c8.66699 -7.33301 18.834 -13.333 30.501 -18s24.167 -7 37.5 -7z" />
    <glyph glyph-name="bar" unicode="|" horiz-adv-x="155" 
d="M196 679c-4.66699 -8 -9.5 -19.667 -14.5 -35s-8.83301 -31.666 -11.5 -48.999l-29.5 -221.5l-22 -164.5c-6.33301 -46 -12 -83.5 -17 -112.5s-9.83301 -50.833 -14.5 -65.5c-6 -17.333 -11.667 -32.333 -17 -45s-11.333 -23 -18 -31c2 19.333 5 46.166 9 80.499
l13 112.5c4.66699 40.667 9.66699 82 15 124l14.5 116l11 88.5c3 23.667 4.83301 37.167 5.5 40.5c8 58.667 18.333 100 31 124s27.667 36.667 45 38z" />
    <glyph glyph-name="braceright" unicode="}" horiz-adv-x="292" 
d="M54 -78c16.667 0 32.3311 3.16602 46.998 9.49902s27.667 14 39 23s20.333 18 27 27s10 16.5 10 22.5c0 10.667 -3.33301 22 -10 34l-22.5 39c-8.33301 14 -15.833 29.333 -22.5 46s-10 35 -10 55c0 10.667 1.5 21.834 4.5 33.501s8.5 21.167 16.5 28.5
c-3.33301 1.33301 -7.5 3.5 -12.5 6.5s-9.83301 7 -14.5 12s-8.66699 11 -12 18s-5 15.167 -5 24.5c0 12.667 3.66699 24.5 11 35.5s16.333 21.833 27 32.5s22.5 21.167 35.5 31.5s24.833 21.166 35.5 32.499s19.667 23.5 27 36.5s11 27.5 11 43.5
c0 17.333 -5.16699 31.666 -15.5 42.999s-22.5 17 -36.5 17c-15.333 0 -26.333 -0.666992 -33 -2s-12 -2.66602 -16 -3.99902c-4.66699 4.66699 -9.5 9.83398 -14.5 15.501s-7.5 10.834 -7.5 15.501c5.33301 1.33301 11.5 2.66602 18.5 3.99902s13.5 2 19.5 2
c14.667 0 29.167 -3 43.5 -9s26.833 -14 37.5 -24s19.334 -21.5 26.001 -34.5s10 -26.5 10 -40.5c0 -20.667 -7.66699 -40.5 -23 -59.5s-32.333 -37 -51 -54s-35.667 -33.5 -51 -49.5s-23 -31.333 -23 -46c0 -12.667 5.66699 -19 17 -19c14 0 26.667 2 38 6
s21.666 8.5 30.999 13.5l26 14c8 4.33301 16 6.5 24 6.5c7.33301 0 14.666 -1.66699 21.999 -5s15 -9.33301 23 -18c-19.333 -12.667 -40.166 -23.834 -62.499 -33.501s-42.166 -14.834 -59.499 -15.501c-11.333 -7.33301 -20.166 -18 -26.499 -32s-9.5 -25.333 -9.5 -34
c0 -18 4 -33.5 12 -46.5s16.833 -25.667 26.5 -38s18.5 -25 26.5 -38s12 -28.5 12 -46.5c0 -22 -5.66699 -40.833 -17 -56.5s-25.5 -28.5 -42.5 -38.5s-35.167 -17.167 -54.5 -21.5s-37 -6.5 -53 -6.5c-14 4.66699 -24.833 12.334 -32.5 23.001s-11.5 22.667 -11.5 36
c0 20.667 10 39 30 55c-3.33301 -6 -5.5 -12.167 -6.5 -18.5s-1.5 -12.5 -1.5 -18.5c0 -9.33301 1.66699 -17.166 5 -23.499s9.33301 -9.5 18 -9.5z" />
    <glyph glyph-name="asciitilde" unicode="~" horiz-adv-x="301" 
d="M274 266c0.666992 -2.66699 1.49609 -6.50293 2.49609 -11.5029s1.5 -10.167 1.5 -15.5c0 -6 -1.5 -11.167 -4.5 -15.5s-6.5 -8 -10.5 -11s-7.83301 -5.33301 -11.5 -7s-6.5 -2.5 -8.5 -2.5c-10 0 -19.167 3 -27.5 9s-15.5 12.667 -21.5 20s-11 14 -15 20s-7 9 -9 9
c-7.33301 0 -15 -2.66699 -23 -8s-16 -11.166 -24 -17.499s-16.167 -12.166 -24.5 -17.499s-16.166 -8 -23.499 -8c-14.667 0 -23.667 6.66699 -27 20c8.66699 0 16.334 2.83301 23.001 8.5s13.334 11.667 20.001 18s13.834 12.333 21.501 18s17.167 8.5 28.5 8.5
c14 0 25.5 -1.66699 34.5 -5s16.167 -7.66602 21.5 -12.999c9.33301 -7.33301 15.5 -14.833 18.5 -22.5s6.16699 -11.5 9.5 -11.5c2 0 4.5 0.166992 7.5 0.5s6.33301 1.66602 10 3.99902s8 5.83301 13 10.5s11.167 11.334 18.5 20.001z" />
    <glyph glyph-name="uni007F" horiz-adv-x="500" 
 />
    <glyph glyph-name="uni00A0" unicode="&#xa0;" horiz-adv-x="500" 
 />
    <glyph glyph-name="exclamdown" unicode="&#xa1;" horiz-adv-x="129" 
d="M94 275c22.667 0 37.667 -5.83203 45 -17.499s11 -25.167 11 -40.5c0 -20 -2.16699 -38 -6.5 -54s-11.5 -33.667 -21.5 -53l-37.5 -75.5c-13 -25.667 -21.833 -49.167 -26.5 -70.5c-10 7.33301 -16.667 14.833 -20 22.5s-5 15.834 -5 24.501v5.5
c0 2.33301 0.333008 4.16602 1 5.49902c3.33301 15.333 9.83301 32.666 19.5 51.999s19.167 40.333 28.5 63c6 14 10.833 29 14.5 45s5.5 32.667 5.5 50c0 10 -1.16699 18.333 -3.5 25s-6.16602 10 -11.499 10c-4 0 -8.66699 -0.833008 -14 -2.5s-10.5 -3.66699 -15.5 -6
s-9.33301 -4.66602 -13 -6.99902s-6.5 -4.5 -8.5 -6.5c1.33301 9.33301 7.66602 16.666 18.999 21.999s24.333 8 39 8zM138 357.001c-13.333 0 -23.333 4.16797 -30 12.501s-10 17.5 -10 27.5c0 8.66699 1.66699 17.334 5 26.001s7.33301 17 12 25l18 31.5
c6 11 10.667 22.167 14 33.5c14.667 -6.66699 22 -22 22 -46c0 -12 -1.5 -23.5 -4.5 -34.5s-6.33301 -21.333 -10 -31s-7.16699 -18.334 -10.5 -26.001s-5.33301 -13.834 -6 -18.501z" />
    <glyph glyph-name="cent" unicode="&#xa2;" horiz-adv-x="276" 
d="M209 373c12.667 -0.666992 23.6621 -2.16309 32.9951 -4.49609s17.333 -5.16602 24 -8.49902c12.667 -6.66699 19 -14.334 19 -23.001c0 -6 -1.5 -10.833 -4.5 -14.5s-8.5 -6.16699 -16.5 -7.5c0 6 -2.16699 11.167 -6.5 15.5s-9.16602 8.16602 -14.499 11.499
c-10 6 -19.333 9 -28 9c-6.66699 0 -10.334 -0.333008 -11.001 -1l-20 -91.5l-20 -90.5c22.667 5.33301 43.667 14.333 63 27s35.333 24 48 34c-2 -6 -6.66699 -12.833 -14 -20.5s-16.166 -15 -26.499 -22s-22 -13.333 -35 -19s-25.833 -9.83398 -38.5 -12.501
c-2.66699 -13.333 -5.33398 -27.833 -8.00098 -43.5s-5 -31.334 -7 -47.001s-3.66699 -30.5 -5 -44.5s-2 -25.333 -2 -34v-11c-6 1.33301 -10.667 6.16602 -14 14.499s-5 22.166 -5 41.499c0 13.333 0.833008 29.666 2.5 48.999s4.83398 43 9.50098 71
c-15.333 0 -28.166 2.5 -38.499 7.5s-18.833 11.5 -25.5 19.5s-11.5 17 -14.5 27s-4.5 19.667 -4.5 29c0 15.333 4 31.333 12 48s19 32 33 46c24.667 23.333 54.334 38 89.001 44c4.66699 18 8.33398 33.667 11.001 47s4.83398 25.333 6.50098 36
s2.83398 20.334 3.50098 29.001s1 17.334 1 26.001c10 -9.33301 15 -25 15 -47c0 -10.667 -0.833008 -22.167 -2.5 -34.5s-3.83398 -24.833 -6.50098 -37.5zM174.995 340.004c-20.667 -10.667 -37.667 -26.333 -51 -47c-9.33301 -13.333 -16.333 -26.333 -21 -39
s-7 -27 -7 -43c0 -11.333 2.5 -21.833 7.5 -31.5s15.167 -14.5 30.5 -14.5c6 28 12.667 57 20 87z" />
    <glyph glyph-name="sterling" unicode="&#xa3;" horiz-adv-x="407" 
d="M351 514c12 -1.33301 22.5049 -5.83301 31.5049 -13.5s16.167 -17.5 21.5 -29.5s9.33301 -25.167 12 -39.5s4 -28.833 4 -43.5c0 -34 -6.33301 -65.833 -19 -95.5s-31.667 -50.834 -57 -63.501c13.333 14 24.166 33 32.499 57s12.5 50 12.5 78
c0 14.667 -1.33301 28.834 -4 42.501s-7 26.167 -13 37.5c-9.33301 17.333 -21 29.333 -35 36c-14.667 -24 -26.667 -46.667 -36 -68s-17.833 -42.166 -25.5 -62.499l-23.5 -61c-8 -20.333 -17.667 -41.5 -29 -63.5c9.33301 0.666992 17.166 1.16699 23.499 1.5
s12.166 0.5 17.499 0.5c8 0 14.333 -1.33301 19 -4s9 -9.33398 13 -20.001c-6 0 -13 -0.5 -21 -1.5s-16 -2.16699 -24 -3.5s-15.5 -2.5 -22.5 -3.5s-12.5 -1.5 -16.5 -1.5c-13.333 -37.333 -32 -75.333 -56 -114c13.333 -5.33301 25.666 -12.333 36.999 -21
c10 -6.66699 18.667 -13.334 26 -20.001s14.833 -12.5 22.5 -17.5s15.834 -9.16699 24.501 -12.5s19.667 -5 33 -5c11.333 0 23.5 0.833008 36.5 2.5s23.167 6.16699 30.5 13.5l2 -4c0.666992 -1.33301 1 -2.66602 1 -3.99902c0 -12 -4.83301 -21.833 -14.5 -29.5
s-27.167 -11.5 -52.5 -11.5c-20.667 0 -40.667 4.33301 -60 13c-12 5.33301 -23.333 11.5 -34 18.5s-20.5 13.833 -29.5 20.5l-24.5 18c-7.33301 5.33301 -13.333 8.66602 -18 9.99902c-2.66699 -2.66699 -8.33398 -7.16699 -17.001 -13.5s-20 -12.5 -34 -18.5
c-13.333 -5.33301 -29 -10 -47 -14s-38.333 -6 -61 -6c6 17.333 13.833 32.5 23.5 45.5s20.167 23.833 31.5 32.5c20 14 40.667 21 62 21c5.33301 0 11.5 -0.666992 18.5 -2s12.5 -3 16.5 -5c7.33301 11.333 16.166 26.333 26.499 45s17.5 35.667 21.5 51
c-8 0 -16.333 -0.333008 -25 -1s-16.334 -1.66699 -23.001 -3s-14.167 -1.83301 -22.5 -1.5s-18.166 -4.16699 -29.499 -13.5c-2 4.66699 -3 8.66699 -3 12c0 6 1 11.167 3 15.5s7 8.33301 15 12s20 6.83398 36 9.50098s37.667 5.33398 65 8.00098
c6 11.333 12 25.166 18 41.499l22.5 59c9 23 20.167 49.5 33.5 79.5s30 64 50 102c12 5.33301 23.333 8 34 8zM69.0049 70c-11.333 0 -21.332 -3.33105 -29.999 -9.99805c-12 -7.33301 -21.667 -17 -29 -29c8 1.33301 16.167 3.16602 24.5 5.49902
s16.166 5.16602 23.499 8.49902c10 3.33301 18.667 6.83301 26 10.5s12 6.16699 14 7.5c-6 4.66699 -15.667 7 -29 7z" />
    <glyph glyph-name="yen" unicode="&#xa5;" horiz-adv-x="409" 
d="M224 72h-13c-4.66699 0 -9.66699 0.333008 -15 1c-4.66699 -8.66699 -8.5 -18.834 -11.5 -30.501s-5.33301 -23.667 -7 -36s-2.83398 -24.5 -3.50098 -36.5s-1 -22.333 -1 -31c-12 4 -20.167 11.333 -24.5 22s-6.5 23 -6.5 37c0 12.667 1.16699 25.834 3.5 39.501
s5.16602 26.167 8.49902 37.5c-11.333 -4.66699 -22.666 -7 -33.999 -7c-13.333 0 -25 2.5 -35 7.5s-15 12.5 -15 22.5c0 2.66699 0.333008 4.33398 1 5.00098c10.667 -0.666992 23.334 -1.33398 38.001 -2.00098s27.667 -1 39 -1c6 0 10.833 2.83301 14.5 8.5
s6.83398 16.167 9.50098 31.5l-1 6c-10 1.33301 -21.833 2 -35.5 2s-26.834 0.666992 -39.501 2s-23.667 4 -33 8s-15 10.667 -17 20c6.66699 0 15.334 -0.166992 26.001 -0.5s22 -1 34 -2l35.5 -3c11.667 -1 21.834 -2.16699 30.501 -3.5c0 29.333 -2 60.333 -6 93
s-10.167 64.5 -18.5 95.5s-18.833 60.333 -31.5 88s-27.334 51.167 -44.001 70.5c26 -14 47.833 -30.5 65.5 -49.5s31.667 -40.167 42 -63.5s17.666 -48.5 21.999 -75.5s6.5 -55.5 6.5 -85.5v-20.5c0 -7 -0.333008 -13.5 -1 -19.5c32 63.333 65.167 121 99.5 173
s74.166 99.333 119.499 142c8.66699 10 18 15 28 15c14 0 21 -7.66699 21 -23v-3c0 -2.66699 -0.166992 -5.16699 -0.5 -7.5s-1.16602 -3.5 -2.49902 -3.5c-5.33301 0 -13.5 -5.5 -24.5 -16.5s-23.833 -25.5 -38.5 -43.5s-30.167 -38.667 -46.5 -62l-49 -72l-46.5 -72.5
c-14.667 -23.667 -27.334 -45.167 -38.001 -64.5c12 -6 24.333 -10 37 -12s27 -6.33301 43 -13c-7.33301 -2 -16.666 -3 -27.999 -3c-10.667 0 -21.5 0.5 -32.5 1.5s-20.5 1.5 -28.5 1.5l-3.5 -7l-5.5 -10.5c-2 -3.66699 -3.66699 -7.16699 -5 -10.5s-2 -6 -2 -8
c26.667 -6 63.667 -9 111 -9c-17.333 -9.33301 -32.5 -15.333 -45.5 -18s-28.167 -4 -45.5 -4z" />
    <glyph glyph-name="section" unicode="&#xa7;" horiz-adv-x="336" 
d="M270 507c9.33301 0 18.6631 -0.663086 27.9961 -1.99609s17.833 -3.33301 25.5 -6s13.834 -5.83398 18.501 -9.50098s7 -7.83398 7 -12.501c0 -8 -1.66699 -13.333 -5 -16s-6.33301 -4.66699 -9 -6c0 11.333 -5.16699 20 -15.5 26s-24.166 9 -41.499 9
c-11.333 0 -23.333 -2.66699 -36 -8s-24.334 -12.333 -35.001 -21s-19.667 -18.834 -27 -30.501s-11 -23.834 -11 -36.501c0 -23.333 6.83301 -42.833 20.5 -58.5s28.834 -29.834 45.501 -42.501l45.5 -36c13.667 -11.333 20.5 -24.333 20.5 -39
c0 -10 -3.16699 -18.667 -9.5 -26s-14.333 -13.666 -24 -18.999s-20.334 -9.83301 -32.001 -13.5s-22.834 -6.5 -33.501 -8.5c10.667 -2 22 -4.83301 34 -8.5s23 -8.33398 33 -14.001s18.333 -12.667 25 -21s10 -18.166 10 -29.499c0 -13.333 -4.83301 -25.5 -14.5 -36.5
s-22.167 -20.5 -37.5 -28.5s-32.166 -14.167 -50.499 -18.5s-36.166 -6.5 -53.499 -6.5c-9.33301 0 -21 0.5 -35 1.5s-27.5 3.16699 -40.5 6.5s-24.167 8.33301 -33.5 15s-14 15.667 -14 27c0 3.33301 1 7.83301 3 13.5s5.66699 11.834 11 18.501
c0.666992 -14 5.66699 -26.833 15 -38.5s25 -17.5 47 -17.5c13.333 0 29 1.33301 47 4s35 7 51 13s29.5 13.667 40.5 23s16.5 20.666 16.5 33.999c0 8 -3.33301 15.5 -10 22.5s-15 13 -25 18s-20.333 9 -31 12s-20 4.5 -28 4.5c-3.33301 -0.666992 -6.66602 -1 -9.99902 -1
h-11c-12 0 -24 0.666992 -36 2s-22.833 3.83301 -32.5 7.5s-17.667 8.66699 -24 15s-9.5 14.166 -9.5 23.499c0 14.667 4 26.667 12 36s18 16.666 30 21.999s25.333 9.16602 40 11.499s28.667 3.5 42 3.5c4.66699 0 11 -0.5 19 -1.5s15.833 -2.66699 23.5 -5
s14.167 -5.33301 19.5 -9s8 -8.16699 8 -13.5c0 -4 -1.33301 -7.33301 -4 -10c0 2.66699 -1.66699 5.33398 -5 8.00098s-7.66602 5 -12.999 7s-11.166 3.66699 -17.499 5s-12.5 2 -18.5 2c-9.33301 0 -19.333 -0.666992 -30 -2s-20.334 -3.66602 -29.001 -6.99902
s-15.834 -8.16602 -21.501 -14.499s-8.5 -14.833 -8.5 -25.5c0 -7.33301 3.33301 -13 10 -17s15 -6 25 -6c18.667 0 36.667 1.33301 54 4s32.333 6.16699 45 10.5s22.834 9 30.501 14s11.5 10.167 11.5 15.5c0 7.33301 -2.66699 14.666 -8 21.999s-11.666 14.333 -18.999 21
s-15 12.834 -23 18.501s-14.667 10.167 -20 13.5c-19.333 12 -37 26.833 -53 44.5s-24 37.167 -24 58.5c0 16 4.83301 30.667 14.5 44s22 24.833 37 34.5s31.667 17.167 50 22.5s36.166 8 53.499 8z" />
    <glyph glyph-name="dieresis" unicode="&#xa8;" horiz-adv-x="301" 
d="M137 464c13.333 0 23.499 -2.50195 30.499 -7.50195s10.5 -10.167 10.5 -15.5s-1.83301 -10.833 -5.5 -16.5s-7.66699 -11.5 -12 -17.5l-13 -17.5c-4.33301 -5.66699 -7.16602 -11.167 -8.49902 -16.5c-10 1.33301 -16.833 5.33301 -20.5 12s-5.5 14.334 -5.5 23.001
c0 6 1.16699 11.833 3.5 17.5s5 10.834 8 15.501l8.5 13c2.66699 4 4 7.33301 4 10zM255.999 462.998c13.333 0 23.667 -2.83496 31 -8.50195s11 -11.167 11 -16.5s-1.66699 -10.666 -5 -15.999s-7.33301 -10.666 -12 -15.999l-13.5 -16
c-4.33301 -5.33301 -7.5 -11 -9.5 -17c-9.33301 2 -15.833 5.66699 -19.5 11s-5.5 12 -5.5 20c0 6.66699 1.16699 13 3.5 19s5 11.5 8 16.5l8 13.5c2.33301 4 3.5 7.33301 3.5 10z" />
    <glyph glyph-name="copyright" unicode="&#xa9;" horiz-adv-x="572" 
d="M271 151c-13.333 0 -25.833 4.00098 -37.5 12.001s-17.5 22.333 -17.5 43c0 14 3.5 29 10.5 45s17.167 30 30.5 42c8.66699 6.66699 18 12 28 16s21.333 6 34 6c10.667 0 21.167 -1.83301 31.5 -5.5s15.5 -12.5 15.5 -26.5c0 -5.33301 -0.333008 -8.66602 -1 -9.99902
c-3.33301 10 -9.5 17 -18.5 21s-18.167 6 -27.5 6c-14.667 0 -28 -7 -40 -21c-5.33301 -6.66699 -9.83301 -14.834 -13.5 -24.501s-5.5 -20.834 -5.5 -33.501c0 -15.333 5.33301 -26.333 16 -33s20 -10 28 -10c7.33301 0 15.5 0.666992 24.5 2s16.833 5 23.5 11
c-2.66699 -8 -7.16699 -14.5 -13.5 -19.5s-13.5 -9 -21.5 -12s-16.167 -5.16699 -24.5 -6.5s-15.5 -2 -21.5 -2zM370 508.001c6.66699 0 14.3379 -0.49707 23.0049 -1.49707s14.667 -2.5 18 -4.5c-46 -3.33301 -87.667 -14.5 -125 -33.5s-70 -43.5 -98 -73.5
c-14 -15.333 -27.333 -32.333 -40 -51s-23.667 -38.5 -33 -59.5s-16.666 -42.667 -21.999 -65s-8 -44.166 -8 -65.499c0 -18.667 2.66699 -36.334 8 -53.001s13.333 -31.334 24 -44.001s23.5 -22.667 38.5 -30s32.5 -11 52.5 -11c42 0 83.167 7.83301 123.5 23.5
s76.5 37.834 108.5 66.501c26.667 24 47.667 51.5 63 82.5s23 65.5 23 103.5c0 21.333 -4 41.666 -12 60.999s-19 36.5 -33 51.5s-30.833 26.833 -50.5 35.5s-41.5 13 -65.5 13c-16.667 0 -32.834 -1.83301 -48.501 -5.5s-28.167 -7.5 -37.5 -11.5
c0.666992 4 4.5 8.16699 11.5 12.5s15 8.33301 24 12s18.167 6.66699 27.5 9s17 3.5 23 3.5c29.333 0 56.666 -4.33301 81.999 -13s47.166 -20.834 65.499 -36.501s32.666 -34.667 42.999 -57s15.5 -47.166 15.5 -74.499c0 -22 -2.83301 -43.333 -8.5 -64
s-13.167 -40.334 -22.5 -59.001s-20.5 -35.834 -33.5 -51.501s-26.833 -29.5 -41.5 -41.5c-34 -28.667 -71.5 -49.834 -112.5 -63.501s-82.5 -20.5 -124.5 -20.5c-26.667 0 -51.334 3.5 -74.001 10.5s-42.334 17.333 -59.001 31s-29.834 30.834 -39.501 51.501
s-14.5 44.667 -14.5 72c0 46.667 10.333 92.167 31 136.5s48.334 83.5 83.001 117.5c30 30 63.333 53.667 100 71s75 26 115 26z" />
    <glyph glyph-name="guillemotleft" unicode="&#xab;" horiz-adv-x="313" 
d="M212 343c-2.66699 -14 -7.83203 -26.002 -15.499 -36.002s-16.167 -19 -25.5 -27c-8.66699 -7.33301 -17.834 -14.166 -27.501 -20.499l-27.5 -18.5c-8.66699 -6 -16.167 -12 -22.5 -18s-10.5 -13 -12.5 -21c6.66699 -12 15.334 -24 26.001 -36
c16.667 -20 40.667 -40 72 -60c-17.333 3.33301 -34.166 9.33301 -50.499 18s-30.5 19.334 -42.5 32.001c-10.667 11.333 -19.334 23.5 -26.001 36.5s-10 26.5 -10 40.5c5.33301 13.333 19.666 26.666 42.999 39.999c10 6 20.667 12 32 18l33.5 17.5
c11 5.66699 21.167 11.334 30.5 17.001s17 11.5 23 17.5zM299.002 344.998c-4.66699 -22.667 -13.002 -41.001 -25.002 -55.001s-24.333 -26.333 -37 -37c-14 -10.667 -26.333 -20.667 -37 -30s-17 -20 -19 -32l13 -15.5c4.66699 -5.66699 10 -10.834 16 -15.501
c10 -8 21.667 -16.167 35 -24.5s29 -16.166 47 -23.499c-18 0 -36.333 3.33301 -55 10s-35.334 15.667 -50.001 27c-12 10 -21.5 20.667 -28.5 32s-10.833 23.333 -11.5 36c0.666992 7.33301 4.83398 14.833 12.501 22.5s16.834 15.834 27.501 24.501l30 21l32 21.5
c10.667 7 20.334 13.833 29.001 20.5s15.667 12.667 21 18z" />
    <glyph glyph-name="registered" unicode="&#xae;" horiz-adv-x="574" 
d="M370 508c6.66699 0 14.3398 -0.498047 23.0068 -1.49805s14.667 -2.5 18 -4.5c-52 -4 -98.167 -17.667 -138.5 -41s-75.5 -53 -105.5 -89c-22.667 -29.333 -42 -63.333 -58 -102s-24 -77.334 -24 -116.001c0 -18.667 2.66699 -36.334 8 -53.001
s13.333 -31.334 24 -44.001s23.5 -22.667 38.5 -30s32.5 -11 52.5 -11c42 0 82.833 7.66699 122.5 23s75.5 37 107.5 65c28 24 49.667 51.833 65 83.5s23 66.5 23 104.5c0 21.333 -4 41.666 -12 60.999s-19 36.5 -33 51.5s-30.833 26.833 -50.5 35.5s-41.5 13 -65.5 13
c-16.667 0 -32.834 -1.83301 -48.501 -5.5s-28.167 -7.5 -37.5 -11.5c0.666992 4 4.5 8.16699 11.5 12.5s15 8.33301 24 12s18.167 6.66699 27.5 9s17 3.5 23 3.5c29.333 0 56.666 -4.33301 81.999 -13s47.166 -20.834 65.499 -36.501s32.666 -34.667 42.999 -57
s15.5 -47.166 15.5 -74.499c0 -46 -10.833 -88 -32.5 -126s-47.5 -69.333 -77.5 -94c-34 -28 -71.167 -48.333 -111.5 -61s-80.833 -19 -121.5 -19c-26.667 0 -51.334 3.5 -74.001 10.5s-42.334 17.333 -59.001 31s-29.834 30.834 -39.501 51.501s-14.5 44.667 -14.5 72
c0 42 8.66699 83 26 123s40.333 77 69 111c30.667 34.667 66.167 62.834 106.5 84.501s82.833 32.5 127.5 32.5zM323.006 358.002c-16 0 -31.1689 -2.82812 -45.502 -8.49512s-29.166 -14.167 -44.499 -25.5c-13.333 -9.33301 -21.666 -14 -24.999 -14
c-8.66699 0 -15.667 6.66699 -21 20c8 3.33301 16.667 7.66602 26 12.999s19.166 10.666 29.499 15.999s21 9.83301 32 13.5s21.833 5.5 32.5 5.5c12.667 0 24.834 -2 36.501 -6s22 -9.5 31 -16.5s16.167 -15.167 21.5 -24.5s8 -19.333 8 -30
c0 -11.333 -2.83301 -20.666 -8.5 -27.999s-13.5 -13.5 -23.5 -18.5s-21.5 -9.16699 -34.5 -12.5s-26.833 -6.33301 -41.5 -9c2 -6.66699 8.33301 -15.5 19 -26.5s22.667 -22 36 -33s26.333 -20.667 39 -29s22.334 -13.166 29.001 -14.499c-8 -3.33301 -15.333 -5 -22 -5
c-11.333 0 -23.5 2.83301 -36.5 8.5s-25.5 13 -37.5 22s-23.167 19.167 -33.5 30.5s-18.833 22.666 -25.5 33.999c-8.66699 -8.66699 -16.334 -20.834 -23.001 -36.501s-10.667 -29.167 -12 -40.5c-9.33301 3.33301 -14 11 -14 23c0 10.667 3 23.5 9 38.5
s12.833 30.5 20.5 46.5l23.5 48.5c8 16.333 14 31.166 18 44.499c4 -7.33301 6 -15.666 6 -24.999c0 -10.667 -1.5 -20.834 -4.5 -30.501s-6.16699 -18.834 -9.5 -27.501c28 0 50.833 5.16699 68.5 15.5s26.5 21.5 26.5 33.5c0 15.333 -5.33301 27.166 -16 35.499
s-22 12.5 -34 12.5z" />
    <glyph glyph-name="acute" unicode="&#xb4;" horiz-adv-x="148" 
d="M193 463c-8 -20 -18.667 -38.498 -32 -55.498s-26.666 -31.167 -39.999 -42.5c-10.667 -7.33301 -20.5 -13.333 -29.5 -18s-16.833 -7 -23.5 -7c-2.66699 0 -5.83398 0.5 -9.50098 1.5s-6.16699 3.16699 -7.5 6.5c7.33301 2.66699 14.333 7.16699 21 13.5
s13.5 13.5 20.5 21.5l21.5 25.5c7.33301 9 15.333 17.5 24 25.5c8 7.33301 16.5 13.666 25.5 18.999s18.833 8.66602 29.5 9.99902z" />
    <glyph glyph-name="paragraph" unicode="&#xb6;" horiz-adv-x="400" 
d="M328 507c32.667 0 59.6621 -6.33301 80.9951 -19s32 -27.334 32 -44.001c0 -9.33301 -2 -15.333 -6 -18c-2.66699 20 -13.667 36.333 -33 49s-41 19 -65 19c-18.667 0 -37.167 -3 -55.5 -9s-35.833 -13.833 -52.5 -23.5s-32.334 -20.667 -47.001 -33
s-27.667 -24.833 -39 -37.5c-17.333 -18.667 -30.166 -35.167 -38.499 -49.5s-12.5 -29.166 -12.5 -44.499c0 -6.66699 1.33301 -11.834 4 -15.501s7.5 -6.5 14.5 -8.5s16.5 -3.5 28.5 -4.5s27.667 -1.83301 47 -2.5c6.66699 16.667 14.834 35.334 24.501 56.001
s20.5 47 32.5 79c0.666992 -2.66699 1.16699 -5.33398 1.5 -8.00098s0.5 -5.66699 0.5 -9c0 -7.33301 -0.666992 -16 -2 -26s-3.16602 -20 -5.49902 -30l-7 -29c-2.33301 -9.33301 -4.5 -17 -6.5 -23c23.333 4 42 10.333 56 19c8 15.333 14.667 28.666 20 39.999
s9.83301 21.5 13.5 30.5l10 24.5c3 7.33301 6.5 14.666 10.5 21.999c2 -8 3 -15.667 3 -23c0 -11.333 -1.5 -23.333 -4.5 -36s-6.83301 -27.334 -11.5 -44.001c7.33301 2 13 4 17 6s8.16699 4.33301 12.5 7s9.83301 5.83398 16.5 9.50098s16.334 8.5 29.001 14.5
c-4 -10 -14.333 -20.333 -31 -31l-49 -30c-19.333 -54.667 -36.5 -109.5 -51.5 -164.5s-28.5 -108.833 -40.5 -161.5c-8.66699 6.66699 -14.5 15.334 -17.5 26.001s-4.5 22.334 -4.5 35.001c0 16.667 2.5 35.334 7.5 56.001s11 42 18 64l21.5 65.5
c7.33301 21.667 13 41.834 17 60.501c-6.66699 -4.66699 -22 -9.33398 -46 -14.001c-16.667 -42 -32.834 -91.667 -48.501 -149s-30.5 -116 -44.5 -176c-8 20.667 -12 43.667 -12 69c0 18 2 37.833 6 59.5s9 43.5 15 65.5s12.667 43.833 20 65.5l21 60.5
c-15.333 0 -30.666 1.16699 -45.999 3.5s-29.166 6.16602 -41.499 11.499s-22.333 12.833 -30 22.5s-11.5 21.834 -11.5 36.501s4.66699 30 14 46s22 31.667 38 47c13.333 12.667 28.5 24.5 45.5 35.5s35.333 20.833 55 29.5s40.334 15.5 62.001 20.5s43.5 7.5 65.5 7.5z
" />
    <glyph glyph-name="cedilla" unicode="&#xb8;" horiz-adv-x="174" 
d="M63 11c12 -6.66699 22.834 -16.668 32.501 -30.001s14.5 -30 14.5 -50c0 -13.333 -2.33301 -25 -7 -35s-10.667 -18.167 -18 -24.5s-15.333 -11.166 -24 -14.499s-17 -5 -25 -5c-10 0 -20 2.66699 -30 8s-15.667 11.333 -17 18c3.33301 -0.666992 6.16602 -1 8.49902 -1
h6.5c22.667 0 39.667 5.5 51 16.5s17 31.5 17 61.5c0 22 -3 40.667 -9 56z" />
    <glyph glyph-name="guillemotright" unicode="&#xbb;" horiz-adv-x="313" 
d="M146 107c4 15.333 10.333 28.332 19 38.999s18 20.334 28 29.001l53 35c16.667 11.333 27 23.666 31 36.999c-7.33301 14 -17.666 28.667 -30.999 44l-29 25.5c-10.667 9 -23.334 18.167 -38.001 27.5c29.333 -5.33301 56.666 -18.333 81.999 -39
c14.667 -12 26.334 -25.833 35.001 -41.5s13 -31.167 13 -46.5c-4.66699 -11.333 -16 -22.5 -34 -33.5s-37.333 -21.833 -58 -32.5l-40.5 -22c-13 -7.33301 -23.167 -14.666 -30.5 -21.999zM59 104.999c3.33301 16 8.50293 29.668 15.5029 41.001s14.833 21.333 23.5 30
s17.5 16.5 26.5 23.5s17.167 13.667 24.5 20s13.5 12.666 18.5 18.999s8.16699 13.166 9.5 20.499c-8.66699 12.667 -21.334 25.334 -38.001 38.001c-18.667 14.667 -43 28.334 -73 41.001c29.333 0 57.666 -8 84.999 -24c17.333 -10 31.666 -22 42.999 -36
s17.333 -29 18 -45c-2.66699 -11.333 -12.5 -23.833 -29.5 -37.5s-35.5 -26.834 -55.5 -39.501l-39 -27c-12 -8.66699 -21.667 -16.667 -29 -24z" />
    <glyph glyph-name="questiondown" unicode="&#xbf;" horiz-adv-x="286" 
d="M187 328c4 -0.666992 8.99902 -2.33105 14.999 -4.99805s11.833 -5.66699 17.5 -9s10.834 -6.66602 15.501 -9.99902s8 -6 10 -8c-4.66699 -10.667 -12.334 -20.834 -23.001 -30.501s-23 -19.167 -37 -28.5s-29.167 -18.5 -45.5 -27.5l-46.5 -26.5
c-24.667 -14.667 -45.834 -29.834 -63.501 -45.501s-26.5 -32.834 -26.5 -51.501c0 -12 2.83301 -22.667 8.5 -32s13.167 -17.333 22.5 -24c20.667 -13.333 45 -20 73 -20c12 0 27.833 1.33301 47.5 4s39.834 7.66699 60.501 15c20 6.66699 39 15.334 57 26.001
s33 24.334 45 41.001c-3.33301 -19.333 -12 -37.5 -26 -54.5s-31.667 -31.5 -53 -43.5c-18 -10.667 -38.167 -19 -60.5 -25s-44.833 -9 -67.5 -9c-20.667 0 -39.5 3.33301 -56.5 10s-31.5 15.667 -43.5 27c-20 18.667 -30 40.667 -30 66c0 24 9.5 47.333 28.5 70
s41.167 44.334 66.5 65.001c22 17.333 44.167 33.666 66.5 48.999s40.833 29 55.5 41c-19.333 -1.33301 -38.666 -5.5 -57.999 -12.5s-37 -15.5 -53 -25.5c0.666992 4.66699 3.66699 10.667 9 18s12.5 14.666 21.5 21.999s19.5 14.166 31.5 20.499s25 10.833 39 13.5z
M199.999 354.003c-12.667 0 -22.5 4.00098 -29.5 12.001s-10.5 16.667 -10.5 26c0 11.333 3 23.666 9 36.999s13 26.5 21 39.5s14 26.5 18 40.5c14.667 -6.66699 22 -22 22 -46c0 -16 -2.33301 -31 -7 -45c-4 -14 -8.5 -26.667 -13.5 -38s-8.16699 -20 -9.5 -26z" />
    <glyph glyph-name="Agrave" unicode="&#xc0;" horiz-adv-x="343" 
d="M265 175c-11.333 -4 -25.3359 -7.99609 -42.0029 -11.9961s-33.667 -6 -51 -6c-22.667 0 -41.667 3.33301 -57 10c-10 -32.667 -18 -62 -24 -88s-9 -48 -9 -66c0 -12.667 2 -22.334 6 -29.001c-15.333 0 -28.166 3.33301 -38.499 10s-15.5 17.667 -15.5 33
c0 22.667 5 48 15 76l34 93c4 12 9.33301 26.167 16 42.5s14.334 33.666 23.001 51.999l28 57c10 19.667 20.667 38.5 32 56.5c19.333 30 40.166 55.333 62.499 76s45.833 31 70.5 31c16.667 0 28 -4.83301 34 -14.5s9 -21.5 9 -35.5c0 -11.333 -1.66699 -26 -5 -44
l-11.5 -59.5c-4.33301 -21.667 -8.66602 -44.5 -12.999 -68.5s-7.5 -48 -9.5 -72c14 1.33301 29.333 2.16602 46 2.49902s30.334 0.5 41.001 0.5h11c-13.333 -6.66699 -27.5 -12 -42.5 -16s-35.167 -10.333 -60.5 -19c-0.666992 -11.333 -1.16699 -22.5 -1.5 -33.5
s-0.5 -21.833 -0.5 -32.5c0 -38 3.16699 -68.667 9.5 -92s17.166 -35 32.499 -35c5.33301 0 10.833 2.16699 16.5 6.5s9.83398 9.83301 12.501 16.5c2 -1.33301 3 -4.33301 3 -9s-2.5 -10.834 -7.5 -18.501s-15.167 -11.5 -30.5 -11.5c-18 0 -32.5 4.16699 -43.5 12.5
s-19.667 19.333 -26 33s-10.5 29.5 -12.5 47.5s-3 36.667 -3 56c0 8.66699 0.166992 17 0.5 25s0.833008 16.333 1.5 25zM266.997 211.004c0 20 3.16699 44.502 9.5 73.502s13.333 57.333 21 85l21 73.5c6.33301 21.333 9.5 34 9.5 38c0 9.33301 -3 14 -9 14
c-18.667 0 -37.167 -9.83301 -55.5 -29.5s-35.833 -44.5 -52.5 -74.5c-10 -18 -19.5 -36.333 -28.5 -55s-17.333 -36.834 -25 -54.501s-14.5 -34.334 -20.5 -50.001l-15 -39.5c17.333 0 38.333 1 63 3s52 7.33301 82 16zM268.997 641.006
c22.667 0 41.4971 -8.33398 56.4971 -25.001s28.833 -41 41.5 -73c-19.333 0 -34.666 3.83301 -45.999 11.5s-20.166 16.834 -26.499 27.501s-11.166 21.5 -14.499 32.5s-7 19.833 -11 26.5z" />
    <glyph glyph-name="Aacute" unicode="&#xc1;" horiz-adv-x="343" 
d="M265 175c-11.333 -4 -25.3359 -7.99609 -42.0029 -11.9961s-33.667 -6 -51 -6c-22.667 0 -41.667 3.33301 -57 10c-10 -32.667 -18 -62 -24 -88s-9 -48 -9 -66c0 -12.667 2 -22.334 6 -29.001c-15.333 0 -28.166 3.33301 -38.499 10s-15.5 17.667 -15.5 33
c0 22.667 5 48 15 76l34 93c4 12 9.33301 26.167 16 42.5s14.334 33.666 23.001 51.999l28 57c10 19.667 20.667 38.5 32 56.5c19.333 30 40.166 55.333 62.499 76s45.833 31 70.5 31c16.667 0 28 -4.83301 34 -14.5s9 -21.5 9 -35.5c0 -11.333 -1.66699 -26 -5 -44
l-11.5 -59.5c-4.33301 -21.667 -8.66602 -44.5 -12.999 -68.5s-7.5 -48 -9.5 -72c14 1.33301 29.333 2.16602 46 2.49902s30.334 0.5 41.001 0.5h11c-13.333 -6.66699 -27.5 -12 -42.5 -16s-35.167 -10.333 -60.5 -19c-0.666992 -11.333 -1.16699 -22.5 -1.5 -33.5
s-0.5 -21.833 -0.5 -32.5c0 -38 3.16699 -68.667 9.5 -92s17.166 -35 32.499 -35c5.33301 0 10.833 2.16699 16.5 6.5s9.83398 9.83301 12.501 16.5c2 -1.33301 3 -4.33301 3 -9s-2.5 -10.834 -7.5 -18.501s-15.167 -11.5 -30.5 -11.5c-18 0 -32.5 4.16699 -43.5 12.5
s-19.667 19.333 -26 33s-10.5 29.5 -12.5 47.5s-3 36.667 -3 56c0 8.66699 0.166992 17 0.5 25s0.833008 16.333 1.5 25zM266.997 211.004c0 20 3.16699 44.502 9.5 73.502s13.333 57.333 21 85l21 73.5c6.33301 21.333 9.5 34 9.5 38c0 9.33301 -3 14 -9 14
c-18.667 0 -37.167 -9.83301 -55.5 -29.5s-35.833 -44.5 -52.5 -74.5c-10 -18 -19.5 -36.333 -28.5 -55s-17.333 -36.834 -25 -54.501s-14.5 -34.334 -20.5 -50.001l-15 -39.5c17.333 0 38.333 1 63 3s52 7.33301 82 16zM388.997 647.006
c-8 -20 -18.667 -38.498 -32 -55.498s-26.666 -31.167 -39.999 -42.5c-10.667 -7.33301 -20.5 -13.333 -29.5 -18s-16.833 -7 -23.5 -7c-2.66699 0 -5.83398 0.5 -9.50098 1.5s-6.16699 3.16699 -7.5 6.5c7.33301 2.66699 14.333 7.16699 21 13.5s13.5 13.5 20.5 21.5
l21.5 25.5c7.33301 9 15.333 17.5 24 25.5c8 7.33301 16.5 13.666 25.5 18.999s18.833 8.66602 29.5 9.99902z" />
    <glyph glyph-name="Acircumflex" unicode="&#xc2;" horiz-adv-x="343" 
d="M265 175c-11.333 -4 -25.3359 -7.99609 -42.0029 -11.9961s-33.667 -6 -51 -6c-22.667 0 -41.667 3.33301 -57 10c-10 -32.667 -18 -62 -24 -88s-9 -48 -9 -66c0 -12.667 2 -22.334 6 -29.001c-15.333 0 -28.166 3.33301 -38.499 10s-15.5 17.667 -15.5 33
c0 22.667 5 48 15 76l34 93c4 12 9.33301 26.167 16 42.5s14.334 33.666 23.001 51.999l28 57c10 19.667 20.667 38.5 32 56.5c19.333 30 40.166 55.333 62.499 76s45.833 31 70.5 31c16.667 0 28 -4.83301 34 -14.5s9 -21.5 9 -35.5c0 -11.333 -1.66699 -26 -5 -44
l-11.5 -59.5c-4.33301 -21.667 -8.66602 -44.5 -12.999 -68.5s-7.5 -48 -9.5 -72c14 1.33301 29.333 2.16602 46 2.49902s30.334 0.5 41.001 0.5h11c-13.333 -6.66699 -27.5 -12 -42.5 -16s-35.167 -10.333 -60.5 -19c-0.666992 -11.333 -1.16699 -22.5 -1.5 -33.5
s-0.5 -21.833 -0.5 -32.5c0 -38 3.16699 -68.667 9.5 -92s17.166 -35 32.499 -35c5.33301 0 10.833 2.16699 16.5 6.5s9.83398 9.83301 12.501 16.5c2 -1.33301 3 -4.33301 3 -9s-2.5 -10.834 -7.5 -18.501s-15.167 -11.5 -30.5 -11.5c-18 0 -32.5 4.16699 -43.5 12.5
s-19.667 19.333 -26 33s-10.5 29.5 -12.5 47.5s-3 36.667 -3 56c0 8.66699 0.166992 17 0.5 25s0.833008 16.333 1.5 25zM266.997 211.004c0 20 3.16699 44.502 9.5 73.502s13.333 57.333 21 85l21 73.5c6.33301 21.333 9.5 34 9.5 38c0 9.33301 -3 14 -9 14
c-18.667 0 -37.167 -9.83301 -55.5 -29.5s-35.833 -44.5 -52.5 -74.5c-10 -18 -19.5 -36.333 -28.5 -55s-17.333 -36.834 -25 -54.501s-14.5 -34.334 -20.5 -50.001l-15 -39.5c17.333 0 38.333 1 63 3s52 7.33301 82 16zM372.997 682.006
c0 -14.667 -0.166992 -27.167 -0.5 -37.5s-0.5 -17.833 -0.5 -22.5c0 -9.33301 0.5 -18.833 1.5 -28.5s3.33301 -18.667 7 -27s8.66699 -16 15 -23s14.5 -12.5 24.5 -16.5c-18.667 0.666992 -33.5 4.66699 -44.5 12s-19.167 17 -24.5 29
c-4 8.66699 -6.83301 18.334 -8.5 29.001s-2.5 22 -2.5 34v9h-1c-3.33301 -6 -7.83301 -13.5 -13.5 -22.5s-11.834 -18.167 -18.501 -27.5c-9.33301 -12 -19.166 -22.667 -29.499 -32s-20.5 -14 -30.5 -14c-8.66699 0 -16.334 4 -23.001 12
c8.66699 1.33301 18.334 6.66602 29.001 15.999s22 21.333 34 36c10 12 19.667 25 29 39l27 41z" />
    <glyph glyph-name="Atilde" unicode="&#xc3;" horiz-adv-x="343" 
d="M265 175c-11.333 -4 -25.3359 -7.99609 -42.0029 -11.9961s-33.667 -6 -51 -6c-22.667 0 -41.667 3.33301 -57 10c-10 -32.667 -18 -62 -24 -88s-9 -48 -9 -66c0 -12.667 2 -22.334 6 -29.001c-15.333 0 -28.166 3.33301 -38.499 10s-15.5 17.667 -15.5 33
c0 22.667 5 48 15 76l34 93c4 12 9.33301 26.167 16 42.5s14.334 33.666 23.001 51.999l28 57c10 19.667 20.667 38.5 32 56.5c19.333 30 40.166 55.333 62.499 76s45.833 31 70.5 31c16.667 0 28 -4.83301 34 -14.5s9 -21.5 9 -35.5c0 -11.333 -1.66699 -26 -5 -44
l-11.5 -59.5c-4.33301 -21.667 -8.66602 -44.5 -12.999 -68.5s-7.5 -48 -9.5 -72c14 1.33301 29.333 2.16602 46 2.49902s30.334 0.5 41.001 0.5h11c-13.333 -6.66699 -27.5 -12 -42.5 -16s-35.167 -10.333 -60.5 -19c-0.666992 -11.333 -1.16699 -22.5 -1.5 -33.5
s-0.5 -21.833 -0.5 -32.5c0 -38 3.16699 -68.667 9.5 -92s17.166 -35 32.499 -35c5.33301 0 10.833 2.16699 16.5 6.5s9.83398 9.83301 12.501 16.5c2 -1.33301 3 -4.33301 3 -9s-2.5 -10.834 -7.5 -18.501s-15.167 -11.5 -30.5 -11.5c-18 0 -32.5 4.16699 -43.5 12.5
s-19.667 19.333 -26 33s-10.5 29.5 -12.5 47.5s-3 36.667 -3 56c0 8.66699 0.166992 17 0.5 25s0.833008 16.333 1.5 25zM266.997 211.004c0 20 3.16699 44.502 9.5 73.502s13.333 57.333 21 85l21 73.5c6.33301 21.333 9.5 34 9.5 38c0 9.33301 -3 14 -9 14
c-18.667 0 -37.167 -9.83301 -55.5 -29.5s-35.833 -44.5 -52.5 -74.5c-10 -18 -19.5 -36.333 -28.5 -55s-17.333 -36.834 -25 -54.501s-14.5 -34.334 -20.5 -50.001l-15 -39.5c17.333 0 38.333 1 63 3s52 7.33301 82 16zM427.997 614.006
c1.33301 -2.66699 2.33398 -6.5 3.00098 -11.5s1 -10.167 1 -15.5c0 -6 -1.5 -11.167 -4.5 -15.5s-6.33301 -8 -10 -11s-7.5 -5.33301 -11.5 -7s-7 -2.5 -9 -2.5c-10 0 -19 3 -27 9s-15 12.667 -21 20s-11.167 14 -15.5 20s-7.5 9 -9.5 9c-6.66699 0 -14 -2.66699 -22 -8
s-16 -11.333 -24 -18c-8.66699 -6.66699 -17 -12.5 -25 -17.5s-16 -7.5 -24 -7.5c-14.667 0 -23.667 6.66699 -27 20c10 0 18.667 3.66699 26 11l23 22c6 5.33301 12.5 10 19.5 14s15.5 6 25.5 6c18 0 31.833 -2.66699 41.5 -8s17.167 -11.333 22.5 -18
s9.16602 -12.667 11.499 -18s4.83301 -8 7.5 -8c5.33301 0 11.333 1.66699 18 5s17 13.333 31 30z" />
    <glyph glyph-name="Adieresis" unicode="&#xc4;" horiz-adv-x="343" 
d="M265 175c-11.333 -4 -25.3359 -7.99609 -42.0029 -11.9961s-33.667 -6 -51 -6c-22.667 0 -41.667 3.33301 -57 10c-10 -32.667 -18 -62 -24 -88s-9 -48 -9 -66c0 -12.667 2 -22.334 6 -29.001c-15.333 0 -28.166 3.33301 -38.499 10s-15.5 17.667 -15.5 33
c0 22.667 5 48 15 76l34 93c4 12 9.33301 26.167 16 42.5s14.334 33.666 23.001 51.999l28 57c10 19.667 20.667 38.5 32 56.5c19.333 30 40.166 55.333 62.499 76s45.833 31 70.5 31c16.667 0 28 -4.83301 34 -14.5s9 -21.5 9 -35.5c0 -11.333 -1.66699 -26 -5 -44
l-11.5 -59.5c-4.33301 -21.667 -8.66602 -44.5 -12.999 -68.5s-7.5 -48 -9.5 -72c14 1.33301 29.333 2.16602 46 2.49902s30.334 0.5 41.001 0.5h11c-13.333 -6.66699 -27.5 -12 -42.5 -16s-35.167 -10.333 -60.5 -19c-0.666992 -11.333 -1.16699 -22.5 -1.5 -33.5
s-0.5 -21.833 -0.5 -32.5c0 -38 3.16699 -68.667 9.5 -92s17.166 -35 32.499 -35c5.33301 0 10.833 2.16699 16.5 6.5s9.83398 9.83301 12.501 16.5c2 -1.33301 3 -4.33301 3 -9s-2.5 -10.834 -7.5 -18.501s-15.167 -11.5 -30.5 -11.5c-18 0 -32.5 4.16699 -43.5 12.5
s-19.667 19.333 -26 33s-10.5 29.5 -12.5 47.5s-3 36.667 -3 56c0 8.66699 0.166992 17 0.5 25s0.833008 16.333 1.5 25zM266.997 211.004c0 20 3.16699 44.502 9.5 73.502s13.333 57.333 21 85l21 73.5c6.33301 21.333 9.5 34 9.5 38c0 9.33301 -3 14 -9 14
c-18.667 0 -37.167 -9.83301 -55.5 -29.5s-35.833 -44.5 -52.5 -74.5c-10 -18 -19.5 -36.333 -28.5 -55s-17.333 -36.834 -25 -54.501s-14.5 -34.334 -20.5 -50.001l-15 -39.5c17.333 0 38.333 1 63 3s52 7.33301 82 16zM269.997 641.006
c13.333 0 23.499 -2.50195 30.499 -7.50195s10.5 -10.167 10.5 -15.5s-1.83301 -10.833 -5.5 -16.5s-7.66699 -11.5 -12 -17.5l-13 -17.5c-4.33301 -5.66699 -7.16602 -11.167 -8.49902 -16.5c-10 1.33301 -16.833 5.33301 -20.5 12s-5.5 14.334 -5.5 23.001
c0 6 1.16699 11.833 3.5 17.5s5 10.834 8 15.501l8.5 13c2.66699 4 4 7.33301 4 10zM388.996 640.004c13.333 0 23.667 -2.83496 31 -8.50195s11 -11.167 11 -16.5s-1.66699 -10.666 -5 -15.999s-7.33301 -10.666 -12 -15.999l-13.5 -16
c-4.33301 -5.33301 -7.5 -11 -9.5 -17c-9.33301 2 -15.833 5.66699 -19.5 11s-5.5 12 -5.5 20c0 6.66699 1.16699 13 3.5 19s5 11.5 8 16.5l8 13.5c2.33301 4 3.5 7.33301 3.5 10z" />
    <glyph glyph-name="Aring" unicode="&#xc5;" horiz-adv-x="343" 
d="M265 175c-11.333 -4 -25.3359 -7.99609 -42.0029 -11.9961s-33.667 -6 -51 -6c-22.667 0 -41.667 3.33301 -57 10c-10 -32.667 -18 -62 -24 -88s-9 -48 -9 -66c0 -12.667 2 -22.334 6 -29.001c-15.333 0 -28.166 3.33301 -38.499 10s-15.5 17.667 -15.5 33
c0 22.667 5 48 15 76l34 93c4 12 9.33301 26.167 16 42.5s14.334 33.666 23.001 51.999l28 57c10 19.667 20.667 38.5 32 56.5c19.333 30 40.166 55.333 62.499 76s45.833 31 70.5 31c16.667 0 28 -4.83301 34 -14.5s9 -21.5 9 -35.5c0 -11.333 -1.66699 -26 -5 -44
l-11.5 -59.5c-4.33301 -21.667 -8.66602 -44.5 -12.999 -68.5s-7.5 -48 -9.5 -72c14 1.33301 29.333 2.16602 46 2.49902s30.334 0.5 41.001 0.5h11c-13.333 -6.66699 -27.5 -12 -42.5 -16s-35.167 -10.333 -60.5 -19c-0.666992 -11.333 -1.16699 -22.5 -1.5 -33.5
s-0.5 -21.833 -0.5 -32.5c0 -38 3.16699 -68.667 9.5 -92s17.166 -35 32.499 -35c5.33301 0 10.833 2.16699 16.5 6.5s9.83398 9.83301 12.501 16.5c2 -1.33301 3 -4.33301 3 -9s-2.5 -10.834 -7.5 -18.501s-15.167 -11.5 -30.5 -11.5c-18 0 -32.5 4.16699 -43.5 12.5
s-19.667 19.333 -26 33s-10.5 29.5 -12.5 47.5s-3 36.667 -3 56c0 8.66699 0.166992 17 0.5 25s0.833008 16.333 1.5 25zM266.997 211.004c0 20 3.16699 44.502 9.5 73.502s13.333 57.333 21 85l21 73.5c6.33301 21.333 9.5 34 9.5 38c0 9.33301 -3 14 -9 14
c-18.667 0 -37.167 -9.83301 -55.5 -29.5s-35.833 -44.5 -52.5 -74.5c-10 -18 -19.5 -36.333 -28.5 -55s-17.333 -36.834 -25 -54.501s-14.5 -34.334 -20.5 -50.001l-15 -39.5c17.333 0 38.333 1 63 3s52 7.33301 82 16zM345.997 516.006
c-46 3.33301 -69.001 22.0039 -69.001 56.0039c0 10.667 2.33301 22.167 7 34.5s11.334 23.833 20.001 34.5s19.5 19.667 32.5 27s27.833 11 44.5 11c0.666992 -2.66699 3.66699 -5.33398 9 -8.00098s11 -6.33398 17 -11.001s11.5 -10.834 16.5 -18.501
s7.5 -17.834 7.5 -30.501c0 -10 -1.83301 -20.5 -5.5 -31.5s-9.16699 -21.333 -16.5 -31s-16.333 -17.5 -27 -23.5s-22.667 -9 -36 -9zM379.996 646.01c-6.66699 0 -13.833 -2.00195 -21.5 -6.00195s-14.834 -9.66699 -21.501 -17s-12.167 -16.166 -16.5 -26.499
s-6.5 -21.833 -6.5 -34.5c0 -8.66699 2.66699 -14.667 8 -18c10.667 0 20.667 2.66699 30 8s17.333 11.833 24 19.5s11.834 15.834 15.501 24.501s5.5 16.667 5.5 24c0 10 -2.16699 16.833 -6.5 20.5s-7.83301 5.5 -10.5 5.5z" />
    <glyph glyph-name="AE" unicode="&#xc6;" horiz-adv-x="492" 
d="M173 147c5.33301 32 12.3301 58.335 20.9971 79.002c-16.667 -1.33301 -31.5 -2.33301 -44.5 -3s-23.833 -1 -32.5 -1c-11.333 -30.667 -19.833 -54.334 -25.5 -71.001l-13.5 -39c-3.33301 -9.33301 -6 -16.5 -8 -21.5s-5 -11.5 -9 -19.5
c-4.66699 -9.33301 -10.334 -17.166 -17.001 -23.499s-14 -9.5 -22 -9.5c-2 0 -5 0.666992 -9 2c3.33301 6 7.5 17 12.5 33l18 57l23.5 72c8.66699 26 18 52.333 28 79c14.667 36.667 30.834 71.5 48.501 104.5s37.167 59.833 58.5 80.5h-50c-10 0 -19 1.83301 -27 5.5
s-14 10.834 -18 21.501l59 8c10.667 1.33301 29.334 2.83301 56.001 4.5s54.667 2.5 84 2.5c77.333 0 134.666 -5.33301 171.999 -16s59 -24.667 65 -42c-9.33301 2.66699 -22.666 4.83398 -39.999 6.50098s-36.666 3.16699 -57.999 4.5s-44 2.33301 -68 3s-47 1 -69 1
c-16.667 -50 -29.667 -91.167 -39 -123.5l-21 -73.5c42 2 81.5 3.16699 118.5 3.5s75.5 1.16602 115.5 2.49902c-5.33301 -32 -13.5 -66.833 -24.5 -104.5s-26.167 -71.5 -45.5 -101.5c-14.667 -22.667 -32.334 -42.334 -53.001 -59.001s-46 -28.334 -76 -35.001h-9
c-19.333 0 -35.666 3.5 -48.999 10.5s-24.166 16.167 -32.499 27.5s-14.333 24.666 -18 39.999s-5.5 31.333 -5.5 48c0 8 0.333008 15.833 1 23.5s1.66699 15.5 3 23.5zM221.997 143.002c-2.66699 -15.333 -4.00195 -31.332 -4.00195 -47.999
c0 -20.667 4 -39.834 12 -57.501s23.667 -31.834 47 -42.501c22.667 6 43.834 16.667 63.501 32s37.167 33.666 52.5 54.999c11.333 15.333 21.666 31.333 30.999 48s17.5 33.167 24.5 49.5s12.833 32.333 17.5 48s8 29.834 10 42.501c-18 -4 -35.667 -8.5 -53 -13.5
s-35.166 -9.5 -53.499 -13.5s-38.166 -7.5 -59.499 -10.5s-45.333 -4.5 -72 -4.5c-4 -19.333 -7 -35.166 -9 -47.499s-4.33301 -24.833 -7 -37.5zM276.995 467.003l-38.001 0.000976562c-24.667 -30.667 -45.5 -64.334 -62.5 -101.001l-46.5 -104
c10.667 0 22.334 0.5 35.001 1.5s26.667 1.83301 42 2.5l38.5 111l28.5 83z" />
    <glyph glyph-name="Ccedilla" unicode="&#xc7;" horiz-adv-x="467" 
d="M403 511c10.667 0 20.8291 -2.66797 30.4961 -8.00098s18.334 -12.333 26.001 -21s13.834 -18.5 18.501 -29.5s7 -22.167 7 -33.5c0 -13.333 -1.66699 -22.333 -5 -27c-2.66699 7.33301 -6 15.333 -10 24s-8.66699 16.667 -14 24s-11.666 13.5 -18.999 18.5
s-15.666 7.5 -24.999 7.5c-30 0 -61.167 -7.16699 -93.5 -21.5s-62.5 -33.166 -90.5 -56.499c-34 -30 -62.167 -63.833 -84.5 -101.5s-33.5 -76.834 -33.5 -117.501c0 -19.333 3.5 -36.666 10.5 -51.999s16.167 -29 27.5 -41c28 -29.333 60.333 -44 97 -44
c32 0 61.833 6 89.5 18s54.167 26.667 79.5 44c23.333 17.333 45 35.5 65 54.5s37 36.833 51 53.5c1.33301 -1.33301 2 -5 2 -11c0 -5.33301 -0.333008 -8.33301 -1 -9c-12 -19.333 -27.167 -38.5 -45.5 -57.5s-38.833 -36.5 -61.5 -52.5
c-33.333 -25.333 -68.5 -45.833 -105.5 -61.5s-69.5 -23.5 -97.5 -23.5c-21.333 0 -41 4.33301 -59 13s-33.667 20.667 -47 36c-32.667 34 -49 79.333 -49 136c0 44 10.833 88.167 32.5 132.5s51.5 83.5 89.5 117.5c30 28 63.167 49.833 99.5 65.5s74.833 23.5 115.5 23.5z
M215.995 10.999c12 -6.66699 22.834 -16.668 32.501 -30.001s14.5 -30 14.5 -50c0 -13.333 -2.33301 -25 -7 -35s-10.667 -18.167 -18 -24.5s-15.333 -11.166 -24 -14.499s-17 -5 -25 -5c-10 0 -20 2.66699 -30 8s-15.667 11.333 -17 18
c3.33301 -0.666992 6.16602 -1 8.49902 -1h6.5c22.667 0 39.667 5.5 51 16.5s17 31.5 17 61.5c0 22 -3 40.667 -9 56z" />
    <glyph glyph-name="Egrave" unicode="&#xc8;" horiz-adv-x="402" 
d="M314 509c50.667 0 87.5 -6.83398 110.5 -20.501s34.5 -29.5 34.5 -47.5c0 -8 -3.16699 -15.833 -9.5 -23.5s-18.833 -14.834 -37.5 -21.501c2.66699 2.66699 4 5 4 7v7c0 10.667 -2.66699 20.667 -8 30s-12.5 17.5 -21.5 24.5s-19 12.5 -30 16.5s-22.5 6 -34.5 6
s-26.833 -1.33301 -44.5 -4s-34.167 -7.33398 -49.5 -14.001c-14 -5.33301 -25.667 -12.333 -35 -21s-14 -19 -14 -31c0 -11.333 4.66699 -22.333 14 -33s21.666 -20.667 36.999 -30c12 -8 25.333 -15.333 40 -22s29.834 -12.167 45.501 -16.5s31.167 -7.83301 46.5 -10.5
s29 -4 41 -4c14.667 0 27.667 3 39 9c-11.333 -35.333 -38 -53 -80 -53c-10.667 0 -23.667 1.83301 -39 5.5s-27.666 7.5 -36.999 11.5c-19.333 -4 -42.833 -12.667 -70.5 -26s-53.167 -29.666 -76.5 -48.999c-14.667 -12.667 -26.834 -26.167 -36.501 -40.5
s-14.5 -29.5 -14.5 -45.5c0 -12.667 5.33301 -23.834 16 -33.501s24 -17.667 40 -24s33.5 -11.166 52.5 -14.499s37.167 -5 54.5 -5c46 0 80.167 6.66699 102.5 20s33.5 39 33.5 77c0 12.667 -2.66699 23.667 -8 33c14 -6 24.5 -13.667 31.5 -23s10.5 -22.666 10.5 -39.999
c0 -10.667 -2.83301 -22.5 -8.5 -35.5s-15.5 -25.333 -29.5 -37s-32.833 -21.334 -56.5 -29.001s-53.834 -11.5 -90.501 -11.5c-14.667 0 -33 0.833008 -55 2.5s-43.333 5.5 -64 11.5s-38.334 14.667 -53.001 26s-22 26.666 -22 45.999c0 32.667 6.5 60.334 19.5 83.001
s29.833 42 50.5 58c22.667 18 47.334 32.333 74.001 43s51 19.334 73 26.001c-12 4.66699 -24.5 9.83398 -37.5 15.501s-24.833 12.5 -35.5 20.5c-14.667 10 -26.667 21.167 -36 33.5s-14 26.5 -14 42.5c0 25.333 7.66699 45.5 23 60.5s33.333 26.167 54 33.5
c18.667 7.33301 37.334 12 56.001 14s33.667 3 45 3zM263 643.999c22.667 0 41.4971 -8.33398 56.4971 -25.001s28.833 -41 41.5 -73c-19.333 0 -34.666 3.83301 -45.999 11.5s-20.166 16.834 -26.499 27.501s-11.166 21.5 -14.499 32.5s-7 19.833 -11 26.5z" />
    <glyph glyph-name="Eacute" unicode="&#xc9;" horiz-adv-x="402" 
d="M314 509c50.667 0 87.5 -6.83398 110.5 -20.501s34.5 -29.5 34.5 -47.5c0 -8 -3.16699 -15.833 -9.5 -23.5s-18.833 -14.834 -37.5 -21.501c2.66699 2.66699 4 5 4 7v7c0 10.667 -2.66699 20.667 -8 30s-12.5 17.5 -21.5 24.5s-19 12.5 -30 16.5s-22.5 6 -34.5 6
s-26.833 -1.33301 -44.5 -4s-34.167 -7.33398 -49.5 -14.001c-14 -5.33301 -25.667 -12.333 -35 -21s-14 -19 -14 -31c0 -11.333 4.66699 -22.333 14 -33s21.666 -20.667 36.999 -30c12 -8 25.333 -15.333 40 -22s29.834 -12.167 45.501 -16.5s31.167 -7.83301 46.5 -10.5
s29 -4 41 -4c14.667 0 27.667 3 39 9c-11.333 -35.333 -38 -53 -80 -53c-10.667 0 -23.667 1.83301 -39 5.5s-27.666 7.5 -36.999 11.5c-19.333 -4 -42.833 -12.667 -70.5 -26s-53.167 -29.666 -76.5 -48.999c-14.667 -12.667 -26.834 -26.167 -36.501 -40.5
s-14.5 -29.5 -14.5 -45.5c0 -12.667 5.33301 -23.834 16 -33.501s24 -17.667 40 -24s33.5 -11.166 52.5 -14.499s37.167 -5 54.5 -5c46 0 80.167 6.66699 102.5 20s33.5 39 33.5 77c0 12.667 -2.66699 23.667 -8 33c14 -6 24.5 -13.667 31.5 -23s10.5 -22.666 10.5 -39.999
c0 -10.667 -2.83301 -22.5 -8.5 -35.5s-15.5 -25.333 -29.5 -37s-32.833 -21.334 -56.5 -29.001s-53.834 -11.5 -90.501 -11.5c-14.667 0 -33 0.833008 -55 2.5s-43.333 5.5 -64 11.5s-38.334 14.667 -53.001 26s-22 26.666 -22 45.999c0 32.667 6.5 60.334 19.5 83.001
s29.833 42 50.5 58c22.667 18 47.334 32.333 74.001 43s51 19.334 73 26.001c-12 4.66699 -24.5 9.83398 -37.5 15.501s-24.833 12.5 -35.5 20.5c-14.667 10 -26.667 21.167 -36 33.5s-14 26.5 -14 42.5c0 25.333 7.66699 45.5 23 60.5s33.333 26.167 54 33.5
c18.667 7.33301 37.334 12 56.001 14s33.667 3 45 3zM409 654.999c-8 -20 -18.667 -38.498 -32 -55.498s-26.666 -31.167 -39.999 -42.5c-10.667 -7.33301 -20.5 -13.333 -29.5 -18s-16.833 -7 -23.5 -7c-2.66699 0 -5.83398 0.5 -9.50098 1.5s-6.16699 3.16699 -7.5 6.5
c7.33301 2.66699 14.333 7.16699 21 13.5s13.5 13.5 20.5 21.5l21.5 25.5c7.33301 9 15.333 17.5 24 25.5c8 7.33301 16.5 13.666 25.5 18.999s18.833 8.66602 29.5 9.99902z" />
    <glyph glyph-name="Ecircumflex" unicode="&#xca;" horiz-adv-x="402" 
d="M314 509c50.667 0 87.5 -6.83398 110.5 -20.501s34.5 -29.5 34.5 -47.5c0 -8 -3.16699 -15.833 -9.5 -23.5s-18.833 -14.834 -37.5 -21.501c2.66699 2.66699 4 5 4 7v7c0 10.667 -2.66699 20.667 -8 30s-12.5 17.5 -21.5 24.5s-19 12.5 -30 16.5s-22.5 6 -34.5 6
s-26.833 -1.33301 -44.5 -4s-34.167 -7.33398 -49.5 -14.001c-14 -5.33301 -25.667 -12.333 -35 -21s-14 -19 -14 -31c0 -11.333 4.66699 -22.333 14 -33s21.666 -20.667 36.999 -30c12 -8 25.333 -15.333 40 -22s29.834 -12.167 45.501 -16.5s31.167 -7.83301 46.5 -10.5
s29 -4 41 -4c14.667 0 27.667 3 39 9c-11.333 -35.333 -38 -53 -80 -53c-10.667 0 -23.667 1.83301 -39 5.5s-27.666 7.5 -36.999 11.5c-19.333 -4 -42.833 -12.667 -70.5 -26s-53.167 -29.666 -76.5 -48.999c-14.667 -12.667 -26.834 -26.167 -36.501 -40.5
s-14.5 -29.5 -14.5 -45.5c0 -12.667 5.33301 -23.834 16 -33.501s24 -17.667 40 -24s33.5 -11.166 52.5 -14.499s37.167 -5 54.5 -5c46 0 80.167 6.66699 102.5 20s33.5 39 33.5 77c0 12.667 -2.66699 23.667 -8 33c14 -6 24.5 -13.667 31.5 -23s10.5 -22.666 10.5 -39.999
c0 -10.667 -2.83301 -22.5 -8.5 -35.5s-15.5 -25.333 -29.5 -37s-32.833 -21.334 -56.5 -29.001s-53.834 -11.5 -90.501 -11.5c-14.667 0 -33 0.833008 -55 2.5s-43.333 5.5 -64 11.5s-38.334 14.667 -53.001 26s-22 26.666 -22 45.999c0 32.667 6.5 60.334 19.5 83.001
s29.833 42 50.5 58c22.667 18 47.334 32.333 74.001 43s51 19.334 73 26.001c-12 4.66699 -24.5 9.83398 -37.5 15.501s-24.833 12.5 -35.5 20.5c-14.667 10 -26.667 21.167 -36 33.5s-14 26.5 -14 42.5c0 25.333 7.66699 45.5 23 60.5s33.333 26.167 54 33.5
c18.667 7.33301 37.334 12 56.001 14s33.667 3 45 3zM410 684.999c0 -14.667 -0.166992 -27.167 -0.5 -37.5s-0.5 -17.833 -0.5 -22.5c0 -9.33301 0.5 -18.833 1.5 -28.5s3.33301 -18.667 7 -27s8.66699 -16 15 -23s14.5 -12.5 24.5 -16.5
c-18.667 0.666992 -33.5 4.66699 -44.5 12s-19.167 17 -24.5 29c-4 8.66699 -6.83301 18.334 -8.5 29.001s-2.5 22 -2.5 34v9h-1c-3.33301 -6 -7.83301 -13.5 -13.5 -22.5s-11.834 -18.167 -18.501 -27.5c-9.33301 -12 -19.166 -22.667 -29.499 -32s-20.5 -14 -30.5 -14
c-8.66699 0 -16.334 4 -23.001 12c8.66699 1.33301 18.334 6.66602 29.001 15.999s22 21.333 34 36c10 12 19.667 25 29 39l27 41z" />
    <glyph glyph-name="Edieresis" unicode="&#xcb;" horiz-adv-x="402" 
d="M314 509c50.667 0 87.5 -6.83398 110.5 -20.501s34.5 -29.5 34.5 -47.5c0 -8 -3.16699 -15.833 -9.5 -23.5s-18.833 -14.834 -37.5 -21.501c2.66699 2.66699 4 5 4 7v7c0 10.667 -2.66699 20.667 -8 30s-12.5 17.5 -21.5 24.5s-19 12.5 -30 16.5s-22.5 6 -34.5 6
s-26.833 -1.33301 -44.5 -4s-34.167 -7.33398 -49.5 -14.001c-14 -5.33301 -25.667 -12.333 -35 -21s-14 -19 -14 -31c0 -11.333 4.66699 -22.333 14 -33s21.666 -20.667 36.999 -30c12 -8 25.333 -15.333 40 -22s29.834 -12.167 45.501 -16.5s31.167 -7.83301 46.5 -10.5
s29 -4 41 -4c14.667 0 27.667 3 39 9c-11.333 -35.333 -38 -53 -80 -53c-10.667 0 -23.667 1.83301 -39 5.5s-27.666 7.5 -36.999 11.5c-19.333 -4 -42.833 -12.667 -70.5 -26s-53.167 -29.666 -76.5 -48.999c-14.667 -12.667 -26.834 -26.167 -36.501 -40.5
s-14.5 -29.5 -14.5 -45.5c0 -12.667 5.33301 -23.834 16 -33.501s24 -17.667 40 -24s33.5 -11.166 52.5 -14.499s37.167 -5 54.5 -5c46 0 80.167 6.66699 102.5 20s33.5 39 33.5 77c0 12.667 -2.66699 23.667 -8 33c14 -6 24.5 -13.667 31.5 -23s10.5 -22.666 10.5 -39.999
c0 -10.667 -2.83301 -22.5 -8.5 -35.5s-15.5 -25.333 -29.5 -37s-32.833 -21.334 -56.5 -29.001s-53.834 -11.5 -90.501 -11.5c-14.667 0 -33 0.833008 -55 2.5s-43.333 5.5 -64 11.5s-38.334 14.667 -53.001 26s-22 26.666 -22 45.999c0 32.667 6.5 60.334 19.5 83.001
s29.833 42 50.5 58c22.667 18 47.334 32.333 74.001 43s51 19.334 73 26.001c-12 4.66699 -24.5 9.83398 -37.5 15.501s-24.833 12.5 -35.5 20.5c-14.667 10 -26.667 21.167 -36 33.5s-14 26.5 -14 42.5c0 25.333 7.66699 45.5 23 60.5s33.333 26.167 54 33.5
c18.667 7.33301 37.334 12 56.001 14s33.667 3 45 3zM287 638.999c13.333 0 23.499 -2.50195 30.499 -7.50195s10.5 -10.167 10.5 -15.5s-1.83301 -10.833 -5.5 -16.5s-7.66699 -11.5 -12 -17.5l-13 -17.5c-4.33301 -5.66699 -7.16602 -11.167 -8.49902 -16.5
c-10 1.33301 -16.833 5.33301 -20.5 12s-5.5 14.334 -5.5 23.001c0 6 1.16699 11.833 3.5 17.5s5 10.834 8 15.501l8.5 13c2.66699 4 4 7.33301 4 10zM405.999 637.997c13.333 0 23.667 -2.83496 31 -8.50195s11 -11.167 11 -16.5s-1.66699 -10.666 -5 -15.999
s-7.33301 -10.666 -12 -15.999l-13.5 -16c-4.33301 -5.33301 -7.5 -11 -9.5 -17c-9.33301 2 -15.833 5.66699 -19.5 11s-5.5 12 -5.5 20c0 6.66699 1.16699 13 3.5 19s5 11.5 8 16.5l8 13.5c2.33301 4 3.5 7.33301 3.5 10z" />
    <glyph glyph-name="Igrave" unicode="&#xcc;" horiz-adv-x="103" 
d="M142 523c15.333 0 26.501 -5.1709 33.501 -15.5039s10.5 -27.166 10.5 -50.499c0 -29.333 -3.5 -59.333 -10.5 -90s-15.333 -61.5 -25 -92.5l-28 -92c-9 -30.333 -15.5 -59.5 -19.5 -87.5c-2.66699 -13.333 -4.33398 -27.333 -5.00098 -42s-1 -28 -1 -40
c0 -10.667 0.166992 -19.667 0.5 -27s1.16602 -12.666 2.49902 -15.999c-15.333 2 -27.166 9.83301 -35.499 23.5s-12.5 35.5 -12.5 65.5c0 9.33301 0.5 19.333 1.5 30s2.16699 22.334 3.5 35.001c4.66699 29.333 12.167 62 22.5 98s21 71 32 105l30 92
c9 27.333 14.5 47 16.5 59c0.666992 2 1 6.33301 1 13c0 14.667 -3 22 -9 22c-7.33301 0 -15 -3.5 -23 -10.5s-13 -12.167 -15 -15.5c1.33301 6 4.33301 13.333 9 22s11.667 13.334 21 14.001zM93.001 643.996c22.667 0 41.4971 -8.33398 56.4971 -25.001
s28.833 -41 41.5 -73c-19.333 0 -34.666 3.83301 -45.999 11.5s-20.166 16.834 -26.499 27.501s-11.166 21.5 -14.499 32.5s-7 19.833 -11 26.5z" />
    <glyph glyph-name="Iacute" unicode="&#xcd;" horiz-adv-x="103" 
d="M142 523c15.333 0 26.501 -5.1709 33.501 -15.5039s10.5 -27.166 10.5 -50.499c0 -29.333 -3.5 -59.333 -10.5 -90s-15.333 -61.5 -25 -92.5l-28 -92c-9 -30.333 -15.5 -59.5 -19.5 -87.5c-2.66699 -13.333 -4.33398 -27.333 -5.00098 -42s-1 -28 -1 -40
c0 -10.667 0.166992 -19.667 0.5 -27s1.16602 -12.666 2.49902 -15.999c-15.333 2 -27.166 9.83301 -35.499 23.5s-12.5 35.5 -12.5 65.5c0 9.33301 0.5 19.333 1.5 30s2.16699 22.334 3.5 35.001c4.66699 29.333 12.167 62 22.5 98s21 71 32 105l30 92
c9 27.333 14.5 47 16.5 59c0.666992 2 1 6.33301 1 13c0 14.667 -3 22 -9 22c-7.33301 0 -15 -3.5 -23 -10.5s-13 -12.167 -15 -15.5c1.33301 6 4.33301 13.333 9 22s11.667 13.334 21 14.001zM221.001 649.996c-8 -20 -18.667 -38.498 -32 -55.498
s-26.666 -31.167 -39.999 -42.5c-10.667 -7.33301 -20.5 -13.333 -29.5 -18s-16.833 -7 -23.5 -7c-2.66699 0 -5.83398 0.5 -9.50098 1.5s-6.16699 3.16699 -7.5 6.5c7.33301 2.66699 14.333 7.16699 21 13.5s13.5 13.5 20.5 21.5l21.5 25.5c7.33301 9 15.333 17.5 24 25.5
c8 7.33301 16.5 13.666 25.5 18.999s18.833 8.66602 29.5 9.99902z" />
    <glyph glyph-name="Icircumflex" unicode="&#xce;" horiz-adv-x="103" 
d="M142 523c15.333 0 26.501 -5.1709 33.501 -15.5039s10.5 -27.166 10.5 -50.499c0 -29.333 -3.5 -59.333 -10.5 -90s-15.333 -61.5 -25 -92.5l-28 -92c-9 -30.333 -15.5 -59.5 -19.5 -87.5c-2.66699 -13.333 -4.33398 -27.333 -5.00098 -42s-1 -28 -1 -40
c0 -10.667 0.166992 -19.667 0.5 -27s1.16602 -12.666 2.49902 -15.999c-15.333 2 -27.166 9.83301 -35.499 23.5s-12.5 35.5 -12.5 65.5c0 9.33301 0.5 19.333 1.5 30s2.16699 22.334 3.5 35.001c4.66699 29.333 12.167 62 22.5 98s21 71 32 105l30 92
c9 27.333 14.5 47 16.5 59c0.666992 2 1 6.33301 1 13c0 14.667 -3 22 -9 22c-7.33301 0 -15 -3.5 -23 -10.5s-13 -12.167 -15 -15.5c1.33301 6 4.33301 13.333 9 22s11.667 13.334 21 14.001zM212.001 678.996c0 -14.667 -0.166992 -27.167 -0.5 -37.5
s-0.5 -17.833 -0.5 -22.5c0 -9.33301 0.5 -18.833 1.5 -28.5s3.33301 -18.667 7 -27s8.66699 -16 15 -23s14.5 -12.5 24.5 -16.5c-18.667 0.666992 -33.5 4.66699 -44.5 12s-19.167 17 -24.5 29c-4 8.66699 -6.83301 18.334 -8.5 29.001s-2.5 22 -2.5 34v9h-1
c-3.33301 -6 -7.83301 -13.5 -13.5 -22.5s-11.834 -18.167 -18.501 -27.5c-9.33301 -12 -19.166 -22.667 -29.499 -32s-20.5 -14 -30.5 -14c-8.66699 0 -16.334 4 -23.001 12c8.66699 1.33301 18.334 6.66602 29.001 15.999s22 21.333 34 36c10 12 19.667 25 29 39l27 41z
" />
    <glyph glyph-name="Idieresis" unicode="&#xcf;" horiz-adv-x="103" 
d="M142 523c15.333 0 26.501 -5.1709 33.501 -15.5039s10.5 -27.166 10.5 -50.499c0 -29.333 -3.5 -59.333 -10.5 -90s-15.333 -61.5 -25 -92.5l-28 -92c-9 -30.333 -15.5 -59.5 -19.5 -87.5c-2.66699 -13.333 -4.33398 -27.333 -5.00098 -42s-1 -28 -1 -40
c0 -10.667 0.166992 -19.667 0.5 -27s1.16602 -12.666 2.49902 -15.999c-15.333 2 -27.166 9.83301 -35.499 23.5s-12.5 35.5 -12.5 65.5c0 9.33301 0.5 19.333 1.5 30s2.16699 22.334 3.5 35.001c4.66699 29.333 12.167 62 22.5 98s21 71 32 105l30 92
c9 27.333 14.5 47 16.5 59c0.666992 2 1 6.33301 1 13c0 14.667 -3 22 -9 22c-7.33301 0 -15 -3.5 -23 -10.5s-13 -12.167 -15 -15.5c1.33301 6 4.33301 13.333 9 22s11.667 13.334 21 14.001zM106.001 641.996c13.333 0 23.499 -2.50195 30.499 -7.50195
s10.5 -10.167 10.5 -15.5s-1.83301 -10.833 -5.5 -16.5s-7.66699 -11.5 -12 -17.5l-13 -17.5c-4.33301 -5.66699 -7.16602 -11.167 -8.49902 -16.5c-10 1.33301 -16.833 5.33301 -20.5 12s-5.5 14.334 -5.5 23.001c0 6 1.16699 11.833 3.5 17.5s5 10.834 8 15.501l8.5 13
c2.66699 4 4 7.33301 4 10zM225 640.994c13.333 0 23.667 -2.83496 31 -8.50195s11 -11.167 11 -16.5s-1.66699 -10.666 -5 -15.999s-7.33301 -10.666 -12 -15.999l-13.5 -16c-4.33301 -5.33301 -7.5 -11 -9.5 -17c-9.33301 2 -15.833 5.66699 -19.5 11s-5.5 12 -5.5 20
c0 6.66699 1.16699 13 3.5 19s5 11.5 8 16.5l8 13.5c2.33301 4 3.5 7.33301 3.5 10z" />
    <glyph glyph-name="Eth" unicode="&#xd0;" horiz-adv-x="412" 
d="M11 15c0 5.33301 0.331055 8.99805 0.998047 10.998l1 12c4 22 9.83301 48 17.5 78s16.834 63 27.501 99c-13.333 1.33301 -24.833 4 -34.5 8s-16.167 11.333 -19.5 22c12 0 23.5 0.5 34.5 1.5s21.5 2.16699 31.5 3.5l40 122.5l37 119.5
c-3.33301 0.666992 -7.66602 1.16699 -12.999 1.5s-12 0.5 -20 0.5c-12 0 -22.833 -1.16699 -32.5 -3.5s-20.167 -5.83301 -31.5 -10.5c8.66699 11.333 20.667 19 36 23s30.666 6 45.999 6c44 0 85.667 -7 125 -21s73.333 -32.333 102 -55c25.333 -20 45.333 -42.333 60 -67
s22 -50 22 -76c0 -16 -4.16699 -33.167 -12.5 -51.5s-19.666 -36.833 -33.999 -55.5s-31 -37 -50 -55s-38.833 -35 -59.5 -51c-17.333 -12.667 -35 -24.5 -53 -35.5s-35.5 -20.5 -52.5 -28.5s-33.333 -14.167 -49 -18.5s-29.834 -6.5 -42.501 -6.5
c-8 0 -14.667 0.833008 -20 2.5s-10.333 3.5 -15 5.5l-1 -10c-1.33301 -8 -3.66602 -16.5 -6.99902 -25.5s-6.33301 -15.167 -9 -18.5c-10 6.66699 -16.833 15.334 -20.5 26.001s-5.5 21.334 -5.5 32.001v8c0 2.66699 0.333008 5 1 7zM128.998 256.998h30
c10.667 0 20.834 -0.333008 30.501 -1s18.167 -1.5 25.5 -2.5s12.666 -2.5 15.999 -4.5c-20.667 -9.33301 -41.5 -16.5 -62.5 -21.5s-42.833 -8.83301 -65.5 -11.5c-16.667 -60 -31 -119.333 -43 -178c8.66699 2 20.167 5.16699 34.5 9.5s30.333 9.5 48 15.5s36 13 55 21
s38.167 17 57.5 27c20.667 10.667 40.5 22.5 59.5 35.5s35.833 27 50.5 42s26.5 31.333 35.5 49s13.5 37.167 13.5 58.5s-6.33301 42.333 -19 63s-29 39.667 -49 57c-24 20 -50.667 36.5 -80 49.5s-57 19.5 -83 19.5l-36 -113l-34 -113v-3c2 0.666992 7.33301 1 16 1z" />
    <glyph glyph-name="Ntilde" unicode="&#xd1;" horiz-adv-x="289" 
d="M171 513c11.333 0 19.6699 -3.00195 25.0029 -9.00195c-14.667 -38 -25 -74.5 -31 -109.5s-9 -70.5 -9 -106.5c0 -57.333 6.66699 -114.666 20 -171.999c4.66699 -20.667 10.5 -40.334 17.5 -59.001s18.167 -34.667 33.5 -48c2.66699 7.33301 5.16699 14.833 7.5 22.5
s4.16602 15.5 5.49902 23.5l14 83.5c5.33301 31 12 62.833 20 95.5s17.5 65 28.5 97s24 61.667 39 89s32.333 51.166 52 71.499s42.167 35.166 67.5 44.499c-27.333 -36 -50.333 -74.167 -69 -114.5s-34.667 -81.5 -48 -123.5s-24.333 -84.333 -33 -127
s-16.334 -85 -23.001 -127c-2.66699 -15.333 -8.83398 -28.166 -18.501 -38.499s-22.167 -16.833 -37.5 -19.5c-28.667 6 -50 18.333 -64 37s-24.167 40.334 -30.5 65.001s-10.5 50.834 -12.5 78.501s-5.33301 53.5 -10 77.5c-2.66699 -28 -5.16699 -52.833 -7.5 -74.5
s-5.83301 -45.167 -10.5 -70.5c-3.33301 -21.333 -8.16602 -42.833 -14.499 -64.5s-15.833 -36.834 -28.5 -45.501c4.66699 48 8.5 96.333 11.5 145s8.16699 97.334 15.5 146.001c6.66699 42 15.167 82.833 25.5 122.5s21.5 73.834 33.5 102.501
c9.33301 5.33301 19.666 8 30.999 8zM403.004 616.998c1.33301 -2.66699 2.33398 -6.5 3.00098 -11.5s1 -10.167 1 -15.5c0 -6 -1.5 -11.167 -4.5 -15.5s-6.33301 -8 -10 -11s-7.5 -5.33301 -11.5 -7s-7 -2.5 -9 -2.5c-10 0 -19 3 -27 9s-15 12.667 -21 20
s-11.167 14 -15.5 20s-7.5 9 -9.5 9c-6.66699 0 -14 -2.66699 -22 -8s-16 -11.333 -24 -18c-8.66699 -6.66699 -17 -12.5 -25 -17.5s-16 -7.5 -24 -7.5c-14.667 0 -23.667 6.66699 -27 20c10 0 18.667 3.66699 26 11l23 22c6 5.33301 12.5 10 19.5 14s15.5 6 25.5 6
c18 0 31.833 -2.66699 41.5 -8s17.167 -11.333 22.5 -18s9.16602 -12.667 11.499 -18s4.83301 -8 7.5 -8c5.33301 0 11.333 1.66699 18 5s17 13.333 31 30z" />
    <glyph glyph-name="Ograve" unicode="&#xd2;" horiz-adv-x="542" 
d="M294 512c42.667 0 82.667 -3.66309 120 -10.9961s69.833 -18.833 97.5 -34.5s49.5 -35.667 65.5 -60s24 -53.5 24 -87.5c0 -46.667 -9.66699 -90 -29 -130s-44.833 -74.833 -76.5 -104.5s-68 -53 -109 -70s-82.833 -25.5 -125.5 -25.5
c-24.667 0 -48.334 5.5 -71.001 16.5s-42.667 25.5 -60 43.5s-31.166 38.333 -41.499 61s-15.5 46 -15.5 70c0 35.333 5.33301 68.333 16 99s23.667 58.167 39 82.5s31.666 45.166 48.999 62.499s32.666 30.333 45.999 39c-30 -13.333 -57.667 -29.833 -83 -49.5
s-47.166 -41.5 -65.499 -65.5s-32.666 -49.5 -42.999 -76.5s-15.5 -54.5 -15.5 -82.5c0 -4.66699 0.166992 -8.83398 0.5 -12.501s0.833008 -7.16699 1.5 -10.5c-3.33301 6 -5.83301 14 -7.5 24s-2.5 20.333 -2.5 31c0 40 8.5 77.667 25.5 113s39 66.166 66 92.499
s57.667 47.166 92 62.499s68.5 23 102.5 23zM305 485.004c-32 0 -59.832 -11.5 -83.499 -34.5s-43.334 -50.833 -59.001 -83.5s-27.5 -66.5 -35.5 -101.5s-12 -64.833 -12 -89.5c0 -22 3 -42.833 9 -62.5s15 -37 27 -52s26.667 -26.833 44 -35.5s37 -13 59 -13
c32.667 0 65.667 6.83301 99 20.5s63.5 32.667 90.5 57s49 53.333 66 87s25.5 70.5 25.5 110.5c0 24.667 -5.5 48.834 -16.5 72.501s-26.5 44.667 -46.5 63s-44.167 33.166 -72.5 44.499s-59.833 17 -94.5 17zM295.001 644.004c22.667 0 41.4971 -8.33398 56.4971 -25.001
s28.833 -41 41.5 -73c-19.333 0 -34.666 3.83301 -45.999 11.5s-20.166 16.834 -26.499 27.501s-11.166 21.5 -14.499 32.5s-7 19.833 -11 26.5z" />
    <glyph glyph-name="Oacute" unicode="&#xd3;" horiz-adv-x="542" 
d="M294 512c42.667 0 82.667 -3.66309 120 -10.9961s69.833 -18.833 97.5 -34.5s49.5 -35.667 65.5 -60s24 -53.5 24 -87.5c0 -46.667 -9.66699 -90 -29 -130s-44.833 -74.833 -76.5 -104.5s-68 -53 -109 -70s-82.833 -25.5 -125.5 -25.5
c-24.667 0 -48.334 5.5 -71.001 16.5s-42.667 25.5 -60 43.5s-31.166 38.333 -41.499 61s-15.5 46 -15.5 70c0 35.333 5.33301 68.333 16 99s23.667 58.167 39 82.5s31.666 45.166 48.999 62.499s32.666 30.333 45.999 39c-30 -13.333 -57.667 -29.833 -83 -49.5
s-47.166 -41.5 -65.499 -65.5s-32.666 -49.5 -42.999 -76.5s-15.5 -54.5 -15.5 -82.5c0 -4.66699 0.166992 -8.83398 0.5 -12.501s0.833008 -7.16699 1.5 -10.5c-3.33301 6 -5.83301 14 -7.5 24s-2.5 20.333 -2.5 31c0 40 8.5 77.667 25.5 113s39 66.166 66 92.499
s57.667 47.166 92 62.499s68.5 23 102.5 23zM305 485.004c-32 0 -59.832 -11.5 -83.499 -34.5s-43.334 -50.833 -59.001 -83.5s-27.5 -66.5 -35.5 -101.5s-12 -64.833 -12 -89.5c0 -22 3 -42.833 9 -62.5s15 -37 27 -52s26.667 -26.833 44 -35.5s37 -13 59 -13
c32.667 0 65.667 6.83301 99 20.5s63.5 32.667 90.5 57s49 53.333 66 87s25.5 70.5 25.5 110.5c0 24.667 -5.5 48.834 -16.5 72.501s-26.5 44.667 -46.5 63s-44.167 33.166 -72.5 44.499s-59.833 17 -94.5 17zM414.001 650.004c-8 -20 -18.667 -38.498 -32 -55.498
s-26.666 -31.167 -39.999 -42.5c-10.667 -7.33301 -20.5 -13.333 -29.5 -18s-16.833 -7 -23.5 -7c-2.66699 0 -5.83398 0.5 -9.50098 1.5s-6.16699 3.16699 -7.5 6.5c7.33301 2.66699 14.333 7.16699 21 13.5s13.5 13.5 20.5 21.5l21.5 25.5c7.33301 9 15.333 17.5 24 25.5
c8 7.33301 16.5 13.666 25.5 18.999s18.833 8.66602 29.5 9.99902z" />
    <glyph glyph-name="Ocircumflex" unicode="&#xd4;" horiz-adv-x="542" 
d="M294 512c42.667 0 82.667 -3.66309 120 -10.9961s69.833 -18.833 97.5 -34.5s49.5 -35.667 65.5 -60s24 -53.5 24 -87.5c0 -46.667 -9.66699 -90 -29 -130s-44.833 -74.833 -76.5 -104.5s-68 -53 -109 -70s-82.833 -25.5 -125.5 -25.5
c-24.667 0 -48.334 5.5 -71.001 16.5s-42.667 25.5 -60 43.5s-31.166 38.333 -41.499 61s-15.5 46 -15.5 70c0 35.333 5.33301 68.333 16 99s23.667 58.167 39 82.5s31.666 45.166 48.999 62.499s32.666 30.333 45.999 39c-30 -13.333 -57.667 -29.833 -83 -49.5
s-47.166 -41.5 -65.499 -65.5s-32.666 -49.5 -42.999 -76.5s-15.5 -54.5 -15.5 -82.5c0 -4.66699 0.166992 -8.83398 0.5 -12.501s0.833008 -7.16699 1.5 -10.5c-3.33301 6 -5.83301 14 -7.5 24s-2.5 20.333 -2.5 31c0 40 8.5 77.667 25.5 113s39 66.166 66 92.499
s57.667 47.166 92 62.499s68.5 23 102.5 23zM305 485.004c-32 0 -59.832 -11.5 -83.499 -34.5s-43.334 -50.833 -59.001 -83.5s-27.5 -66.5 -35.5 -101.5s-12 -64.833 -12 -89.5c0 -22 3 -42.833 9 -62.5s15 -37 27 -52s26.667 -26.833 44 -35.5s37 -13 59 -13
c32.667 0 65.667 6.83301 99 20.5s63.5 32.667 90.5 57s49 53.333 66 87s25.5 70.5 25.5 110.5c0 24.667 -5.5 48.834 -16.5 72.501s-26.5 44.667 -46.5 63s-44.167 33.166 -72.5 44.499s-59.833 17 -94.5 17zM392.001 688.004c0 -14.667 -0.166992 -27.167 -0.5 -37.5
s-0.5 -17.833 -0.5 -22.5c0 -9.33301 0.5 -18.833 1.5 -28.5s3.33301 -18.667 7 -27s8.66699 -16 15 -23s14.5 -12.5 24.5 -16.5c-18.667 0.666992 -33.5 4.66699 -44.5 12s-19.167 17 -24.5 29c-4 8.66699 -6.83301 18.334 -8.5 29.001s-2.5 22 -2.5 34v9h-1
c-3.33301 -6 -7.83301 -13.5 -13.5 -22.5s-11.834 -18.167 -18.501 -27.5c-9.33301 -12 -19.166 -22.667 -29.499 -32s-20.5 -14 -30.5 -14c-8.66699 0 -16.334 4 -23.001 12c8.66699 1.33301 18.334 6.66602 29.001 15.999s22 21.333 34 36c10 12 19.667 25 29 39l27 41z
" />
    <glyph glyph-name="Otilde" unicode="&#xd5;" horiz-adv-x="542" 
d="M294 512c42.667 0 82.667 -3.66309 120 -10.9961s69.833 -18.833 97.5 -34.5s49.5 -35.667 65.5 -60s24 -53.5 24 -87.5c0 -46.667 -9.66699 -90 -29 -130s-44.833 -74.833 -76.5 -104.5s-68 -53 -109 -70s-82.833 -25.5 -125.5 -25.5
c-24.667 0 -48.334 5.5 -71.001 16.5s-42.667 25.5 -60 43.5s-31.166 38.333 -41.499 61s-15.5 46 -15.5 70c0 35.333 5.33301 68.333 16 99s23.667 58.167 39 82.5s31.666 45.166 48.999 62.499s32.666 30.333 45.999 39c-30 -13.333 -57.667 -29.833 -83 -49.5
s-47.166 -41.5 -65.499 -65.5s-32.666 -49.5 -42.999 -76.5s-15.5 -54.5 -15.5 -82.5c0 -4.66699 0.166992 -8.83398 0.5 -12.501s0.833008 -7.16699 1.5 -10.5c-3.33301 6 -5.83301 14 -7.5 24s-2.5 20.333 -2.5 31c0 40 8.5 77.667 25.5 113s39 66.166 66 92.499
s57.667 47.166 92 62.499s68.5 23 102.5 23zM305 485.004c-32 0 -59.832 -11.5 -83.499 -34.5s-43.334 -50.833 -59.001 -83.5s-27.5 -66.5 -35.5 -101.5s-12 -64.833 -12 -89.5c0 -22 3 -42.833 9 -62.5s15 -37 27 -52s26.667 -26.833 44 -35.5s37 -13 59 -13
c32.667 0 65.667 6.83301 99 20.5s63.5 32.667 90.5 57s49 53.333 66 87s25.5 70.5 25.5 110.5c0 24.667 -5.5 48.834 -16.5 72.501s-26.5 44.667 -46.5 63s-44.167 33.166 -72.5 44.499s-59.833 17 -94.5 17zM459.001 623.004c1.33301 -2.66699 2.33398 -6.5 3.00098 -11.5
s1 -10.167 1 -15.5c0 -6 -1.5 -11.167 -4.5 -15.5s-6.33301 -8 -10 -11s-7.5 -5.33301 -11.5 -7s-7 -2.5 -9 -2.5c-10 0 -19 3 -27 9s-15 12.667 -21 20s-11.167 14 -15.5 20s-7.5 9 -9.5 9c-6.66699 0 -14 -2.66699 -22 -8s-16 -11.333 -24 -18
c-8.66699 -6.66699 -17 -12.5 -25 -17.5s-16 -7.5 -24 -7.5c-14.667 0 -23.667 6.66699 -27 20c10 0 18.667 3.66699 26 11l23 22c6 5.33301 12.5 10 19.5 14s15.5 6 25.5 6c18 0 31.833 -2.66699 41.5 -8s17.167 -11.333 22.5 -18s9.16602 -12.667 11.499 -18
s4.83301 -8 7.5 -8c5.33301 0 11.333 1.66699 18 5s17 13.333 31 30z" />
    <glyph glyph-name="Odieresis" unicode="&#xd6;" horiz-adv-x="542" 
d="M294 512c42.667 0 82.667 -3.66309 120 -10.9961s69.833 -18.833 97.5 -34.5s49.5 -35.667 65.5 -60s24 -53.5 24 -87.5c0 -46.667 -9.66699 -90 -29 -130s-44.833 -74.833 -76.5 -104.5s-68 -53 -109 -70s-82.833 -25.5 -125.5 -25.5
c-24.667 0 -48.334 5.5 -71.001 16.5s-42.667 25.5 -60 43.5s-31.166 38.333 -41.499 61s-15.5 46 -15.5 70c0 35.333 5.33301 68.333 16 99s23.667 58.167 39 82.5s31.666 45.166 48.999 62.499s32.666 30.333 45.999 39c-30 -13.333 -57.667 -29.833 -83 -49.5
s-47.166 -41.5 -65.499 -65.5s-32.666 -49.5 -42.999 -76.5s-15.5 -54.5 -15.5 -82.5c0 -4.66699 0.166992 -8.83398 0.5 -12.501s0.833008 -7.16699 1.5 -10.5c-3.33301 6 -5.83301 14 -7.5 24s-2.5 20.333 -2.5 31c0 40 8.5 77.667 25.5 113s39 66.166 66 92.499
s57.667 47.166 92 62.499s68.5 23 102.5 23zM305 485.004c-32 0 -59.832 -11.5 -83.499 -34.5s-43.334 -50.833 -59.001 -83.5s-27.5 -66.5 -35.5 -101.5s-12 -64.833 -12 -89.5c0 -22 3 -42.833 9 -62.5s15 -37 27 -52s26.667 -26.833 44 -35.5s37 -13 59 -13
c32.667 0 65.667 6.83301 99 20.5s63.5 32.667 90.5 57s49 53.333 66 87s25.5 70.5 25.5 110.5c0 24.667 -5.5 48.834 -16.5 72.501s-26.5 44.667 -46.5 63s-44.167 33.166 -72.5 44.499s-59.833 17 -94.5 17zM283.001 651.004c13.333 0 23.499 -2.50195 30.499 -7.50195
s10.5 -10.167 10.5 -15.5s-1.83301 -10.833 -5.5 -16.5s-7.66699 -11.5 -12 -17.5l-13 -17.5c-4.33301 -5.66699 -7.16602 -11.167 -8.49902 -16.5c-10 1.33301 -16.833 5.33301 -20.5 12s-5.5 14.334 -5.5 23.001c0 6 1.16699 11.833 3.5 17.5s5 10.834 8 15.501l8.5 13
c2.66699 4 4 7.33301 4 10zM402 650.002c13.333 0 23.667 -2.83496 31 -8.50195s11 -11.167 11 -16.5s-1.66699 -10.666 -5 -15.999s-7.33301 -10.666 -12 -15.999l-13.5 -16c-4.33301 -5.33301 -7.5 -11 -9.5 -17c-9.33301 2 -15.833 5.66699 -19.5 11s-5.5 12 -5.5 20
c0 6.66699 1.16699 13 3.5 19s5 11.5 8 16.5l8 13.5c2.33301 4 3.5 7.33301 3.5 10z" />
    <glyph glyph-name="Oslash" unicode="&#xd8;" horiz-adv-x="542" 
d="M431 580c6 -4 8.99902 -12.9922 8.99902 -26.9922c0 -16.667 -4.33301 -37.667 -13 -63c44 -14 79 -35 105 -63s39 -64 39 -108c0 -46.667 -9.66699 -90 -29 -130s-44.833 -74.833 -76.5 -104.5s-68 -53 -109 -70s-82.833 -25.5 -125.5 -25.5c-12 0 -23 1.33301 -33 4
c-3.33301 -8.66699 -6.33301 -17.334 -9 -26.001s-4 -15.334 -4 -20.001c0 -10 6 -15 18 -15c-9.33301 -9.33301 -18.666 -14 -27.999 -14c-4.66699 0 -9.83398 2.66699 -15.501 8s-8.5 15 -8.5 29c0 13.333 4 29.666 12 48.999c-17.333 8 -33.166 18.167 -47.499 30.5
s-27 26.166 -38 41.499s-19.5 31.833 -25.5 49.5s-9 35.834 -9 54.501c0 35.333 5.33301 68.333 16 99s23.667 58.167 39 82.5s31.666 45.166 48.999 62.499s32.666 30.333 45.999 39c-30 -13.333 -57.667 -29.833 -83 -49.5s-47.166 -41.5 -65.499 -65.5
s-32.666 -49.5 -42.999 -76.5s-15.5 -54.5 -15.5 -82.5c0 -4.66699 0.166992 -8.83398 0.5 -12.501s0.833008 -7.16699 1.5 -10.5c-3.33301 6 -5.83301 14 -7.5 24s-2.5 20.333 -2.5 31c0 40 8.5 77.667 25.5 113s39 66.166 66 92.499s57.667 47.166 92 62.499
s68.5 23 102.5 23c24.667 0 48 -1.16699 70 -3.5s43.333 -5.83301 64 -10.5c9.33301 17.333 16.5 32.166 21.5 44.499s8.83301 24.833 11.5 37.5zM274.999 485.008c-32 0 -59.832 -11.5 -83.499 -34.5s-43.334 -50.833 -59.001 -83.5s-27.5 -66.5 -35.5 -101.5
s-12 -64.833 -12 -89.5c0 -34 7.16699 -64.833 21.5 -92.5s35.5 -47.5 63.5 -59.5c11.333 27.333 26 60 44 98l57 118l59.5 119.5l51.5 103.5c-16 6.66699 -32.833 12 -50.5 16s-36.5 6 -56.5 6zM224 13.0078c32.667 0 65.667 6.83301 99 20.5s63.5 32.667 90.5 57
s49 53.333 66 87s25.5 70.5 25.5 110.5c0 30.667 -8 60 -24 88s-39 51.333 -69 70c-14 -32 -30.333 -67 -49 -105l-56.5 -114.5l-55.5 -112.5c-18 -36.667 -33 -70 -45 -100c3.33301 -0.666992 6.5 -1 9.5 -1h8.5z" />
    <glyph glyph-name="Ugrave" unicode="&#xd9;" horiz-adv-x="370" 
d="M457 518c13.333 -2 25.3281 -7.66504 35.9951 -16.998c-9.33301 -13.333 -20.666 -34.5 -33.999 -63.5s-26.666 -61.5 -39.999 -97.5c-7.33301 -19.333 -14.166 -38.833 -20.499 -58.5s-11.833 -38.334 -16.5 -56.001s-8.33398 -34 -11.001 -49s-4 -27.5 -4 -37.5
c0 -19.333 1.5 -38.5 4.5 -57.5s8.16699 -36.167 15.5 -51.5s17.5 -28.166 30.5 -38.499s29.167 -16.5 48.5 -18.5c-12 -3.33301 -20 -5 -24 -5c-10 0 -20.667 2.16699 -32 6.5s-22.166 11.833 -32.499 22.5s-20 24.5 -29 41.5s-16.167 38.167 -21.5 63.5
c-8.66699 -14 -18.5 -27.667 -29.5 -41s-23 -25.166 -36 -35.499s-27 -18.833 -42 -25.5s-30.833 -10 -47.5 -10c-36 0 -63.167 12 -81.5 36s-27.5 63 -27.5 117c0 16.667 1 35.167 3 55.5s5 41 9 62s8.83301 42.167 14.5 63.5s12.167 41.666 19.5 60.999
c13.333 36.667 29.5 67.334 48.5 92.001s39.167 37 60.5 37c6.66699 0 12.334 -1.33301 17.001 -4c-16.667 -11.333 -32 -29 -46 -53s-26.667 -52 -38 -84c-13.333 -40.667 -24 -84.834 -32 -132.501s-12 -92.167 -12 -133.5c0 -20.667 3.66699 -38.834 11 -54.501
s22.333 -26.834 45 -33.501c16.667 0 34.834 6.66699 54.501 20s38 29 55 47s31 36 42 54s16.5 31.667 16.5 41c5.33301 32 11.666 62.167 18.999 90.5s15.333 55.5 24 81.5c24.667 69.333 52.334 124.333 83.001 165zM273.995 644.002
c22.667 0 41.4971 -8.33398 56.4971 -25.001s28.833 -41 41.5 -73c-19.333 0 -34.666 3.83301 -45.999 11.5s-20.166 16.834 -26.499 27.501s-11.166 21.5 -14.499 32.5s-7 19.833 -11 26.5z" />
    <glyph glyph-name="Uacute" unicode="&#xda;" horiz-adv-x="370" 
d="M457 518c13.333 -2 25.3281 -7.66504 35.9951 -16.998c-9.33301 -13.333 -20.666 -34.5 -33.999 -63.5s-26.666 -61.5 -39.999 -97.5c-7.33301 -19.333 -14.166 -38.833 -20.499 -58.5s-11.833 -38.334 -16.5 -56.001s-8.33398 -34 -11.001 -49s-4 -27.5 -4 -37.5
c0 -19.333 1.5 -38.5 4.5 -57.5s8.16699 -36.167 15.5 -51.5s17.5 -28.166 30.5 -38.499s29.167 -16.5 48.5 -18.5c-12 -3.33301 -20 -5 -24 -5c-10 0 -20.667 2.16699 -32 6.5s-22.166 11.833 -32.499 22.5s-20 24.5 -29 41.5s-16.167 38.167 -21.5 63.5
c-8.66699 -14 -18.5 -27.667 -29.5 -41s-23 -25.166 -36 -35.499s-27 -18.833 -42 -25.5s-30.833 -10 -47.5 -10c-36 0 -63.167 12 -81.5 36s-27.5 63 -27.5 117c0 16.667 1 35.167 3 55.5s5 41 9 62s8.83301 42.167 14.5 63.5s12.167 41.666 19.5 60.999
c13.333 36.667 29.5 67.334 48.5 92.001s39.167 37 60.5 37c6.66699 0 12.334 -1.33301 17.001 -4c-16.667 -11.333 -32 -29 -46 -53s-26.667 -52 -38 -84c-13.333 -40.667 -24 -84.834 -32 -132.501s-12 -92.167 -12 -133.5c0 -20.667 3.66699 -38.834 11 -54.501
s22.333 -26.834 45 -33.501c16.667 0 34.834 6.66699 54.501 20s38 29 55 47s31 36 42 54s16.5 31.667 16.5 41c5.33301 32 11.666 62.167 18.999 90.5s15.333 55.5 24 81.5c24.667 69.333 52.334 124.333 83.001 165zM415.995 650.002c-8 -20 -18.667 -38.498 -32 -55.498
s-26.666 -31.167 -39.999 -42.5c-10.667 -7.33301 -20.5 -13.333 -29.5 -18s-16.833 -7 -23.5 -7c-2.66699 0 -5.83398 0.5 -9.50098 1.5s-6.16699 3.16699 -7.5 6.5c7.33301 2.66699 14.333 7.16699 21 13.5s13.5 13.5 20.5 21.5l21.5 25.5c7.33301 9 15.333 17.5 24 25.5
c8 7.33301 16.5 13.666 25.5 18.999s18.833 8.66602 29.5 9.99902z" />
    <glyph glyph-name="Ucircumflex" unicode="&#xdb;" horiz-adv-x="370" 
d="M457 518c13.333 -2 25.3281 -7.66504 35.9951 -16.998c-9.33301 -13.333 -20.666 -34.5 -33.999 -63.5s-26.666 -61.5 -39.999 -97.5c-7.33301 -19.333 -14.166 -38.833 -20.499 -58.5s-11.833 -38.334 -16.5 -56.001s-8.33398 -34 -11.001 -49s-4 -27.5 -4 -37.5
c0 -19.333 1.5 -38.5 4.5 -57.5s8.16699 -36.167 15.5 -51.5s17.5 -28.166 30.5 -38.499s29.167 -16.5 48.5 -18.5c-12 -3.33301 -20 -5 -24 -5c-10 0 -20.667 2.16699 -32 6.5s-22.166 11.833 -32.499 22.5s-20 24.5 -29 41.5s-16.167 38.167 -21.5 63.5
c-8.66699 -14 -18.5 -27.667 -29.5 -41s-23 -25.166 -36 -35.499s-27 -18.833 -42 -25.5s-30.833 -10 -47.5 -10c-36 0 -63.167 12 -81.5 36s-27.5 63 -27.5 117c0 16.667 1 35.167 3 55.5s5 41 9 62s8.83301 42.167 14.5 63.5s12.167 41.666 19.5 60.999
c13.333 36.667 29.5 67.334 48.5 92.001s39.167 37 60.5 37c6.66699 0 12.334 -1.33301 17.001 -4c-16.667 -11.333 -32 -29 -46 -53s-26.667 -52 -38 -84c-13.333 -40.667 -24 -84.834 -32 -132.501s-12 -92.167 -12 -133.5c0 -20.667 3.66699 -38.834 11 -54.501
s22.333 -26.834 45 -33.501c16.667 0 34.834 6.66699 54.501 20s38 29 55 47s31 36 42 54s16.5 31.667 16.5 41c5.33301 32 11.666 62.167 18.999 90.5s15.333 55.5 24 81.5c24.667 69.333 52.334 124.333 83.001 165zM380.995 688.002
c0 -14.667 -0.166992 -27.167 -0.5 -37.5s-0.5 -17.833 -0.5 -22.5c0 -9.33301 0.5 -18.833 1.5 -28.5s3.33301 -18.667 7 -27s8.66699 -16 15 -23s14.5 -12.5 24.5 -16.5c-18.667 0.666992 -33.5 4.66699 -44.5 12s-19.167 17 -24.5 29
c-4 8.66699 -6.83301 18.334 -8.5 29.001s-2.5 22 -2.5 34v9h-1c-3.33301 -6 -7.83301 -13.5 -13.5 -22.5s-11.834 -18.167 -18.501 -27.5c-9.33301 -12 -19.166 -22.667 -29.499 -32s-20.5 -14 -30.5 -14c-8.66699 0 -16.334 4 -23.001 12
c8.66699 1.33301 18.334 6.66602 29.001 15.999s22 21.333 34 36c10 12 19.667 25 29 39l27 41z" />
    <glyph glyph-name="Udieresis" unicode="&#xdc;" horiz-adv-x="370" 
d="M457 518c13.333 -2 25.3281 -7.66504 35.9951 -16.998c-9.33301 -13.333 -20.666 -34.5 -33.999 -63.5s-26.666 -61.5 -39.999 -97.5c-7.33301 -19.333 -14.166 -38.833 -20.499 -58.5s-11.833 -38.334 -16.5 -56.001s-8.33398 -34 -11.001 -49s-4 -27.5 -4 -37.5
c0 -19.333 1.5 -38.5 4.5 -57.5s8.16699 -36.167 15.5 -51.5s17.5 -28.166 30.5 -38.499s29.167 -16.5 48.5 -18.5c-12 -3.33301 -20 -5 -24 -5c-10 0 -20.667 2.16699 -32 6.5s-22.166 11.833 -32.499 22.5s-20 24.5 -29 41.5s-16.167 38.167 -21.5 63.5
c-8.66699 -14 -18.5 -27.667 -29.5 -41s-23 -25.166 -36 -35.499s-27 -18.833 -42 -25.5s-30.833 -10 -47.5 -10c-36 0 -63.167 12 -81.5 36s-27.5 63 -27.5 117c0 16.667 1 35.167 3 55.5s5 41 9 62s8.83301 42.167 14.5 63.5s12.167 41.666 19.5 60.999
c13.333 36.667 29.5 67.334 48.5 92.001s39.167 37 60.5 37c6.66699 0 12.334 -1.33301 17.001 -4c-16.667 -11.333 -32 -29 -46 -53s-26.667 -52 -38 -84c-13.333 -40.667 -24 -84.834 -32 -132.501s-12 -92.167 -12 -133.5c0 -20.667 3.66699 -38.834 11 -54.501
s22.333 -26.834 45 -33.501c16.667 0 34.834 6.66699 54.501 20s38 29 55 47s31 36 42 54s16.5 31.667 16.5 41c5.33301 32 11.666 62.167 18.999 90.5s15.333 55.5 24 81.5c24.667 69.333 52.334 124.333 83.001 165zM268.995 645.002
c13.333 0 23.499 -2.50195 30.499 -7.50195s10.5 -10.167 10.5 -15.5s-1.83301 -10.833 -5.5 -16.5s-7.66699 -11.5 -12 -17.5l-13 -17.5c-4.33301 -5.66699 -7.16602 -11.167 -8.49902 -16.5c-10 1.33301 -16.833 5.33301 -20.5 12s-5.5 14.334 -5.5 23.001
c0 6 1.16699 11.833 3.5 17.5s5 10.834 8 15.501l8.5 13c2.66699 4 4 7.33301 4 10zM387.994 644c13.333 0 23.667 -2.83496 31 -8.50195s11 -11.167 11 -16.5s-1.66699 -10.666 -5 -15.999s-7.33301 -10.666 -12 -15.999l-13.5 -16c-4.33301 -5.33301 -7.5 -11 -9.5 -17
c-9.33301 2 -15.833 5.66699 -19.5 11s-5.5 12 -5.5 20c0 6.66699 1.16699 13 3.5 19s5 11.5 8 16.5l8 13.5c2.33301 4 3.5 7.33301 3.5 10z" />
    <glyph glyph-name="Yacute" unicode="&#xdd;" horiz-adv-x="270" 
d="M399 509c-2.66699 -9.33301 -7.50391 -24.8311 -14.5039 -46.498l-25 -77.5l-31.5 -98.5l-35 -109l-34.5 -109l-30 -98.5c-9 -30 -16.333 -56 -22 -78s-9.16699 -37.667 -10.5 -47c-0.666992 -4 -1.33398 -8.33301 -2.00098 -13s-1 -9.33398 -1 -14.001
c0 -5.33301 0.5 -10 1.5 -14s3.16699 -6 6.5 -6c6 0 11.167 3.16699 15.5 9.5s7.83301 13.166 10.5 20.499c-2.66699 -16 -7.33398 -29.167 -14.001 -39.5s-17.667 -15.5 -33 -15.5c-12 0 -20.167 4.83301 -24.5 14.5s-6.5 21.5 -6.5 35.5c0 10 1 21 3 33
c4 18.667 9.66699 40.667 17 66s15.333 50.666 24 75.999s17.334 49.333 26.001 72s16.334 41 23.001 55l-22 -28.5c-7.33301 -9.66699 -15.166 -18.667 -23.499 -27s-17.166 -15.833 -26.499 -22.5s-19.333 -11.334 -30 -14.001c-14.667 0.666992 -27 4.16699 -37 10.5
s-18 14.333 -24 24s-10.333 20.834 -13 33.501s-4 26 -4 40c0 32 5.5 65.5 16.5 100.5s23.5 70.5 37.5 106.5l41 101.5c13.333 33 23.333 63.833 30 92.5c2.66699 -12 4.83398 -23 6.50098 -33s2.5 -20 2.5 -30c0 -24.667 -3.83301 -49 -11.5 -73s-16.167 -48.667 -25.5 -74
c-12 -30.667 -23.5 -62.167 -34.5 -94.5s-16.5 -66.5 -16.5 -102.5c0 -3.33301 0.333008 -9.16602 1 -17.499s2 -16.666 4 -24.999s5 -15.833 9 -22.5s9 -10 15 -10s14.333 6 25 18s22.167 27.167 34.5 45.5s24.5 38.5 36.5 60.5s22.333 42.667 31 62
c16.667 40 32.334 81.833 47.001 125.5s28 88.5 40 134.5c14 1.33301 24 2.16602 30 2.49902s12 0.5 18 0.5zM381.996 661.002c-8 -20 -18.667 -38.498 -32 -55.498s-26.666 -31.167 -39.999 -42.5c-10.667 -7.33301 -20.5 -13.333 -29.5 -18s-16.833 -7 -23.5 -7
c-2.66699 0 -5.83398 0.5 -9.50098 1.5s-6.16699 3.16699 -7.5 6.5c7.33301 2.66699 14.333 7.16699 21 13.5s13.5 13.5 20.5 21.5l21.5 25.5c7.33301 9 15.333 17.5 24 25.5c8 7.33301 16.5 13.666 25.5 18.999s18.833 8.66602 29.5 9.99902z" />
    <glyph glyph-name="Thorn" unicode="&#xde;" horiz-adv-x="362" 
d="M209 501c-5.33301 -14 -11.499 -31.8281 -18.499 -53.4951l-22.5 -71.5c27.333 -2 54.833 -6.16699 82.5 -12.5s52.5 -15.5 74.5 -27.5s40 -27.333 54 -46s21 -41 21 -67v-11c0 -4 -0.333008 -7.66699 -1 -11c0 -2 -1.16699 -5.66699 -3.5 -11s-7 -11.5 -14 -18.5
s-16.833 -14.5 -29.5 -22.5s-29.667 -16 -51 -24c-23.333 -8.66699 -52.333 -16.334 -87 -23.001s-77.334 -12 -128.001 -16l-22.5 -81c-7 -25.333 -12.5 -50.666 -16.5 -75.999c-6 5.33301 -10.167 12.666 -12.5 21.999s-3.5 20 -3.5 32c0 15.333 1.5 31.666 4.5 48.999
s6.83301 33.666 11.5 48.999c-13.333 -2 -25.333 -3 -36 -3c-23.333 0 -47 3.33301 -71 10l27.5 4.5c10.333 1.66699 20.666 3.16699 30.999 4.5l30.5 4c10 1.33301 18.333 2.66602 25 3.99902l40.5 143.5c11.667 41 23.5 76.833 35.5 107.5
c-22.667 0 -49.167 -2.33301 -79.5 -7s-58.5 -14 -84.5 -28c-19.333 -10 -35.666 -22.5 -48.999 -37.5s-21.666 -33.5 -24.999 -55.5l-2 -7c-15.333 0 -23 9.66699 -23 29c0 23.333 8 42.666 24 57.999s36.333 28 61 38c15.333 6 31.5 11 48.5 15s33.667 7.33301 50 10
s32.166 4.5 47.499 5.5s29 1.5 41 1.5c12 26.667 23.167 50 33.5 70s22.5 37.667 36.5 53zM96.001 114.005c9.33301 2.66699 20.999 5.5 34.999 8.5s29.333 6.5 46 10.5l52 13c18 4.66699 35.333 10 52 16c26.667 9.33301 49.667 20.333 69 33s29 27.334 29 44.001
c0 17.333 -7.83301 32.666 -23.5 45.999s-34.667 24.666 -57 33.999s-46 16.833 -71 22.5s-46.833 9.83398 -65.5 12.501l-19.5 -65c-6.33301 -22 -12.166 -43.5 -17.499 -64.5l-15.5 -60z" />
    <glyph glyph-name="germandbls" unicode="&#xdf;" horiz-adv-x="300" 
d="M245 617c25.333 0 44.998 -7.49609 58.998 -22.4961s21 -37.5 21 -67.5c0 -25.333 -4 -49 -12 -71s-18.833 -42.5 -32.5 -61.5s-29.667 -36.5 -48 -52.5s-38.166 -30.333 -59.499 -43c10.667 -1.33301 23.167 -4.66602 37.5 -9.99902s27.833 -13.333 40.5 -24
s23.334 -24.167 32.001 -40.5s13 -35.833 13 -58.5c0 -20.667 -4 -39.334 -12 -56.001s-18.167 -31.334 -30.5 -44.001s-26 -23.334 -41 -32.001s-30 -15.834 -45 -21.501s-28.833 -9.83398 -41.5 -12.501s-22.667 -4 -30 -4c18.667 10 36.5 20.167 53.5 30.5
s32 21.833 45 34.5s23.5 26.667 31.5 42s12 32.666 12 51.999c0 32 -8.83301 59.833 -26.5 83.5s-39.5 38.834 -65.5 45.501l-18.5 -7.5l-18.5 -7.5c-1.33301 -11.333 -3 -28.333 -5 -51s-4.33301 -47.667 -7 -75l-8 -86c-2.66699 -30 -5.33398 -58.167 -8.00098 -84.5
l-7 -70c-2 -20.333 -3.66699 -34.5 -5 -42.5c-1.33301 -12 -6 -27.833 -14 -47.5s-20 -39.167 -36 -58.5c-1.33301 8.66699 -2 18.167 -2 28.5v33.5c0 32 0.833008 68 2.5 108s4 79.667 7 119s6.5 76.5 10.5 111.5s8 63.167 12 84.5c2 17.333 5.33301 38.166 10 62.499
s10.5 49.833 17.5 76.5s15.333 53.5 25 80.5s20.834 51.833 33.501 74.5c14 24.667 30.167 44.834 48.5 60.501s38.833 23.5 61.5 23.5zM255.998 592.004c-19.333 0 -36.166 -7 -50.499 -21s-26.833 -32 -37.5 -54c-8 -18 -15.167 -38 -21.5 -60
s-11.833 -43.833 -16.5 -65.5s-8.66699 -42.167 -12 -61.5s-6 -35.333 -8 -48c24 10 47.167 22.5 69.5 37.5s42.166 32.5 59.499 52.5s31.333 42.667 42 68s16 53 16 83c0 16 -2.83301 31.5 -8.5 46.5s-16.5 22.5 -32.5 22.5z" />
    <glyph glyph-name="agrave" unicode="&#xe0;" 
d="M238 323c16 -3.33301 31.0029 -9.33301 45.0029 -18s22.667 -19 26 -31c-8.66699 -13.333 -17.5 -29.333 -26.5 -48l-26.5 -57c-6.66699 -18 -12.5 -35.167 -17.5 -51.5s-7.5 -30.5 -7.5 -42.5c0 -20 5.5 -38.667 16.5 -56s27.5 -26 49.5 -26
c-2 -4.66699 -6.5 -7.83398 -13.5 -9.50098s-12.5 -2.5 -16.5 -2.5c-28 0 -47.333 7 -58 21s-16 31.333 -16 52c0 12 1.33301 23.333 4 34c-1.33301 0 -5.33301 -5 -12 -15s-15.334 -21.167 -26.001 -33.5s-22.834 -23.5 -36.501 -33.5s-27.834 -15 -42.501 -15
c-8.66699 0 -16.167 2.33301 -22.5 7s-11.5 10.834 -15.5 18.501s-7 15.834 -9 24.501s-3 17 -3 25c0 25.333 6 50.666 18 75.999s27.333 49.333 46 72c20.667 24.667 43.667 46.5 69 65.5s50.333 33.5 75 43.5zM67.0029 17c10.667 0 23.834 6.16895 39.501 18.502
s31.167 27 46.5 44s29.5 34.833 42.5 53.5s22.167 34 27.5 46c3.33301 7.33301 6.66602 15.666 9.99902 24.999s6.5 18.666 9.5 27.999s5.5 18.5 7.5 27.5s3.66699 16.833 5 23.5c-19.333 -9.33301 -40 -22.333 -62 -39s-42.667 -36 -62 -58
c-22 -24.667 -40.333 -50.667 -55 -78s-22 -54.333 -22 -81c0 -6.66699 4.33301 -10 13 -10zM200.003 453.002c22.667 0 41.4971 -8.33398 56.4971 -25.001s28.833 -41 41.5 -73c-19.333 0 -34.666 3.83301 -45.999 11.5s-20.166 16.834 -26.499 27.501
s-11.166 21.5 -14.499 32.5s-7 19.833 -11 26.5z" />
    <glyph glyph-name="aacute" unicode="&#xe1;" 
d="M238 323c16 -3.33301 31.0029 -9.33301 45.0029 -18s22.667 -19 26 -31c-8.66699 -13.333 -17.5 -29.333 -26.5 -48l-26.5 -57c-6.66699 -18 -12.5 -35.167 -17.5 -51.5s-7.5 -30.5 -7.5 -42.5c0 -20 5.5 -38.667 16.5 -56s27.5 -26 49.5 -26
c-2 -4.66699 -6.5 -7.83398 -13.5 -9.50098s-12.5 -2.5 -16.5 -2.5c-28 0 -47.333 7 -58 21s-16 31.333 -16 52c0 12 1.33301 23.333 4 34c-1.33301 0 -5.33301 -5 -12 -15s-15.334 -21.167 -26.001 -33.5s-22.834 -23.5 -36.501 -33.5s-27.834 -15 -42.501 -15
c-8.66699 0 -16.167 2.33301 -22.5 7s-11.5 10.834 -15.5 18.501s-7 15.834 -9 24.501s-3 17 -3 25c0 25.333 6 50.666 18 75.999s27.333 49.333 46 72c20.667 24.667 43.667 46.5 69 65.5s50.333 33.5 75 43.5zM67.0029 17c10.667 0 23.834 6.16895 39.501 18.502
s31.167 27 46.5 44s29.5 34.833 42.5 53.5s22.167 34 27.5 46c3.33301 7.33301 6.66602 15.666 9.99902 24.999s6.5 18.666 9.5 27.999s5.5 18.5 7.5 27.5s3.66699 16.833 5 23.5c-19.333 -9.33301 -40 -22.333 -62 -39s-42.667 -36 -62 -58
c-22 -24.667 -40.333 -50.667 -55 -78s-22 -54.333 -22 -81c0 -6.66699 4.33301 -10 13 -10zM346.003 463.002c-8 -20 -18.667 -38.498 -32 -55.498s-26.666 -31.167 -39.999 -42.5c-10.667 -7.33301 -20.5 -13.333 -29.5 -18s-16.833 -7 -23.5 -7
c-2.66699 0 -5.83398 0.5 -9.50098 1.5s-6.16699 3.16699 -7.5 6.5c7.33301 2.66699 14.333 7.16699 21 13.5s13.5 13.5 20.5 21.5l21.5 25.5c7.33301 9 15.333 17.5 24 25.5c8 7.33301 16.5 13.666 25.5 18.999s18.833 8.66602 29.5 9.99902z" />
    <glyph glyph-name="acircumflex" unicode="&#xe2;" 
d="M238 323c16 -3.33301 31.0029 -9.33301 45.0029 -18s22.667 -19 26 -31c-8.66699 -13.333 -17.5 -29.333 -26.5 -48l-26.5 -57c-6.66699 -18 -12.5 -35.167 -17.5 -51.5s-7.5 -30.5 -7.5 -42.5c0 -20 5.5 -38.667 16.5 -56s27.5 -26 49.5 -26
c-2 -4.66699 -6.5 -7.83398 -13.5 -9.50098s-12.5 -2.5 -16.5 -2.5c-28 0 -47.333 7 -58 21s-16 31.333 -16 52c0 12 1.33301 23.333 4 34c-1.33301 0 -5.33301 -5 -12 -15s-15.334 -21.167 -26.001 -33.5s-22.834 -23.5 -36.501 -33.5s-27.834 -15 -42.501 -15
c-8.66699 0 -16.167 2.33301 -22.5 7s-11.5 10.834 -15.5 18.501s-7 15.834 -9 24.501s-3 17 -3 25c0 25.333 6 50.666 18 75.999s27.333 49.333 46 72c20.667 24.667 43.667 46.5 69 65.5s50.333 33.5 75 43.5zM67.0029 17c10.667 0 23.834 6.16895 39.501 18.502
s31.167 27 46.5 44s29.5 34.833 42.5 53.5s22.167 34 27.5 46c3.33301 7.33301 6.66602 15.666 9.99902 24.999s6.5 18.666 9.5 27.999s5.5 18.5 7.5 27.5s3.66699 16.833 5 23.5c-19.333 -9.33301 -40 -22.333 -62 -39s-42.667 -36 -62 -58
c-22 -24.667 -40.333 -50.667 -55 -78s-22 -54.333 -22 -81c0 -6.66699 4.33301 -10 13 -10zM323.003 495.002c0 -14.667 -0.166992 -27.167 -0.5 -37.5s-0.5 -17.833 -0.5 -22.5c0 -9.33301 0.5 -18.833 1.5 -28.5s3.33301 -18.667 7 -27s8.66699 -16 15 -23
s14.5 -12.5 24.5 -16.5c-18.667 0.666992 -33.5 4.66699 -44.5 12s-19.167 17 -24.5 29c-4 8.66699 -6.83301 18.334 -8.5 29.001s-2.5 22 -2.5 34v9h-1c-3.33301 -6 -7.83301 -13.5 -13.5 -22.5s-11.834 -18.167 -18.501 -27.5c-9.33301 -12 -19.166 -22.667 -29.499 -32
s-20.5 -14 -30.5 -14c-8.66699 0 -16.334 4 -23.001 12c8.66699 1.33301 18.334 6.66602 29.001 15.999s22 21.333 34 36c10 12 19.667 25 29 39l27 41z" />
    <glyph glyph-name="atilde" unicode="&#xe3;" 
d="M238 323c16 -3.33301 31.0029 -9.33301 45.0029 -18s22.667 -19 26 -31c-8.66699 -13.333 -17.5 -29.333 -26.5 -48l-26.5 -57c-6.66699 -18 -12.5 -35.167 -17.5 -51.5s-7.5 -30.5 -7.5 -42.5c0 -20 5.5 -38.667 16.5 -56s27.5 -26 49.5 -26
c-2 -4.66699 -6.5 -7.83398 -13.5 -9.50098s-12.5 -2.5 -16.5 -2.5c-28 0 -47.333 7 -58 21s-16 31.333 -16 52c0 12 1.33301 23.333 4 34c-1.33301 0 -5.33301 -5 -12 -15s-15.334 -21.167 -26.001 -33.5s-22.834 -23.5 -36.501 -33.5s-27.834 -15 -42.501 -15
c-8.66699 0 -16.167 2.33301 -22.5 7s-11.5 10.834 -15.5 18.501s-7 15.834 -9 24.501s-3 17 -3 25c0 25.333 6 50.666 18 75.999s27.333 49.333 46 72c20.667 24.667 43.667 46.5 69 65.5s50.333 33.5 75 43.5zM67.0029 17c10.667 0 23.834 6.16895 39.501 18.502
s31.167 27 46.5 44s29.5 34.833 42.5 53.5s22.167 34 27.5 46c3.33301 7.33301 6.66602 15.666 9.99902 24.999s6.5 18.666 9.5 27.999s5.5 18.5 7.5 27.5s3.66699 16.833 5 23.5c-19.333 -9.33301 -40 -22.333 -62 -39s-42.667 -36 -62 -58
c-22 -24.667 -40.333 -50.667 -55 -78s-22 -54.333 -22 -81c0 -6.66699 4.33301 -10 13 -10zM397.003 433.002c1.33301 -2.66699 2.33398 -6.5 3.00098 -11.5s1 -10.167 1 -15.5c0 -6 -1.5 -11.167 -4.5 -15.5s-6.33301 -8 -10 -11s-7.5 -5.33301 -11.5 -7s-7 -2.5 -9 -2.5
c-10 0 -19 3 -27 9s-15 12.667 -21 20s-11.167 14 -15.5 20s-7.5 9 -9.5 9c-6.66699 0 -14 -2.66699 -22 -8s-16 -11.333 -24 -18c-8.66699 -6.66699 -17 -12.5 -25 -17.5s-16 -7.5 -24 -7.5c-14.667 0 -23.667 6.66699 -27 20c10 0 18.667 3.66699 26 11l23 22
c6 5.33301 12.5 10 19.5 14s15.5 6 25.5 6c18 0 31.833 -2.66699 41.5 -8s17.167 -11.333 22.5 -18s9.16602 -12.667 11.499 -18s4.83301 -8 7.5 -8c5.33301 0 11.333 1.66699 18 5s17 13.333 31 30z" />
    <glyph glyph-name="adieresis" unicode="&#xe4;" 
d="M238 323c16 -3.33301 31.0029 -9.33301 45.0029 -18s22.667 -19 26 -31c-8.66699 -13.333 -17.5 -29.333 -26.5 -48l-26.5 -57c-6.66699 -18 -12.5 -35.167 -17.5 -51.5s-7.5 -30.5 -7.5 -42.5c0 -20 5.5 -38.667 16.5 -56s27.5 -26 49.5 -26
c-2 -4.66699 -6.5 -7.83398 -13.5 -9.50098s-12.5 -2.5 -16.5 -2.5c-28 0 -47.333 7 -58 21s-16 31.333 -16 52c0 12 1.33301 23.333 4 34c-1.33301 0 -5.33301 -5 -12 -15s-15.334 -21.167 -26.001 -33.5s-22.834 -23.5 -36.501 -33.5s-27.834 -15 -42.501 -15
c-8.66699 0 -16.167 2.33301 -22.5 7s-11.5 10.834 -15.5 18.501s-7 15.834 -9 24.501s-3 17 -3 25c0 25.333 6 50.666 18 75.999s27.333 49.333 46 72c20.667 24.667 43.667 46.5 69 65.5s50.333 33.5 75 43.5zM67.0029 17c10.667 0 23.834 6.16895 39.501 18.502
s31.167 27 46.5 44s29.5 34.833 42.5 53.5s22.167 34 27.5 46c3.33301 7.33301 6.66602 15.666 9.99902 24.999s6.5 18.666 9.5 27.999s5.5 18.5 7.5 27.5s3.66699 16.833 5 23.5c-19.333 -9.33301 -40 -22.333 -62 -39s-42.667 -36 -62 -58
c-22 -24.667 -40.333 -50.667 -55 -78s-22 -54.333 -22 -81c0 -6.66699 4.33301 -10 13 -10zM216.003 461.002c13.333 0 23.499 -2.50195 30.499 -7.50195s10.5 -10.167 10.5 -15.5s-1.83301 -10.833 -5.5 -16.5s-7.66699 -11.5 -12 -17.5l-13 -17.5
c-4.33301 -5.66699 -7.16602 -11.167 -8.49902 -16.5c-10 1.33301 -16.833 5.33301 -20.5 12s-5.5 14.334 -5.5 23.001c0 6 1.16699 11.833 3.5 17.5s5 10.834 8 15.501l8.5 13c2.66699 4 4 7.33301 4 10zM335.002 460c13.333 0 23.667 -2.83496 31 -8.50195
s11 -11.167 11 -16.5s-1.66699 -10.666 -5 -15.999s-7.33301 -10.666 -12 -15.999l-13.5 -16c-4.33301 -5.33301 -7.5 -11 -9.5 -17c-9.33301 2 -15.833 5.66699 -19.5 11s-5.5 12 -5.5 20c0 6.66699 1.16699 13 3.5 19s5 11.5 8 16.5l8 13.5c2.33301 4 3.5 7.33301 3.5 10z
" />
    <glyph glyph-name="aring" unicode="&#xe5;" 
d="M238 323c16 -3.33301 31.0029 -9.33301 45.0029 -18s22.667 -19 26 -31c-8.66699 -13.333 -17.5 -29.333 -26.5 -48l-26.5 -57c-6.66699 -18 -12.5 -35.167 -17.5 -51.5s-7.5 -30.5 -7.5 -42.5c0 -20 5.5 -38.667 16.5 -56s27.5 -26 49.5 -26
c-2 -4.66699 -6.5 -7.83398 -13.5 -9.50098s-12.5 -2.5 -16.5 -2.5c-28 0 -47.333 7 -58 21s-16 31.333 -16 52c0 12 1.33301 23.333 4 34c-1.33301 0 -5.33301 -5 -12 -15s-15.334 -21.167 -26.001 -33.5s-22.834 -23.5 -36.501 -33.5s-27.834 -15 -42.501 -15
c-8.66699 0 -16.167 2.33301 -22.5 7s-11.5 10.834 -15.5 18.501s-7 15.834 -9 24.501s-3 17 -3 25c0 25.333 6 50.666 18 75.999s27.333 49.333 46 72c20.667 24.667 43.667 46.5 69 65.5s50.333 33.5 75 43.5zM67.0029 17c10.667 0 23.834 6.16895 39.501 18.502
s31.167 27 46.5 44s29.5 34.833 42.5 53.5s22.167 34 27.5 46c3.33301 7.33301 6.66602 15.666 9.99902 24.999s6.5 18.666 9.5 27.999s5.5 18.5 7.5 27.5s3.66699 16.833 5 23.5c-19.333 -9.33301 -40 -22.333 -62 -39s-42.667 -36 -62 -58
c-22 -24.667 -40.333 -50.667 -55 -78s-22 -54.333 -22 -81c0 -6.66699 4.33301 -10 13 -10zM288.003 329.002c-46 3.33301 -69.001 22.0039 -69.001 56.0039c0 10.667 2.33301 22.167 7 34.5s11.334 23.833 20.001 34.5s19.5 19.667 32.5 27s27.833 11 44.5 11
c0.666992 -2.66699 3.66699 -5.33398 9 -8.00098s11 -6.33398 17 -11.001s11.5 -10.834 16.5 -18.501s7.5 -17.834 7.5 -30.501c0 -10 -1.83301 -20.5 -5.5 -31.5s-9.16699 -21.333 -16.5 -31s-16.333 -17.5 -27 -23.5s-22.667 -9 -36 -9zM322.002 459.006
c-6.66699 0 -13.833 -2.00195 -21.5 -6.00195s-14.834 -9.66699 -21.501 -17s-12.167 -16.166 -16.5 -26.499s-6.5 -21.833 -6.5 -34.5c0 -8.66699 2.66699 -14.667 8 -18c10.667 0 20.667 2.66699 30 8s17.333 11.833 24 19.5s11.834 15.834 15.501 24.501
s5.5 16.667 5.5 24c0 10 -2.16699 16.833 -6.5 20.5s-7.83301 5.5 -10.5 5.5z" />
    <glyph glyph-name="ae" unicode="&#xe6;" horiz-adv-x="483" 
d="M364 323c11.333 0 22.6631 -1.16992 33.9961 -3.50293s21.833 -6.16602 31.5 -11.499s18 -12 25 -20s11.833 -18 14.5 -30c-4 -14 -11.5 -29 -22.5 -45s-24 -30.833 -39 -44.5s-31.167 -24.834 -48.5 -33.501s-34.666 -13 -51.999 -13c-10 0 -19.167 1.83301 -27.5 5.5
s-14.166 7.5 -17.499 11.5c-2.66699 -2.66699 -6.66699 -11.334 -12 -26.001s-8 -29.667 -8 -45c0 -18 6 -30.833 18 -38.5s25.667 -11.5 41 -11.5c13.333 0 30 4 50 12s40.167 19 60.5 33s39.5 30.5 57.5 49.5s32 39.5 42 61.5c-5.33301 -29.333 -15.5 -55.333 -30.5 -78
s-32.167 -41.667 -51.5 -57s-39.333 -27.166 -60 -35.499s-39.334 -12.5 -56.001 -12.5c-28.667 0 -50.5 4.5 -65.5 13.5s-26.5 20.833 -34.5 35.5c-8 -7.33301 -17.167 -16.333 -27.5 -27s-20.833 -24 -31.5 -40c6.66699 22.667 13.334 42.334 20.001 59.001
s16 34.667 28 54l-21.5 -26c-9 -10.667 -19.167 -21.167 -30.5 -31.5s-23.166 -19.166 -35.499 -26.499s-24.166 -11 -35.499 -11c-8.66699 0 -16.167 2.33301 -22.5 7s-11.5 10.834 -15.5 18.501s-7 15.834 -9 24.501s-3 17 -3 25c0 26 6.33301 52.167 19 78.5
s29.167 51 49.5 74s42.833 43.667 67.5 62s49 32.5 73 42.5c12 -2.66699 24.167 -7.33398 36.5 -14.001s21.5 -15 27.5 -25c20 18.667 40.667 31.667 62 39zM53.9971 30.9971c0 -0.666992 -0.165039 -1.16992 -0.498047 -1.50293s-0.5 -1.16602 -0.5 -2.49902
c0 -6.66699 4.66699 -10 14 -10c10.667 0 23.667 6.16699 39 18.5s30.666 27 45.999 44s29.5 34.833 42.5 53.5s22.167 34 27.5 46c6 15.333 12 33 18 53s10.667 37 14 51c-22.667 -9.33301 -45.167 -23.166 -67.5 -41.499s-42.833 -39.166 -61.5 -62.499
s-34.334 -47.833 -47.001 -73.5s-20.667 -50.5 -24 -74.5zM269.999 158.994c1.33301 -2.66699 4.99805 -4.83496 10.998 -6.50195s10.333 -2.5 13 -2.5c6 0 16.167 2.66699 30.5 8s29.166 12.666 44.499 21.999s28.833 20.666 40.5 33.999s17.5 28 17.5 44
c0 7.33301 -3.33301 14.833 -10 22.5s-13.334 11.834 -20.001 12.501c-11.333 -1.33301 -23.666 -7.66602 -36.999 -18.999s-26.166 -24.166 -38.499 -38.499s-23.166 -28.666 -32.499 -42.999s-15.666 -25.5 -18.999 -33.5z" />
    <glyph glyph-name="ccedilla" unicode="&#xe7;" horiz-adv-x="276" 
d="M202 322c28.667 0 50.002 -5.83203 64.002 -17.499s21 -23.834 21 -36.501c0 -8 -2.16699 -15 -6.5 -21s-10.5 -9.66699 -18.5 -11c0 14.667 -5.83301 27.167 -17.5 37.5s-22.834 15.5 -33.501 15.5c-17.333 0 -33.833 -6.66699 -49.5 -20s-29.5 -30 -41.5 -50
c-13.333 -22 -24 -46 -32 -72s-12 -50.333 -12 -73c0 -16 2.33301 -30.167 7 -42.5s14 -18.5 28 -18.5c15.333 0 31 3 47 9s31 14 45 24c13.333 9.33301 25.666 19.666 36.999 30.999s21 22.333 29 33c-2.66699 -10.667 -9.16699 -23 -19.5 -37s-22.833 -26.667 -37.5 -38
c-16 -12.667 -33.5 -22.834 -52.5 -30.501s-36.167 -11.5 -51.5 -11.5c-14.667 0 -27.167 3.5 -37.5 10.5s-18.833 16 -25.5 27s-11.5 23.5 -14.5 37.5s-4.5 28 -4.5 42c0 22.667 4.33301 45.834 13 69.501s20.667 45.834 36 66.501c16 22 35 40.167 57 54.5
s45.333 21.5 70 21.5zM121.002 11.001c12 -6.66699 22.834 -16.668 32.501 -30.001s14.5 -30 14.5 -50c0 -13.333 -2.33301 -25 -7 -35s-10.667 -18.167 -18 -24.5s-15.333 -11.166 -24 -14.499s-17 -5 -25 -5c-10 0 -20 2.66699 -30 8s-15.667 11.333 -17 18
c3.33301 -0.666992 6.16602 -1 8.49902 -1h6.5c22.667 0 39.667 5.5 51 16.5s17 31.5 17 61.5c0 22 -3 40.667 -9 56z" />
    <glyph glyph-name="egrave" unicode="&#xe8;" horiz-adv-x="304" 
d="M189 323c11.333 0 22.8311 -1.16992 34.498 -3.50293s22.334 -6.16602 32.001 -11.499s18 -12 25 -20s11.5 -18 13.5 -30c-3.33301 -14 -10.5 -29 -21.5 -45s-24 -30.833 -39 -44.5s-31.5 -24.834 -49.5 -33.501s-35.333 -13 -52 -13c-10 0 -19 1.83301 -27 5.5
s-14 7.5 -18 11.5c-2.66699 -2.66699 -6.66699 -11.334 -12 -26.001s-8 -29.667 -8 -45c0 -18 6 -30.833 18 -38.5s25.667 -11.5 41 -11.5s34.333 5 57 15s45.334 23.667 68.001 41c17.333 13.333 33.833 28.5 49.5 45.5s27.834 35.167 36.501 54.5
c-5.33301 -26.667 -14.166 -50.167 -26.499 -70.5s-27.5 -38.166 -45.5 -53.499c-22.667 -19.333 -46.334 -34.166 -71.001 -44.499s-46.334 -15.5 -65.001 -15.5c-19.333 0 -35.333 2.83301 -48 8.5s-23 13.334 -31 23.001s-13.667 20.667 -17 33s-5 25.166 -5 38.499
c0 26.667 7 54.834 21 84.501s34 58.834 60 87.501c12.667 14 25.667 26.333 39 37s27 17.667 41 21zM94.998 158.997c1.33301 -2.66699 5.00098 -4.83301 11.001 -6.5s10.667 -2.5 14 -2.5c6 0 16.167 2.66699 30.5 8s29.166 12.666 44.499 21.999
s28.833 20.666 40.5 33.999s17.5 28 17.5 44c0 7.33301 -3.5 14.833 -10.5 22.5s-13.833 11.834 -20.5 12.501c-12 -1.33301 -24.5 -7.66602 -37.5 -18.999s-25.5 -24 -37.5 -38c-12 -14.667 -22.667 -29 -32 -43s-16 -25.333 -20 -34zM146.999 456.998
c22.667 0 41.4971 -8.33398 56.4971 -25.001s28.833 -41 41.5 -73c-19.333 0 -34.666 3.83301 -45.999 11.5s-20.166 16.834 -26.499 27.501s-11.166 21.5 -14.499 32.5s-7 19.833 -11 26.5z" />
    <glyph glyph-name="eacute" unicode="&#xe9;" horiz-adv-x="304" 
d="M189 323c11.333 0 22.8311 -1.16992 34.498 -3.50293s22.334 -6.16602 32.001 -11.499s18 -12 25 -20s11.5 -18 13.5 -30c-3.33301 -14 -10.5 -29 -21.5 -45s-24 -30.833 -39 -44.5s-31.5 -24.834 -49.5 -33.501s-35.333 -13 -52 -13c-10 0 -19 1.83301 -27 5.5
s-14 7.5 -18 11.5c-2.66699 -2.66699 -6.66699 -11.334 -12 -26.001s-8 -29.667 -8 -45c0 -18 6 -30.833 18 -38.5s25.667 -11.5 41 -11.5s34.333 5 57 15s45.334 23.667 68.001 41c17.333 13.333 33.833 28.5 49.5 45.5s27.834 35.167 36.501 54.5
c-5.33301 -26.667 -14.166 -50.167 -26.499 -70.5s-27.5 -38.166 -45.5 -53.499c-22.667 -19.333 -46.334 -34.166 -71.001 -44.499s-46.334 -15.5 -65.001 -15.5c-19.333 0 -35.333 2.83301 -48 8.5s-23 13.334 -31 23.001s-13.667 20.667 -17 33s-5 25.166 -5 38.499
c0 26.667 7 54.834 21 84.501s34 58.834 60 87.501c12.667 14 25.667 26.333 39 37s27 17.667 41 21zM94.998 158.997c1.33301 -2.66699 5.00098 -4.83301 11.001 -6.5s10.667 -2.5 14 -2.5c6 0 16.167 2.66699 30.5 8s29.166 12.666 44.499 21.999
s28.833 20.666 40.5 33.999s17.5 28 17.5 44c0 7.33301 -3.5 14.833 -10.5 22.5s-13.833 11.834 -20.5 12.501c-12 -1.33301 -24.5 -7.66602 -37.5 -18.999s-25.5 -24 -37.5 -38c-12 -14.667 -22.667 -29 -32 -43s-16 -25.333 -20 -34zM278.999 464.998
c-8 -20 -18.667 -38.498 -32 -55.498s-26.666 -31.167 -39.999 -42.5c-10.667 -7.33301 -20.5 -13.333 -29.5 -18s-16.833 -7 -23.5 -7c-2.66699 0 -5.83398 0.5 -9.50098 1.5s-6.16699 3.16699 -7.5 6.5c7.33301 2.66699 14.333 7.16699 21 13.5s13.5 13.5 20.5 21.5
l21.5 25.5c7.33301 9 15.333 17.5 24 25.5c8 7.33301 16.5 13.666 25.5 18.999s18.833 8.66602 29.5 9.99902z" />
    </font>
</defs>
</svg>
